<?xml version="1.0" encoding="UTF-8"?>
<svg version="1.1" xmlns="http://www.w3.org/2000/svg" width="414" height="122">
<path d="M0 0 C136.62 0 273.24 0 414 0 C414 40.26 414 80.52 414 122 C277.38 122 140.76 122 0 122 C0 81.74 0 41.48 0 0 Z " fill="#FEFDFD" transform="translate(0,0)"/>
<path d="M0 0 C28.38 0 56.76 0 86 0 C86 28.38 86 56.76 86 86 C57.62 86 29.24 86 0 86 C0 57.62 0 29.24 0 0 Z " fill="#EC4D42" transform="translate(19,18)"/>
<path d="M0 0 C17.82 0 35.64 0 54 0 C54 0.33 54 0.66 54 1 C53.20078125 1.14695313 52.4015625 1.29390625 51.578125 1.4453125 C43.36086048 3.12348624 36.14906179 5.56391551 29 10 C28.26598969 10.33783508 27.53197937 10.67567017 26.77572632 11.02374268 C23.33209728 12.98780169 20.6021568 14.88785129 19.46867371 18.86370087 C18.57081396 24.7631072 18.73956274 30.73688632 18.8046875 36.6875 C18.79861961 38.63371766 18.78988054 40.57992865 18.77859497 42.52612305 C18.76534967 46.59848179 18.78452913 50.66905983 18.82666016 54.74121094 C18.87794663 59.95106215 18.84840822 65.15674159 18.79450798 70.36643982 C18.76192109 74.38341482 18.77236435 78.39940709 18.79565811 82.41641235 C18.80164448 84.33648172 18.79435462 86.2566415 18.77334213 88.17660522 C18.30197611 98.48558583 18.30197611 98.48558583 21.97644043 107.70452881 C24.25738356 109.51176428 26.36448038 110.78697755 29 112 C30.00546875 112.62390625 31.0109375 113.2478125 32.046875 113.890625 C39.18991416 117.4827892 46.14209498 119.5551594 54 121 C54 121.33 54 121.66 54 122 C36.18 122 18.36 122 0 122 C0 81.74 0 41.48 0 0 Z " fill="#FEFEFE" transform="translate(0,0)"/>
<path d="M0 0 C2.5721881 1.06483056 3.9233595 2.10135726 6 4 C6.33 2.68 6.66 1.36 7 0 C10.63 0 14.26 0 18 0 C18 13.53 18 27.06 18 41 C14.37 41 10.74 41 7 41 C6.67 39.68 6.34 38.36 6 37 C5.05125 37.66 4.1025 38.32 3.125 39 C-1.51810258 41.61702145 -5.78840856 41.92305616 -11 41 C-16.22785812 39.02361461 -20.41912779 35.52551633 -23.14453125 30.6328125 C-25.33772992 23.88296818 -25.48104659 15.67809583 -22.8203125 9.0703125 C-17.1187417 0.06005813 -10.24662009 -1.21983572 0 0 Z " fill="#3F1018" transform="translate(272,43)"/>
<path d="M0 0 C1.63671875 0.8125 1.63671875 0.8125 3.82421875 2.3125 C3.82421875 2.9725 3.82421875 3.6325 3.82421875 4.3125 C4.48421875 4.3125 5.14421875 4.3125 5.82421875 4.3125 C5.82421875 2.6625 5.82421875 1.0125 5.82421875 -0.6875 C9.12421875 -0.6875 12.42421875 -0.6875 15.82421875 -0.6875 C15.82421875 12.5125 15.82421875 25.7125 15.82421875 39.3125 C12.52421875 39.3125 9.22421875 39.3125 5.82421875 39.3125 C5.49421875 37.9925 5.16421875 36.6725 4.82421875 35.3125 C4.36273438 35.6734375 3.90125 36.034375 3.42578125 36.40625 C-1.21518138 39.70812065 -4.91039147 41.18753438 -10.6484375 40.8515625 C-16.12802527 39.68280962 -20.28678213 36.84813764 -23.625 32.3671875 C-26.91758412 26.10550121 -27.17998761 19.2196933 -26.17578125 12.3125 C-24.97951507 9.141122 -23.40792993 6.84306428 -21.17578125 4.3125 C-20.35078125 3.3225 -19.52578125 2.3325 -18.67578125 1.3125 C-13.75510652 -2.48052011 -5.64338213 -1.78318717 0 0 Z " fill="#3C0B13" transform="translate(224.17578125,43.6875)"/>
<path d="M0 0 C2.58550279 1.05540132 3.91715784 2.09568717 6 4 C6.33 2.68 6.66 1.36 7 0 C10.3 0 13.6 0 17 0 C17 13.2 17 26.4 17 40 C13.7 40 10.4 40 7 40 C6.67 38.68 6.34 37.36 6 36 C5.53851563 36.3609375 5.07703125 36.721875 4.6015625 37.09375 C-0.16363236 40.48400721 -3.80563951 41.75058015 -9.67578125 41.41796875 C-15.80394875 40.31592854 -19.55367002 35.88230081 -23 31 C-25.89882328 23.54588299 -25.80189469 16.555866 -23.125 9.1171875 C-18.17389394 -0.20051904 -9.56824782 -0.89303646 0 0 Z " fill="#3C0B13" transform="translate(396,43)"/>
<path d="M0 0 C0 28.38 0 56.76 0 86 C-10.09684966 77.92252027 -15.6843549 65.62310663 -18 53 C-19.5405368 35.57392786 -16.62432186 19.64113011 -6.0234375 5.33203125 C-1.4369469 0 -1.4369469 0 0 0 Z " fill="#FDD5D1" transform="translate(19,18)"/>
<path d="M0 0 C16.5 0 33 0 50 0 C47.36 4.62 44.72 9.24 42 14 C40.30626754 17.05941058 38.6178801 20.12085947 36.9375 23.1875 C33.20177501 29.96511041 29.28824971 36.55342594 25 43 C22.19535653 39.64287487 19.90421047 36.29328532 17.79296875 32.46484375 C17.20580078 31.40716797 16.61863281 30.34949219 16.01367188 29.25976562 C15.41103516 28.16341797 14.80839844 27.06707031 14.1875 25.9375 C12.994592 23.7793382 11.80058331 21.62178442 10.60546875 19.46484375 C10.01813965 18.40378418 9.43081055 17.34272461 8.82568359 16.24951172 C6.37331327 11.88456802 3.83377368 7.57320373 1.27856445 3.26782227 C0 1 0 1 0 0 Z " fill="#6D1413" transform="translate(37,46)"/>
<path d="M0 0 C1.23913704 1.00482749 2.46055721 2.03449008 3.625 3.125 C3.625 3.455 3.625 3.785 3.625 4.125 C-24.755 4.125 -53.135 4.125 -82.375 4.125 C-62.16646266 -21.13567168 -23.64262317 -18.03817089 0 0 Z " fill="#FED6D2" transform="translate(101.375,13.875)"/>
<path d="M0 0 C28.38 0 56.76 0 86 0 C78.05562297 7.94437703 69.70058805 12.71386262 59 16 C57.783125 16.4125 56.56625 16.825 55.3125 17.25 C39.79959058 20.77855112 23.40572532 17.05462217 10 9 C1.5989011 3.1978022 1.5989011 3.1978022 0 0 Z " fill="#FED6D2" transform="translate(19,104)"/>
<path d="M0 0 C11.88283333 11.88283333 17.80112595 26.07055837 18.3125 42.8125 C17.93876498 58.90386898 12.07093957 74.17848826 1 86 C0.67 86 0.34 86 0 86 C0 57.62 0 29.24 0 0 Z " fill="#FED7D3" transform="translate(105,18)"/>
<path d="M0 0 C3.63 0 7.26 0 11 0 C14.14981784 7.4389315 17.1487591 14.91583519 19.984375 22.48046875 C20.76797561 24.89846347 20.76797561 24.89846347 22 26 C25.3 17.42 28.6 8.84 32 0 C35.63 0 39.26 0 43 0 C38.8215296 11.16273188 34.21127317 22.12458066 29.56005859 33.09692383 C28.23707422 36.21799338 26.9171168 39.34032991 25.59765625 42.46289062 C24.75798472 44.44798952 23.91814717 46.4330182 23.078125 48.41796875 C22.68336975 49.35118454 22.2886145 50.28440033 21.88189697 51.24589539 C21.51771667 52.10471817 21.15353638 52.96354095 20.77832031 53.84838867 C20.29797333 54.98204109 20.29797333 54.98204109 19.80792236 56.13859558 C19.24205654 57.44231633 18.63559294 58.72881412 18 60 C14.37 60 10.74 60 7 60 C8.73273204 54.396091 11.22554971 49.35013652 13.85546875 44.12109375 C15.90761382 38.52497118 13.28993794 33.91571982 11.09375 28.65234375 C10.66660706 27.61177574 10.66660706 27.61177574 10.23083496 26.55018616 C9.32478243 24.34418907 8.41287415 22.14068201 7.5 19.9375 C6.58774079 17.73050668 5.67682647 15.52299059 4.76916504 13.31410217 C4.20550247 11.94285084 3.63913113 10.57270898 3.06970215 9.20384216 C1.8051963 6.13210293 0.8088038 3.2352152 0 0 Z " fill="#3D0D15" transform="translate(325,43)"/>
<path d="M0 0 C4.50674704 3.20271144 6.23280955 6.98657795 7.6875 12.19921875 C3.97693475 12.49164508 0.38912159 12.64551355 -3.3125 12.19921875 C-6.0625 9.69921875 -6.0625 9.69921875 -8.3125 7.19921875 C-11.85521642 6.44910508 -11.85521642 6.44910508 -15.3125 7.19921875 C-17.67747439 9.0663038 -18.97280715 10.51983306 -20.3125 13.19921875 C-20.85440904 18.13858637 -20.7163826 22.1807322 -18.875 26.82421875 C-15.6225006 29.83873039 -13.73081074 29.84426068 -9.43359375 29.80078125 C-7.12723087 29.38740807 -7.12723087 29.38740807 -5.890625 27.17578125 C-4.3125 25.19921875 -4.3125 25.19921875 -1.61328125 24.80859375 C-0.13408203 24.87820312 -0.13408203 24.87820312 1.375 24.94921875 C2.36886719 24.9853125 3.36273438 25.02140625 4.38671875 25.05859375 C5.14597656 25.105 5.90523437 25.15140625 6.6875 25.19921875 C5.9293838 29.95760768 4.25851687 32.96298471 0.6875 36.19921875 C-5.04869973 39.64093859 -10.71065069 40.15426156 -17.3125 39.19921875 C-22.56318616 37.52191623 -26.31116733 34.86175884 -29.375 30.26171875 C-32.29504009 24.17745404 -32.28139942 17.77998359 -31.3125 11.19921875 C-28.99287561 5.05458107 -24.76527134 1.17223094 -19.125 -2.05078125 C-12.33701312 -3.86091108 -6.13170305 -3.52325679 0 0 Z " fill="#3F0F17" transform="translate(185.3125,44.80078125)"/>
<path d="M0 0 C3.3 0 6.6 0 10 0 C10.33 1.32 10.66 2.64 11 4 C11.886875 3.34 12.77375 2.68 13.6875 2 C17 0 17 0 22 0 C22 3.3 22 6.6 22 10 C20.9275 10.0825 19.855 10.165 18.75 10.25 C14.57324412 11.08535118 13.55807963 11.71064477 11 15 C10.36264134 17.79057324 10.36264134 17.79057324 10.390625 20.859375 C10.35839844 21.97441406 10.32617188 23.08945313 10.29296875 24.23828125 C10.27169922 25.97658203 10.27169922 25.97658203 10.25 27.75 C10.22035156 28.92433594 10.19070313 30.09867188 10.16015625 31.30859375 C10.08949273 34.20579822 10.03677734 37.10219955 10 40 C6.7 40 3.4 40 0 40 C0 26.8 0 13.6 0 0 Z " fill="#38080F" transform="translate(300,43)"/>
<path d="M0 0 C3.40704599 0.94440924 5.0954939 2.88675585 7.2265625 5.6171875 C8.83288973 8.82984196 8.70588194 12.13240562 8.2265625 15.6171875 C6.21153361 19.36931026 4.77190108 21.25362845 1.2265625 23.6171875 C-5.67602199 24.28517955 -5.67602199 24.28517955 -9.6484375 21.8671875 C-13.36078806 17.93646338 -14.23201553 15.18817378 -14.09765625 9.6484375 C-13.56346154 6.30167546 -11.90467524 4.17467279 -9.7734375 1.6171875 C-6.02672561 -0.88062043 -4.30837918 -0.57538614 0 0 Z " fill="#F7F5F5" transform="translate(221.7734375,51.3828125)"/>
<path d="M0 0 C3.42290543 2.08246694 5.70461236 4.11383709 7 8 C7.34531267 13.35234642 7.47574585 16.65531768 4 21 C1.37862406 23.81555194 -0.03096977 24.00393267 -3.9375 24.5 C-7.4532712 24.38193306 -8.00327623 23.99735113 -10.9375 21.625 C-13.67592086 18.13973709 -14.15517646 16.4822136 -14.1875 12.125 C-14.20167969 11.26132812 -14.21585937 10.39765625 -14.23046875 9.5078125 C-13.98317813 6.81695521 -13.464313 5.25809884 -12 3 C-7.95374707 0.42511177 -4.77891083 -0.79648514 0 0 Z " fill="#FAF9F9" transform="translate(396,51)"/>
<path d="M0 0 C2.97672584 1.77280561 5.42804007 3.85608015 7 7 C7.42308538 11.59698532 7.53894467 15.70653278 5.75 20 C2.86283567 23.29961637 0.97458789 23.87366453 -3.375 24.4375 C-8.20918218 23.85406422 -9.63062001 22.44960332 -13 19 C-14.35624248 14.93127256 -14.66606438 11.24978036 -14 7 C-10.62383862 0.91535095 -6.78069106 -0.67806911 0 0 Z " fill="#F9F8F9" transform="translate(272,51)"/>
<path d="M0 0 C0 4.27840261 -2.28404432 5.82034457 -5 9 C-5.33 9.99 -5.66 10.98 -6 12 C-6.66 12 -7.32 12 -8 12 C-6.74337944 7.49710965 -5.16038089 4.4566666 -2 1 C-1.34 0.67 -0.68 0.34 0 0 Z " fill="#461E21" transform="translate(256,45)"/>
</svg>
