<?xml version="1.0" encoding="UTF-8"?>
<svg version="1.1" xmlns="http://www.w3.org/2000/svg" width="5814" height="2526">
<path d="M0 0 C1.13669486 -0.00457964 1.13669486 -0.00457964 2.29635325 -0.00925181 C4.84326355 -0.01706404 7.38993735 -0.01061483 9.93684888 -0.00426924 C11.78609014 -0.00696184 13.63533029 -0.01052922 15.48456836 -0.01489371 C20.59116997 -0.02437953 25.69770052 -0.02134208 30.8043057 -0.01633817 C36.35050937 -0.01308014 41.89669758 -0.02134689 47.44289637 -0.02815652 C57.17171795 -0.03848046 66.90051962 -0.04129617 76.62934613 -0.03924429 C90.42000382 -0.03634282 104.21064349 -0.04351738 118.00129665 -0.05352344 C146.01626127 -0.07382047 174.0312179 -0.07993571 202.04618904 -0.08110766 C205.06240135 -0.08123715 208.07861367 -0.08137303 211.09482598 -0.08151448 C211.84329041 -0.08154849 212.59175484 -0.0815825 213.36290001 -0.08161754 C229.94310023 -0.08243418 246.52329892 -0.08681315 263.10349832 -0.09182617 C269.92899392 -0.09388286 276.75448953 -0.09586291 283.57998514 -0.09785867 C284.71119757 -0.09819044 284.71119757 -0.09819044 285.86526278 -0.09852891 C329.0865122 -0.11117865 372.30776061 -0.11942697 415.52901196 -0.1185118 C417.14679633 -0.11848024 418.76458069 -0.11844877 420.38236506 -0.11841738 C427.68665983 -0.11827061 434.9909546 -0.11809427 442.29524938 -0.11790961 C445.55247409 -0.11782736 448.8096988 -0.11774707 452.06692351 -0.11766698 C453.69722394 -0.11762619 455.32752437 -0.11758415 456.9578248 -0.11754086 C508.51303556 -0.11618028 560.06821885 -0.13081588 611.62342191 -0.15862143 C624.61301915 -0.16562335 637.60261641 -0.17256222 650.59221387 -0.17915022 C651.39201273 -0.17955597 652.19181159 -0.17996172 653.01584678 -0.18037976 C677.66258163 -0.19280785 702.30931422 -0.20034052 726.95605206 -0.2028662 C728.11660528 -0.20298605 728.11660528 -0.20298605 729.30060402 -0.20310832 C746.28447162 -0.2048148 763.26833908 -0.20533729 780.25220675 -0.20476757 C786.32921313 -0.2045746 792.40621951 -0.20447051 798.4832259 -0.20441011 C799.99505688 -0.20439428 801.50688786 -0.20437387 803.01871884 -0.20434886 C827.11722463 -0.20399609 851.21570694 -0.21539745 875.314206 -0.2326565 C899.58345777 -0.24994949 923.85267699 -0.2543448 948.12193233 -0.24113385 C963.18295348 -0.23293793 978.24388891 -0.23543619 993.30490198 -0.25591692 C1002.90692096 -0.26787394 1012.50886497 -0.26537368 1022.11088044 -0.25097592 C1027.58686496 -0.24317669 1033.06264952 -0.24176493 1038.53862032 -0.25789063 C1043.51911392 -0.27242926 1048.49924071 -0.26859836 1053.47971788 -0.25004289 C1055.27136726 -0.24659674 1057.06304523 -0.24986858 1058.85466552 -0.26064531 C1071.7201716 -0.33285663 1081.63265453 0.79490559 1091.34803128 9.96003091 C1096.79165544 16.26260957 1099.45213792 23.44852308 1099.4573012 31.68628019 C1099.45907621 32.34649482 1099.46085122 33.00670944 1099.46268002 33.68693057 C1099.467445 35.91926065 1099.46504099 38.15152681 1099.46272111 40.38385999 C1099.464673 41.99937111 1099.46706144 43.61488176 1099.46984908 45.23039165 C1099.47627264 49.70200375 1099.47640883 54.17359795 1099.47557167 58.64521379 C1099.47574071 63.49787868 1099.48164163 68.35053706 1099.48681253 73.20319873 C1099.49615605 82.84241111 1099.50006352 92.48161889 1099.5023315 102.12083523 C1099.50528901 113.66071893 1099.51398375 125.2005965 1099.52274578 136.74047699 C1099.54360945 164.63627398 1099.55406289 192.53207205 1099.56287539 220.42787503 C1099.56707905 233.61872905 1099.57230141 246.80958261 1099.57755991 260.00043624 C1099.59517105 304.42662953 1099.61022469 348.85282307 1099.61753015 393.27901934 C1099.61811413 396.8211235 1099.61871139 400.36322766 1099.61930777 403.90533182 C1099.61942589 404.60797855 1099.61954401 405.31062529 1099.61966571 406.03456435 C1099.62086311 413.15345829 1099.62207186 420.27235223 1099.62329824 427.39124617 C1099.62354347 428.81861415 1099.62378733 430.24598213 1099.62402981 431.67335011 C1099.63181964 477.51576133 1099.65420271 523.35814695 1099.68670624 569.20054698 C1099.71005014 602.13547983 1099.73160283 635.07040759 1099.73871255 668.00534856 C1099.73885957 668.68260102 1099.73900659 669.35985348 1099.73915807 670.05762874 C1099.74234283 684.92474282 1099.74439376 699.79185685 1099.74538561 714.65897123 C1099.74580036 720.64087494 1099.74635545 726.62277863 1099.74694753 732.60468233 C1099.74707072 733.9134121 1099.74719391 735.22214187 1099.74732084 736.57053013 C1099.74965549 757.65608944 1099.76533021 778.74161879 1099.78578937 799.82716742 C1099.80601843 821.01122694 1099.81153852 842.19525038 1099.80201874 863.37931777 C1099.79679242 875.97257512 1099.80273456 888.56571255 1099.82455341 901.15895271 C1099.83802132 909.56591862 1099.83702008 917.97280161 1099.82415145 926.37976827 C1099.81722809 931.1732572 1099.81667623 935.9665162 1099.83371154 940.75998498 C1099.84908485 945.12123675 1099.84602689 949.48207318 1099.82830126 953.84331248 C1099.82515274 955.41080112 1099.82870066 956.97832129 1099.83979301 958.54577385 C1099.91803274 970.37269027 1098.50213102 980.18001814 1090.05115628 988.99909341 C1084.65606047 993.46533485 1078.41914171 996.48741255 1072.23426175 999.71589029 C1068.98496314 1001.43472612 1065.765226 1003.20389296 1062.55115628 1004.98737466 C1061.95747754 1005.31678049 1061.3637988 1005.64618631 1060.75212979 1005.98557413 C1059.52593553 1006.66623665 1058.29981653 1007.34703478 1057.07376981 1008.02796304 C1046.41986711 1013.93824099 1035.7176924 1019.75623504 1024.99256253 1025.53620279 C1018.34712944 1029.12916695 1011.76516495 1032.82211047 1005.20350003 1036.56549966 C995.69128406 1041.98936356 986.05915364 1047.15965145 976.38337064 1052.28293741 C968.12873914 1056.65643526 959.93813997 1061.1139617 951.82850003 1065.75299966 C942.44377455 1071.12143749 932.93541811 1076.22535881 923.38172269 1081.28376138 C915.12764643 1085.6569883 906.93760324 1090.11426873 898.82850003 1094.75299966 C889.44744804 1100.11933611 879.94312979 1105.22197225 870.39280057 1110.2777189 C860.94516987 1115.28231917 851.60099666 1120.43784945 842.31678128 1125.74128091 C835.78489454 1129.46185845 829.17618974 1132.99647653 822.50476956 1136.45905435 C816.42893633 1139.6304849 810.46685142 1142.97868898 804.51600003 1146.37799966 C795.53790977 1151.50309479 786.46395724 1156.41687767 777.32850003 1161.25299966 C768.42382854 1165.96754179 759.57550119 1170.74936562 750.82850003 1175.75299966 C741.44377455 1181.12143749 731.93541811 1186.22535881 722.38172269 1191.28376138 C714.12764643 1195.6569883 705.93760324 1200.11426873 697.82850003 1204.75299966 C688.44377455 1210.12143749 678.93541811 1215.22535881 669.38172269 1220.28376138 C661.12764643 1224.6569883 652.93760324 1229.11426873 644.82850003 1233.75299966 C635.44377455 1239.12143749 625.93541811 1244.22535881 616.38172269 1249.28376138 C608.12762704 1253.65699857 599.93792426 1258.11480282 591.82850003 1262.75299966 C582.78059623 1267.92148213 573.64228634 1272.90345977 564.45350003 1277.81549966 C563.81243314 1278.15951822 563.17136624 1278.50353677 562.51087308 1278.85798013 C536.69533267 1292.69854167 536.69533267 1292.69854167 522.45350003 1288.87799966 C514.43522902 1286.2295958 507.42769822 1282.07982068 500.15369534 1277.87067544 C495.16123216 1275.01204591 490.11725761 1272.24613008 485.07743192 1269.47217691 C483.19712969 1268.43699253 481.31778065 1267.40009521 479.43860745 1266.36286294 C470.5312973 1261.44928133 461.59380199 1256.59316235 452.6431973 1251.75885904 C445.5079456 1247.90164247 438.40909504 1243.98366905 431.32459378 1240.03424966 C424.9596666 1236.48714946 418.58240287 1232.96238354 412.20350003 1229.44049966 C411.2711453 1228.92569543 411.2711453 1228.92569543 410.31995511 1228.40049112 C400.78661357 1223.13890069 391.22403085 1217.9335547 381.6431973 1212.75885904 C374.5079456 1208.90164247 367.40909504 1204.98366905 360.32459378 1201.03424966 C353.95966544 1197.48714882 347.58230953 1193.96255438 341.20350003 1190.44049966 C340.58026853 1190.09629983 339.95703702 1189.75210001 339.31491971 1189.39746988 C330.88431471 1184.74321942 322.43087753 1180.13416715 313.95350003 1175.56549966 C306.27493554 1171.42693728 298.65699044 1167.19694546 291.07850003 1162.87799966 C282.4627688 1157.96967086 273.76572385 1153.2290625 265.01600003 1148.56549966 C255.26170982 1143.3660705 245.55946881 1138.08838398 235.91199613 1132.69342935 C230.35137795 1129.59310359 224.77712799 1126.51735464 219.20350003 1123.44049966 C218.26810895 1122.92392801 218.26810895 1122.92392801 217.31382108 1122.39692056 C208.88358554 1117.74284572 200.43051832 1113.13397356 191.95350003 1108.56549966 C184.27493554 1104.42693728 176.65699044 1100.19694546 169.07850003 1095.87799966 C160.4627688 1090.96967086 151.76572385 1086.2290625 143.01600003 1081.56549966 C133.26170982 1076.3660705 123.55946881 1071.08838398 113.91199613 1065.69342935 C108.35137795 1062.59310359 102.77712799 1059.51735464 97.20350003 1056.44049966 C96.26810895 1055.92392801 96.26810895 1055.92392801 95.31382108 1055.39692056 C86.88358554 1050.74284572 78.43051832 1046.13397356 69.95350003 1041.56549966 C62.27493554 1037.42693728 54.65699044 1033.19694546 47.07850003 1028.87799966 C38.46274582 1023.96965777 29.76541002 1019.22967968 21.01600003 1014.56549966 C-0.50422923 1003.08722046 -0.50422923 1003.08722046 -10.67149997 997.25299966 C-12.29958591 996.32100748 -12.29958591 996.32100748 -13.96056247 995.37018716 C-23.422116 989.68305391 -29.77731128 983.09751039 -32.67149997 972.25299966 C-33.23401165 966.91859543 -33.20973265 961.61615077 -33.17486453 956.26080453 C-33.17904144 954.63713024 -33.18496969 953.01345968 -33.19248199 951.38979739 C-33.20804716 946.9280549 -33.19874453 942.46665899 -33.18537018 938.00492219 C-33.17522146 933.15089288 -33.18826379 928.29691661 -33.19834352 923.44289482 C-33.21279416 914.93556836 -33.21234964 906.42834343 -33.20215487 897.92101228 C-33.18703616 885.27040943 -33.19475406 872.61989235 -33.2069881 859.96929009 C-33.2280633 837.37645397 -33.22622063 814.78366305 -33.21467245 792.19082262 C-33.20461598 772.41962755 -33.20198074 752.64844908 -33.20676303 732.87725198 C-33.20706857 731.56652023 -33.20737411 730.25578847 -33.20768891 728.90533757 C-33.20893423 723.58484401 -33.21020544 718.26435046 -33.21152796 712.94385692 C-33.21519599 698.07087876 -33.2174784 683.19790053 -33.21867251 668.32492197 C-33.2187271 667.64764199 -33.21878168 666.97036201 -33.21883792 666.2725584 C-33.22047502 644.69150475 -33.21596748 623.11045684 -33.2072742 601.529405 C-33.2069932 600.8294439 -33.20671221 600.12948281 -33.2064227 599.40831077 C-33.2018429 588.04139841 -33.19696505 576.67448617 -33.192062 565.30757394 C-33.17263666 520.22507625 -33.17353827 475.14262606 -33.19298434 430.06012857 C-33.1978691 418.69895054 -33.20271331 407.3377725 -33.2072742 395.97659433 C-33.20769689 394.92727043 -33.20769689 394.92727043 -33.20812812 393.85674807 C-33.21675285 372.29819041 -33.22040995 350.7396367 -33.21867251 329.18107736 C-33.21861818 328.50429474 -33.21856384 327.82751211 -33.21850786 327.13022093 C-33.21725794 312.27376586 -33.21472339 297.4173112 -33.2110305 282.56085655 C-33.20955007 276.58348683 -33.20815639 270.60611708 -33.20676303 264.62874734 C-33.20628856 262.66719094 -33.20628856 262.66719094 -33.20580452 260.66600713 C-33.20125184 240.90572662 -33.20658091 221.14546451 -33.21668124 201.38518655 C-33.22810675 178.92013447 -33.22528359 156.45513472 -33.20355827 133.99008918 C-33.19179642 121.41235545 -33.19107044 108.83473501 -33.20614296 96.25700418 C-33.21509636 87.8606219 -33.20955955 79.46433066 -33.19212389 71.0679619 C-33.18258829 66.28065142 -33.17939757 61.49356644 -33.19374782 56.70626289 C-33.20667105 52.35068896 -33.20117725 47.9955405 -33.18102518 43.63999756 C-33.17699815 42.07458796 -33.17965689 40.50914311 -33.18984893 38.94376151 C-33.26103963 27.17403013 -31.90469328 17.81240692 -23.59728122 9.00690591 C-16.66390408 2.69232917 -9.38126674 -0.06116948 0 0 Z M33.32850003 66.25299966 C33.32850003 356.32299966 33.32850003 646.39299966 33.32850003 945.25299966 C46.19850003 952.18299966 46.19850003 952.18299966 59.32850003 959.25299966 C70.70350003 965.69049966 70.70350003 965.69049966 76.35193753 968.90534341 C83.54440896 972.96452064 90.83813739 976.83288898 98.12922025 980.71073282 C107.03521056 985.45057875 115.84496417 990.33624079 124.60584378 995.33893716 C132.11153185 999.60708155 139.70586909 1003.69889234 147.32850003 1007.75299966 C156.83615716 1012.8096609 166.25414637 1017.99886804 175.60584378 1023.33893716 C183.11153185 1027.60708155 190.70586909 1031.69889234 198.32850003 1035.75299966 C207.83615716 1040.8096609 217.25414637 1045.99886804 226.60584378 1051.33893716 C234.11153185 1055.60708155 241.70586909 1059.69889234 249.32850003 1063.75299966 C258.83615716 1068.8096609 268.25414637 1073.99886804 277.60584378 1079.33893716 C285.11153185 1083.60708155 292.70586909 1087.69889234 300.32850003 1091.75299966 C309.83615716 1096.8096609 319.25414637 1101.99886804 328.60584378 1107.33893716 C336.11153185 1111.60708155 343.70586909 1115.69889234 351.32850003 1119.75299966 C360.83615716 1124.8096609 370.25414637 1129.99886804 379.60584378 1135.33893716 C387.11153185 1139.60708155 394.70586909 1143.69889234 402.32850003 1147.75299966 C410.89361246 1152.30836713 419.40348433 1156.94219789 427.82850003 1161.75299966 C436.35924605 1166.62330202 444.97282334 1171.32103121 453.64100003 1175.94049966 C462.61879212 1180.72584568 471.56326471 1185.55902253 480.44178128 1190.52643716 C484.38919699 1192.73427053 488.34758883 1194.92191477 492.30896878 1197.10456216 C492.93018613 1197.4469996 493.55140347 1197.78943704 494.19144559 1198.14225137 C497.3787599 1199.89873068 500.56742496 1201.65269425 503.75818753 1203.40290201 C509.05451428 1206.31209585 514.33988158 1209.22827478 519.53553128 1212.31549966 C520.26884671 1212.74725503 521.00216214 1213.17901041 521.75769925 1213.62384927 C523.04270813 1214.38632537 524.32001265 1215.16203612 525.58680081 1215.95441568 C528.18552804 1217.49009608 530.08003447 1218.247424 533.11365628 1218.31549966 C537.89410123 1216.73557132 542.0054253 1214.24422733 546.32850003 1211.69049966 C555.56494628 1206.34655577 564.89513564 1201.23636157 574.32850003 1196.25299966 C583.23422119 1191.54057099 592.08159962 1186.75657607 600.82850003 1181.75299966 C610.21322552 1176.38456183 619.72158195 1171.28064051 629.27527738 1166.22223794 C637.52935364 1161.84901103 645.71939683 1157.3917306 653.82850003 1152.75299966 C663.21322552 1147.38456183 672.72158195 1142.28064051 682.27527738 1137.22223794 C690.52935364 1132.84901103 698.71939683 1128.3917306 706.82850003 1123.75299966 C716.21322552 1118.38456183 725.72158195 1113.28064051 735.27527738 1108.22223794 C743.52935364 1103.84901103 751.71939683 1099.3917306 759.82850003 1094.75299966 C769.21322552 1089.38456183 778.72158195 1084.28064051 788.27527738 1079.22223794 C796.52935364 1074.84901103 804.71939683 1070.3917306 812.82850003 1065.75299966 C822.21322552 1060.38456183 831.72158195 1055.28064051 841.27527738 1050.22223794 C849.52935364 1045.84901103 857.71939683 1041.3917306 865.82850003 1036.75299966 C875.21322552 1031.38456183 884.72158195 1026.28064051 894.27527738 1021.22223794 C902.52935364 1016.84901103 910.71939683 1012.3917306 918.82850003 1007.75299966 C928.21322552 1002.38456183 937.72158195 997.28064051 947.27527738 992.22223794 C955.52935914 987.84900811 963.71930507 983.39157778 971.82850003 978.75299966 C981.80535564 973.04811789 991.91393452 967.61527532 1002.07459378 962.24714029 C1012.56217997 956.69726676 1022.92582225 950.97447244 1033.32850003 945.25299966 C1033.32850003 655.18299966 1033.32850003 365.11299966 1033.32850003 66.25299966 C703.32850003 66.25299966 373.32850003 66.25299966 33.32850003 66.25299966 Z " fill="#000000" transform="translate(960.6714999675751,617.747000336647)"/>
<path d="M0 0 C277.25277094 0 277.25277094 0 298.6875 3.6875 C299.66041992 3.85338623 300.63333984 4.01927246 301.63574219 4.19018555 C372.99179137 16.98244904 438.1472631 56.20969224 482 114 C482.45375 114.59151855 482.9075 115.18303711 483.375 115.79248047 C534.58414941 182.73171306 554.23887661 270.73981513 544.0390625 353.765625 C540.06120666 382.72568081 533.21064498 410.96673584 522 438 C521.68450195 438.76328613 521.36900391 439.52657227 521.04394531 440.31298828 C509.93096438 466.88625615 495.29261471 491.71244644 477 514 C476.58991699 514.51014648 476.17983398 515.02029297 475.75732422 515.54589844 C469.12869358 523.76469926 461.8761729 531.32459914 454.4375 538.8125 C453.57535889 539.68390625 452.71321777 540.5553125 451.82495117 541.453125 C445.85941102 547.38986249 439.59372935 552.77484253 433 558 C431.92826536 558.86964374 430.85662498 559.73940367 429.78515625 560.609375 C309.84058561 654.91299726 138.39075315 622 0 622 C0 416.74 0 211.48 0 0 Z M123 118 C123 245.38 123 372.76 123 504 C200.24962862 507.85883368 200.24962862 507.85883368 288.75 499.75 C289.69842773 499.53311523 290.64685547 499.31623047 291.62402344 499.09277344 C318.26628079 492.80137038 343.39260394 481.23313182 364 463 C364.98613281 462.13503906 365.97226562 461.27007813 366.98828125 460.37890625 C403.82901497 427.61726109 424.06137907 380.36365717 427.71875 331.53125 C430.71933671 279.98270915 421.64563039 226.51435998 389 185 C388.3090625 184.08863281 387.618125 183.17726563 386.90625 182.23828125 C358.30288485 145.68360751 316.57666756 124.83885419 271 119 C221.86814699 114.53346791 172.33445945 118 123 118 Z " fill="#000000" transform="translate(4339,883)"/>
<path d="M0 0 C335.42635607 0 335.42635607 0 398.1875 61.875 C405.09126013 68.81165476 411.2780111 76.06683243 417 84 C417.40347656 84.54849609 417.80695312 85.09699219 418.22265625 85.66210938 C448.45493981 127.12213812 461.98101587 181.29414418 454.8125 232.125 C451.16327433 255.04240327 444.00088748 276.58355255 433 297 C432.52675293 297.89428711 432.52675293 297.89428711 432.04394531 298.80664062 C418.26513563 324.70794712 397.64039559 347.74443768 374 365 C372.94296875 365.77859375 371.8859375 366.5571875 370.796875 367.359375 C344.7 386 344.7 386 337 386 C344.58238309 399.19761612 352.18925956 412.37771648 359.95092773 425.47094727 C364.40652502 432.98829827 368.83287392 440.52251159 373.25 448.0625 C373.97306166 449.29646897 374.69612482 450.53043707 375.41918945 451.7644043 C378.69120225 457.34898538 381.96173526 462.93443162 385.23124695 468.52047729 C387.00784849 471.55560103 388.78500289 474.59040068 390.5625 477.625 C390.91337677 478.22405151 391.26425354 478.82310303 391.62576294 479.44030762 C396.78566603 488.24738839 401.97691022 497.03531005 407.1875 505.8125 C413.30110482 516.11144683 419.35702448 526.44245249 425.3828125 536.79296875 C429.3459858 543.59900299 433.32823572 550.39380263 437.3125 557.1875 C438.02807892 558.40787599 438.74365509 559.6282536 439.45922852 560.84863281 C442.75668516 566.47184872 446.05529192 572.09438883 449.35482788 577.71638489 C463.01366287 600.99017608 463.01366287 600.99017608 469.5625 612.25 C470.02188965 613.03648926 470.4812793 613.82297852 470.95458984 614.63330078 C474 619.88371774 474 619.88371774 474 621 C456.76277404 621.21032372 439.52594893 621.36898769 422.28773308 621.46630955 C414.28350791 621.51270099 406.28008035 621.57593589 398.27636719 621.67895508 C391.29954404 621.76871385 384.3232985 621.8267358 377.34591401 621.84679645 C373.65169456 621.85852234 369.95912735 621.88603434 366.26543808 621.95157051 C362.13959528 622.02417921 358.01661635 622.0259063 353.89013672 622.02172852 C352.66806015 622.054086 351.44598358 622.08644348 350.18687439 622.11978149 C342.08300579 622.03084494 342.08300579 622.03084494 338.94143295 619.0405798 C337.3921786 616.75111602 336.1668271 614.50211892 335 612 C334.36384766 610.94031006 333.72769531 609.88062012 333.07226562 608.78881836 C332.52248047 607.81565674 331.97269531 606.84249512 331.40625 605.83984375 C330.77581787 604.72915527 330.14538574 603.6184668 329.49584961 602.47412109 C329.17083466 601.89813171 328.8458197 601.32214233 328.51095581 600.72869873 C326.75548414 597.6183762 324.98846474 594.51461816 323.22265625 591.41015625 C322.68736046 590.46819397 322.68736046 590.46819397 322.14125061 589.50720215 C318.78333452 583.60441521 315.36862201 577.73551753 311.9375 571.875 C307.09533879 563.60022025 302.28472035 555.30813201 297.5 547 C292.69155277 538.65197552 287.86102905 530.31751697 283 522 C277.50054464 512.5900967 272.04550804 503.15529437 266.60546875 493.7109375 C262.42650872 486.4604851 258.22259494 479.22511731 254 472 C249.1389702 463.68248174 244.30863403 455.34791779 239.5 447 C234.41572687 438.17586247 229.31465217 429.3618017 224.1875 420.5625 C223.59453125 419.54349609 223.0015625 418.52449219 222.390625 417.47460938 C221.84277344 416.53552734 221.29492188 415.59644531 220.73046875 414.62890625 C220.24989014 413.80463135 219.76931152 412.98035645 219.27416992 412.13110352 C218.23300282 410.38970715 217.12543875 408.68815812 216 407 C185.64 406.67 155.28 406.34 124 406 C124 476.95 124 547.9 124 621 C83.08 621 42.16 621 0 621 C0 416.07 0 211.14 0 0 Z M124 115 C124 175.06 124 235.12 124 297 C146.171875 297.061875 168.34375 297.12375 191.1875 297.1875 C198.1693042 297.21481201 205.1511084 297.24212402 212.34448242 297.27026367 C218.64316338 297.28030152 218.64316338 297.28030152 224.94184875 297.28633118 C227.73135139 297.28910828 230.52067999 297.30027866 233.31013489 297.31672668 C236.88332217 297.33751244 240.45626134 297.34343554 244.02950346 297.33921683 C245.93935302 297.34050825 247.84917601 297.35648972 249.75895214 297.37328625 C262.14402462 297.32915828 273.0249973 294.72200995 284 289 C284.96679688 288.50757813 285.93359375 288.01515625 286.9296875 287.5078125 C308.14495768 275.99095154 322.01901269 256.18299277 329.26757812 233.55078125 C336.78346264 207.37546077 332.82229036 180.41723022 320.09765625 156.625 C317.2721386 151.59722148 313.9099287 147.2333603 310 143 C308.824375 141.72189453 308.824375 141.72189453 307.625 140.41796875 C294.12888044 126.35248164 275.11429093 115.55618381 255.22268867 114.90974236 C251.78291203 114.87700292 248.34446278 114.87641326 244.90454102 114.88647461 C243.5620394 114.88678131 242.21953763 114.88664682 240.87703609 114.88610935 C237.29724957 114.88588454 233.71749679 114.89166051 230.1377182 114.89871979 C226.77276199 114.90443467 223.40780716 114.90468399 220.04284668 114.90539551 C210.21606002 114.91063299 200.38927958 114.92459422 190.5625 114.9375 C168.596875 114.958125 146.63125 114.97875 124 115 Z " fill="#000000" transform="translate(3174,884)"/>
<path d="M0 0 C126.39 0 252.78 0 383 0 C383 38.61 383 77.22 383 117 C382 118 382 118 380.21508592 118.1241985 C379.42868512 118.12381878 378.64228432 118.12343906 377.83205318 118.12304783 C376.92786268 118.12503888 376.02367218 118.12702993 375.09208196 118.12908131 C373.58481781 118.12471205 373.58481781 118.12471205 372.04710388 118.12025452 C370.45936215 118.12153615 370.45936215 118.12153615 368.83954483 118.12284368 C365.26337444 118.12450164 361.68725011 118.11897198 358.11108398 118.11352539 C355.5592448 118.11324356 353.00740554 118.11340117 350.45556641 118.1139679 C344.94654686 118.11419622 339.43754237 118.1113447 333.92852592 118.10573006 C325.96332697 118.0976174 317.99813374 118.09500008 310.0329311 118.09374207 C297.11122491 118.09155118 284.18952503 118.08489009 271.26782227 118.07543945 C258.71248404 118.06626629 246.15714753 118.05919645 233.60180664 118.05493164 C232.82054136 118.05466364 232.03927607 118.05439565 231.23433608 118.05411953 C225.12470773 118.05204021 219.01507934 118.05008325 212.90545094 118.04816496 C182.93696151 118.03872416 152.96848784 118.01860755 123 118 C123 161.23 123 204.46 123 249 C200.55 249 278.1 249 358 249 C358 287.28 358 325.56 358 365 C280.45 365 202.9 365 123 365 C123 410.54 123 456.08 123 503 C208.8 503 294.6 503 383 503 C383 541.94 383 580.88 383 621 C256.61 621 130.22 621 0 621 C0 416.07 0 211.14 0 0 Z " fill="#000000" transform="translate(3802,884)"/>
<path d="M0 0 C1.10128235 0.00215515 2.2025647 0.0043103 3.33721924 0.00653076 C29.51309602 0.08868207 53.89545403 3.1321067 79.375 9.3125 C80.30618652 9.53776367 81.23737305 9.76302734 82.19677734 9.99511719 C119.16242659 19.18672445 155.49624157 36.64285595 185.375 60.3125 C186.46328638 61.13747514 187.55320851 61.96029572 188.64453125 62.78125 C198.15589765 69.9996496 206.80159768 78.01418011 215.375 86.3125 C216.18227539 87.0869043 216.18227539 87.0869043 217.00585938 87.87695312 C223.68134779 94.29336696 229.68485608 101.01348153 235.375 108.3125 C236.12185059 109.26068604 236.12185059 109.26068604 236.88378906 110.22802734 C242.75716701 117.69601151 248.50324704 125.22008843 253.6875 133.1875 C254.06648438 133.76411377 254.44546875 134.34072754 254.8359375 134.93481445 C256.55263389 137.64163018 257.375 139.03862006 257.375 142.3125 C256.51841797 142.79323975 256.51841797 142.79323975 255.64453125 143.28369141 C243.56269443 150.07132111 231.53172063 156.93690301 219.57226562 163.93798828 C211.1137158 168.88850318 202.62774275 173.79019523 194.1328125 178.67797852 C188.60048716 181.86415413 183.07870427 185.06670825 177.57421875 188.30078125 C176.48044922 188.94273437 175.38667969 189.5846875 174.25976562 190.24609375 C172.17987867 191.46836085 170.10165934 192.69347164 168.02539062 193.921875 C167.09275391 194.46972656 166.16011719 195.01757812 165.19921875 195.58203125 C164.38541748 196.06260986 163.57161621 196.54318848 162.7331543 197.03833008 C160.33547804 198.33385471 157.92299944 199.35130576 155.375 200.3125 C155.05789063 199.82523438 154.74078125 199.33796875 154.4140625 198.8359375 C152.75433178 196.31424719 151.06829132 193.81179798 149.375 191.3125 C148.64796875 190.23742188 147.9209375 189.16234375 147.171875 188.0546875 C121.65419567 150.97340673 81.92644962 127.39713703 37.96875 119.125 C36.43793294 118.85173018 34.90670475 118.58074952 33.375 118.3125 C32.1271875 118.085625 30.879375 117.85875 29.59375 117.625 C-21.91462496 109.96259711 -77.69435108 121.95279618 -119.69799805 152.9621582 C-137.02773048 166.11472543 -151.27615113 181.75896841 -162.625 200.3125 C-163.03991699 200.98732422 -163.45483398 201.66214844 -163.88232422 202.35742188 C-192.6516088 249.83061274 -198.46117142 310.85100421 -185.875 364.3125 C-183.22087516 374.94887425 -179.8887562 385.21469846 -175.625 395.3125 C-175.13241699 396.48304932 -175.13241699 396.48304932 -174.62988281 397.67724609 C-156.73556092 439.38817971 -122.7891019 472.55222241 -80.75 489.5625 C-63.06738777 496.43840824 -45.43476557 500.79645718 -26.625 503.3125 C-25.83778564 503.41780029 -25.05057129 503.52310059 -24.23950195 503.6315918 C-16.53618312 504.53085855 -8.80735728 504.51213153 -1.0625 504.5 C-0.35057495 504.49939575 0.3613501 504.4987915 1.09484863 504.49816895 C11.66255699 504.47381528 21.94215385 504.13824808 32.375 502.3125 C33.13039063 502.18891113 33.88578125 502.06532227 34.6640625 501.93798828 C67.30239434 496.52668929 97.33794867 482.97549235 122.375 461.3125 C123.22707031 460.59449219 124.07914063 459.87648438 124.95703125 459.13671875 C136.97748532 448.74114941 146.88366674 435.31803609 154.375 421.3125 C158.18060234 421.89316603 160.901577 422.97671734 164.19921875 424.9453125 C165.13185547 425.49638672 166.06449219 426.04746094 167.02539062 426.61523438 C168.02763672 427.21658203 169.02988281 427.81792969 170.0625 428.4375 C172.23264035 429.72208522 174.40322863 431.00591395 176.57421875 432.2890625 C177.69618652 432.95454102 178.8181543 433.62001953 179.97412109 434.30566406 C185.41657321 437.51721872 190.89612731 440.66362301 196.375 443.8125 C207.70788549 450.33989783 219.01033847 456.91828122 230.30175781 463.51708984 C235.82446075 466.74349256 241.34992772 469.96515698 246.875 473.1875 C248.90626128 474.37237649 250.93751238 475.55727044 252.96875 476.7421875 C253.82146484 477.23960449 254.67417969 477.73702148 255.55273438 478.24951172 C256.15408203 478.60029785 256.75542969 478.95108398 257.375 479.3125 C256.45428157 483.62844131 254.33109788 486.99362 252 490.6875 C251.55519287 491.39430908 251.11038574 492.10111816 250.65209961 492.8293457 C246.41312184 499.44576308 241.72257361 505.6100958 236.7265625 511.66845703 C235.44817197 513.22349349 234.19210567 514.79680491 232.9375 516.37109375 C221.30116 530.64379203 208.03108902 544.14491121 193.375 555.3125 C192.31522026 556.17011157 191.25809133 557.03100548 190.203125 557.89453125 C176.60729865 568.94796929 161.80303853 578.05218404 146.375 586.3125 C145.76430664 586.64314453 145.15361328 586.97378906 144.52441406 587.31445312 C110.53261258 605.57166204 72.58767657 615.98215453 34.375 620.3125 C33.11804321 620.45606934 33.11804321 620.45606934 31.83569336 620.60253906 C21.72828332 621.59978684 11.58417947 621.55616785 1.4375 621.5625 C0.46379456 621.56317474 -0.50991089 621.56384949 -1.51312256 621.56454468 C-73.72229744 621.48538255 -146.34766202 598.83450997 -201.625 551.3125 C-202.7046535 550.41537058 -203.78545356 549.5196198 -204.8671875 548.625 C-216.72632832 538.74266091 -227.98753446 528.11055092 -237.5390625 515.94921875 C-238.94909788 514.16687066 -240.40424746 512.41944492 -241.8984375 510.70703125 C-250.13492468 501.25772799 -256.89725876 490.86656867 -263.625 480.3125 C-264.08938477 479.58401855 -264.55376953 478.85553711 -265.03222656 478.10498047 C-294.87723631 430.69010713 -308.89190721 374.94138039 -310.625 319.3125 C-310.64836426 318.59723145 -310.67172852 317.88196289 -310.69580078 317.14501953 C-312.94109889 236.82372486 -285.11762964 156.75872021 -230.60546875 97.48046875 C-228.70618692 95.40137326 -226.88311611 93.27291788 -225.0625 91.125 C-222.24297264 87.89442537 -219.23332625 85.10444804 -215.9609375 82.33984375 C-213.65742515 80.34064156 -211.44954968 78.25793174 -209.24121094 76.15478516 C-201.52387066 68.8501244 -193.27941904 62.4660386 -184.625 56.3125 C-184.03025879 55.88759277 -183.43551758 55.46268555 -182.82275391 55.02490234 C-129.47994931 17.27345887 -64.87382915 -0.22901112 0 0 Z " fill="#000000" transform="translate(2762.625,885.6875)"/>
<path d="M0 0 C2.2286382 -0.00174547 4.45727559 -0.00524993 6.68590862 -0.01035666 C12.79520819 -0.01928514 18.90422635 -0.00332198 25.01349008 0.01675558 C30.92948174 0.03226975 36.84545449 0.02891157 42.76145911 0.02602821 C54.85803607 0.02078137 66.95452542 0.03410484 79.05107689 0.05809784 C91.02412538 0.08178488 102.99713737 0.09716544 114.97020912 0.10150909 C116.08785677 0.10192153 116.08785677 0.10192153 117.22808316 0.1023423 C121.01222874 0.10369568 124.79637436 0.1049012 128.58052001 0.10604981 C155.36732889 0.11444623 182.15409014 0.14138107 208.94087219 0.17926025 C234.96007535 0.21601148 260.97926546 0.24433932 286.99848938 0.2612915 C287.80084467 0.26181761 288.60319997 0.26234371 289.42986905 0.26288576 C297.4876223 0.26815995 305.54537565 0.27326319 313.60312908 0.2782412 C330.01696509 0.28838541 346.43080024 0.29967042 362.84463501 0.31164551 C363.97659929 0.31246925 363.97659929 0.31246925 365.13143153 0.31330963 C415.5051888 0.35009777 465.87891421 0.4143916 516.25263977 0.48101807 C516.25263977 22.59101807 516.25263977 44.70101807 516.25263977 67.48101807 C351.58263977 67.48101807 186.91263977 67.48101807 17.25263977 67.48101807 C17.25263977 217.63101807 17.25263977 367.78101807 17.25263977 522.48101807 C19.23263977 523.14101807 21.21263977 523.80101807 23.25263977 524.48101807 C25.12449363 525.41719598 26.97193334 526.40336058 28.79560852 527.43023682 C29.8552179 528.02320557 30.91482727 528.61617432 32.00654602 529.22711182 C33.13963196 529.86777588 34.2727179 530.50843994 35.44013977 531.16851807 C36.6429588 531.84354273 37.84608979 532.51801178 39.04951477 533.19195557 C41.54730907 534.59133941 44.04374933 535.99309507 46.53926086 537.39654541 C52.26457765 540.61378785 58.00962773 543.79551018 63.75263977 546.98101807 C66.00273204 548.23085197 68.25273176 549.4808525 70.50263977 550.73101807 C72.17326477 551.65914307 72.17326477 551.65914307 73.87763977 552.60601807 C77.25263977 554.48101807 80.62763977 556.35601807 84.00263977 558.23101807 C85.67374817 559.15938477 85.67374817 559.15938477 87.37861633 560.10650635 C89.62542257 561.35476816 91.8721675 562.60314031 94.11885071 563.85162354 C99.79221424 567.00413186 105.46667699 570.15463123 111.14326477 573.30133057 C121.66095775 579.1339509 132.16726046 584.98362918 142.62763977 590.91851807 C153.06013969 596.83562176 163.55669561 602.63313336 174.06306458 608.41748047 C174.67476501 608.75426819 175.28646545 609.09105591 175.91670227 609.43804932 C176.83473633 609.9434726 176.83473633 609.9434726 177.77131653 610.45910645 C187.50023613 615.81776627 197.20316756 621.22336605 206.90986633 626.62213135 C212.52310117 629.74360156 218.13795607 632.86215497 223.75263977 635.98101807 C226.00264745 637.23100425 228.25264745 638.48100425 230.50263977 639.73101807 C232.17326477 640.65914307 232.17326477 640.65914307 233.87763977 641.60601807 C237.25263977 643.48101807 240.62763977 645.35601807 244.00263977 647.23101807 C245.1165509 647.84984863 246.23046204 648.4686792 247.37812805 649.10626221 C249.62653116 650.35539312 251.87490359 651.60457926 254.12324524 652.8538208 C259.77242647 655.99257298 265.42214937 659.13034249 271.07295227 662.26617432 C282.99523834 668.88358998 294.90646643 675.51993095 306.79951477 682.1897583 C315.95521699 687.32164005 325.12958484 692.41956075 334.3092804 697.50836182 C335.90932922 698.39588135 335.90932922 698.39588135 337.54170227 699.30133057 C339.04072083 700.1255249 339.04072083 700.1255249 340.57002258 700.96636963 C342.19136185 701.88180363 343.79626475 702.8286063 345.36494446 703.831604 C348.17036985 705.62468344 349.753292 706.52291663 353.12739563 706.23980713 C356.28063199 705.47422174 358.55472915 704.46168057 361.35810852 702.84820557 C362.32732239 702.29721191 363.29653625 701.74621826 364.29512024 701.17852783 C365.33297668 700.57709961 366.37083313 699.97567139 367.44013977 699.35601807 C369.69628638 698.07022325 371.95280954 696.78508897 374.20967102 695.50054932 C375.3849713 694.82819882 376.56026423 694.15583547 377.73554993 693.48345947 C383.33775151 690.28582051 388.98466634 687.16843254 394.62763977 684.04351807 C396.89335816 682.78587379 399.15898264 681.52806033 401.42451477 680.27008057 C404.83916761 678.37511438 408.25391152 676.48031239 411.6686554 674.58551025 C423.70804303 667.90423589 435.74246138 661.2146868 447.75263977 654.48101807 C462.03457023 646.47366085 476.35161779 638.52986989 490.6686554 630.58551025 C502.70804303 623.90423589 514.74246138 617.2146868 526.75263977 610.48101807 C541.03457023 602.47366085 555.35161779 594.52986989 569.6686554 586.58551025 C581.70804303 579.90423589 593.74246138 573.2146868 605.75263977 566.48101807 C620.69504425 558.10335716 635.67364293 549.79099794 650.65614319 541.48530579 C652.46077016 540.48474025 654.26518673 539.48379633 656.0695343 538.48272705 C658.31096747 537.23927799 660.5527943 535.99653811 662.79512024 534.75469971 C664.81807236 533.63225604 666.83089856 532.49127177 668.83072472 531.328125 C672.25263977 529.48101807 672.25263977 529.48101807 675.87363625 528.06639099 C680.33042887 526.23324491 685.04117885 524.28258669 687.05446386 519.62675667 C688.38283877 513.87751807 688.06748231 507.98118759 687.93379211 502.12164307 C687.93970959 500.14016567 687.95178636 498.15869854 687.96954346 496.17729187 C688.00024215 490.81074965 687.94497034 485.44815169 687.874084 480.08211899 C687.81462085 474.47002737 687.83444572 468.85822525 687.84580994 463.24591064 C687.8552956 452.62424204 687.79362131 442.00422982 687.70628893 431.38296413 C687.61031631 419.28870207 687.59380793 407.19473834 687.58392787 395.10014725 C687.56183039 370.22617288 687.42960616 345.35440598 687.25263977 320.48101807 C709.36263977 320.48101807 731.47263977 320.48101807 754.25263977 320.48101807 C754.31882468 348.97447126 754.37419848 377.46786452 754.40583576 405.96137559 C754.4095877 409.32827478 754.41347069 412.69517381 754.41743469 416.06207275 C754.41822162 416.73233797 754.41900855 417.40260319 754.41981933 418.09317948 C754.43285937 428.93404739 754.45650545 439.77486738 754.48409816 450.61570691 C754.51219145 461.74637234 754.52859989 472.87701827 754.53490525 484.00771821 C754.53881339 490.25673821 754.54798746 496.50564967 754.56982994 502.75463486 C754.5902331 508.63966905 754.59646576 514.52455026 754.59196281 520.40961647 C754.59278629 522.56625132 754.59872898 524.72289142 754.6102562 526.87949562 C754.62526012 529.83205056 754.62156453 532.78403363 754.61340332 535.73660278 C754.62214184 536.58293774 754.63088037 537.42927269 754.6398837 538.30125415 C754.5826406 546.00319627 752.93826133 553.76531398 748.56513977 560.23101807 C748.12814758 560.90648682 747.6911554 561.58195557 747.24092102 562.27789307 C741.13032624 569.04876822 732.8494282 573.116815 724.94013977 577.41851807 C723.74577321 578.07411966 722.55177015 578.73038387 721.35810852 579.38726807 C718.8847274 580.74773263 716.40982704 582.10537032 713.93379211 583.46099854 C708.19200458 586.60774935 702.47367562 589.79675095 696.75263977 592.98101807 C694.50535938 594.22992373 692.25796319 595.47862105 690.01045227 596.72711182 C688.89702454 597.34570068 687.7835968 597.96428955 686.63642883 598.60162354 C683.2354745 600.49055185 679.83396813 602.37848263 676.43232727 604.26617432 C665.5281996 610.31846536 654.63074555 616.38206113 643.75263977 622.48101807 C629.47070931 630.48837528 615.15366175 638.43216625 600.83662415 646.37652588 C588.79723651 653.05780024 576.76281816 659.74734933 564.75263977 666.48101807 C550.47070931 674.48837528 536.15366175 682.43216625 521.83662415 690.37652588 C509.79723651 697.05780024 497.76281816 703.74734933 485.75263977 710.48101807 C471.47070931 718.48837528 457.15366175 726.43216625 442.83662415 734.37652588 C431.82853147 740.48548172 420.82100393 746.59514973 409.83906555 752.7510376 C407.79369747 753.89749213 405.74780498 755.0430116 403.70137024 756.18756104 C398.74370984 758.96054313 393.79021653 761.7403149 388.84846497 764.54153442 C386.41049309 765.92171091 383.968953 767.29549487 381.52680969 768.66827393 C379.80536791 769.63879092 378.08849493 770.61739788 376.3717804 771.59625244 C368.73078373 775.88357154 361.33517567 779.90583034 352.37763977 779.91851807 C351.4727179 779.937854 350.56779602 779.95718994 349.63545227 779.97711182 C339.43660385 778.48143774 330.59493657 773.17439374 321.75263977 768.16851807 C320.47785684 767.4549134 319.20261955 766.74211988 317.92695618 766.03009033 C315.3096298 764.5678423 312.69471611 763.10141817 310.08174133 761.63140869 C305.38208554 758.98909136 300.66684068 756.37527992 295.95137024 753.7612915 C292.61272916 751.91025119 289.27615109 750.05554309 285.94013977 748.19976807 C281.44137891 745.69752988 276.94135774 743.19758353 272.44013977 740.69976807 C260.50040907 734.07332867 248.57276879 727.42614253 236.66181946 720.74810791 C225.6778497 714.59273134 214.66936475 708.4816942 203.65986633 702.37213135 C198.02312009 699.24356755 192.38795567 696.1121573 186.75263977 692.98101807 C184.50264745 691.73100425 182.25264745 690.48100425 180.00263977 689.23101807 C157.50263977 676.73101807 135.00263977 664.23101807 112.50263977 651.73101807 C111.38872864 651.1121875 110.2748175 650.49335693 109.12715149 649.85577393 C106.87874838 648.60664301 104.63037595 647.35745688 102.3820343 646.10821533 C96.73285307 642.96946315 91.08313017 639.83169364 85.43232727 636.69586182 C73.495421 630.07033127 61.57023048 623.4247194 49.66181946 616.74810791 C42.07604537 612.49706779 34.47982749 608.26513052 26.87763977 604.04351807 C25.75905579 603.42235107 24.6404718 602.80118408 23.48799133 602.16119385 C16.63197993 598.35503411 9.77404952 594.55234404 2.91548157 590.75079346 C-0.45536711 588.87933222 -3.82215391 587.00071136 -7.18876648 585.12164307 C-11.53210701 582.70015174 -15.89426994 580.31905912 -20.27470398 577.96539307 C-22.32812378 576.84566446 -24.38151074 575.72587561 -26.43486023 574.60601807 C-27.36072937 574.11923584 -28.28659851 573.63245361 -29.24052429 573.13092041 C-38.4533155 568.06167308 -45.7060353 560.75622886 -48.74736023 550.48101807 C-49.6696843 545.14815943 -49.89068569 540.02785092 -49.87878799 534.63869858 C-49.88186695 533.332323 -49.88186695 533.332323 -49.8850081 531.99955601 C-49.89066605 529.07895405 -49.88922233 526.15839943 -49.88780212 523.23779297 C-49.89038644 521.12356806 -49.89339978 519.00934365 -49.89680552 516.89511991 C-49.90487078 511.0831623 -49.90666483 505.27121704 -49.90740299 499.4592545 C-49.90925434 493.19189323 -49.91680201 486.92453836 -49.92353821 480.65718079 C-49.93782601 466.23824643 -49.94364727 451.81931613 -49.94823015 437.4003762 C-49.95056731 430.27347978 -49.95417006 423.14658416 -49.95792553 416.01968837 C-49.97075888 391.61824306 -49.98147891 367.21679819 -49.98492813 342.81534958 C-49.98514976 341.2841662 -49.98537155 339.75298283 -49.98559348 338.22179945 C-49.98581412 336.68694938 -49.9860346 335.15209932 -49.98625493 333.61724925 C-49.98669748 330.53814745 -49.9871446 327.45904565 -49.9875946 324.37994385 C-49.987704 323.6165081 -49.98781339 322.85307235 -49.98792609 322.06650219 C-49.99155721 297.30872937 -50.00748044 272.55098583 -50.03078497 247.79322423 C-50.05538567 221.61054959 -50.06910105 195.42789169 -50.07029605 169.24520516 C-50.0704675 166.37062597 -50.07068293 163.49604678 -50.07093048 160.62146759 C-50.07098625 159.91367855 -50.07104202 159.20588951 -50.07109948 158.47665231 C-50.07224961 147.0915297 -50.08326827 135.70643715 -50.09781754 124.32132469 C-50.11218977 112.87681466 -50.11516305 101.43235717 -50.10737756 89.98783794 C-50.10346802 83.78907308 -50.10441571 77.59040933 -50.11843491 71.39165688 C-50.13115501 65.71543751 -50.12999278 60.03939543 -50.11784419 54.36317638 C-50.11588396 52.31138483 -50.11898068 50.2595808 -50.12768856 48.2078068 C-50.23377019 21.51974965 -50.23377019 21.51974965 -40.74736023 10.48101807 C-29.28128065 -0.78390222 -14.97544783 -0.08713695 0 0 Z " fill="#000000" transform="translate(1140.7473602294922,944.5189819335938)"/>
<path d="M0 0 C58.87240081 -0.05071962 117.74480136 -0.09911429 176.61721802 -0.12702942 C177.48846499 -0.12744359 178.35971195 -0.12785776 179.25736034 -0.12828448 C198.19163062 -0.13726308 217.12590114 -0.14557364 236.06017201 -0.15319599 C245.34545327 -0.15693802 254.63073446 -0.16082768 263.91601562 -0.16479492 C264.84001566 -0.1651872 265.7640157 -0.16557948 266.71601574 -0.16598364 C296.66874706 -0.17876905 326.62146141 -0.201304 356.57418246 -0.22889166 C387.35295259 -0.25718868 418.13171332 -0.27565616 448.91049624 -0.28174497 C453.25718596 -0.28260944 457.60387566 -0.28358635 461.95056534 -0.28463173 C462.80606126 -0.284834 463.66155717 -0.28503627 464.54297721 -0.28524467 C478.31742357 -0.28879064 492.09184089 -0.30270705 505.86627541 -0.3204961 C519.71221858 -0.33815639 533.55813295 -0.34490429 547.40408699 -0.34050413 C555.63151727 -0.33822138 563.85884219 -0.34431469 572.08625345 -0.36239263 C578.22854918 -0.37496754 584.37074319 -0.37188346 590.51304282 -0.36269668 C592.99907527 -0.3614269 595.48511654 -0.36525181 597.97113155 -0.37464955 C601.34838565 -0.38667546 604.72512322 -0.38020726 608.10236931 -0.36914349 C609.069189 -0.37702453 610.03600869 -0.38490557 611.03212595 -0.39302543 C621.25020721 -0.31730302 630.14591194 2.3195113 638 9 C644.69012904 16.18677617 648.12727257 24.32763585 648.12304783 34.17551136 C648.12503888 35.20261811 648.12702993 36.22972486 648.12908131 37.28795606 C648.12616847 38.40954875 648.12325563 39.53114145 648.12025452 40.6867218 C648.12110894 41.88339122 648.12196337 43.08006063 648.12284368 44.31299275 C648.12420592 47.63097758 648.12108093 50.94890341 648.11606562 54.26688111 C648.11174708 57.84624042 648.11320854 61.42559792 648.1139679 65.00495911 C648.11449224 71.20526371 648.11135478 77.4055578 648.10573006 83.60585976 C648.09760295 92.57045461 648.09499859 101.53504438 648.09374207 110.49964251 C648.09155345 125.04411677 648.08489853 139.58858543 648.07543945 154.13305664 C648.06626041 168.26163708 648.05918198 182.390216 648.05493164 196.51879883 C648.05466892 197.38968792 648.05440619 198.26057701 648.05413551 199.15785668 C648.05283047 203.52685231 648.05156676 207.89584794 648.05032361 212.26484358 C648.03995693 248.5099007 648.02152181 284.75494745 648 321 C625.89 321 603.78 321 581 321 C581 237.18 581 153.36 581 67 C389.27 67 197.54 67 0 67 C0 44.89 0 22.78 0 0 Z " fill="#000000" transform="translate(1247,781)"/>
<path d="M0 0 C21.78 0 43.56 0 66 0 C66.33 61.71 66.66 123.42 67 187 C75.91 191.95 84.82 196.9 94 202 C105.625 208.5625 105.625 208.5625 111.265625 211.7578125 C120.43889343 216.95052639 129.64286186 222.08858267 138.84277344 227.23388672 C144.06293711 230.15398137 149.28138679 233.07713566 154.5 236 C156.58332501 237.16668154 158.66665834 238.3333482 160.75 239.5 C164.91666667 241.83333333 169.08333333 244.16666667 173.25 246.5 C174.2817334 247.0777417 175.3134668 247.6554834 176.37646484 248.25073242 C178.45501534 249.41477919 180.53346624 250.5790038 182.61181641 251.7434082 C187.89251525 254.70164262 193.17503115 257.65654813 198.4609375 260.60546875 C199.52473633 261.19972656 200.58853516 261.79398438 201.68457031 262.40625 C203.78954553 263.5814795 205.89564323 264.75470105 208.00292969 265.92578125 C212.92498863 268.67122769 217.80415065 271.4615603 222.6171875 274.39453125 C223.48746582 274.91958252 224.35774414 275.44463379 225.25439453 275.9855957 C226.87180162 276.96708427 228.48028472 277.96349411 230.07763672 278.97729492 C231.14522217 279.62275269 231.14522217 279.62275269 232.234375 280.28125 C233.15041504 280.85456055 233.15041504 280.85456055 234.08496094 281.43945312 C238.18881205 282.64068237 242.38189403 279.34080555 245.9296875 277.41796875 C246.87755127 276.90508301 247.82541504 276.39219727 248.80200195 275.86376953 C249.81609131 275.31060059 250.83018066 274.75743164 251.875 274.1875 C252.94000732 273.6085498 254.00501465 273.02959961 255.10229492 272.43310547 C263.16204238 268.03709589 271.16626487 263.54805092 279.14892578 259.01391602 C286.49349019 254.84338134 293.86457105 250.7227116 301.25 246.625 C302.37752686 245.99940186 303.50505371 245.37380371 304.66674805 244.72924805 C306.96161527 243.45646043 309.25661914 242.18391916 311.55175781 240.91162109 C317.24413121 237.75590857 322.93489616 234.5973027 328.625 231.4375 C329.74358398 230.81633301 330.86216797 230.19516602 332.01464844 229.55517578 C340.54806856 224.81342465 349.06736876 220.0468179 357.58203125 215.27148438 C366.37924722 210.34038412 375.19679323 205.4463556 384.01733398 200.55712891 C392.48185876 195.85919163 400.91479496 191.10733748 409.31689453 186.29858398 C415.11796086 182.99656306 420.99958208 179.92416772 427 177 C435.60653147 191.9428074 444.03974575 206.9765795 452.37451172 222.07226562 C453.42362112 223.96186009 454.48190419 225.84640397 455.55126953 227.72460938 C456.01001465 228.53220703 456.46875977 229.33980469 456.94140625 230.171875 C457.54190796 231.21746582 457.54190796 231.21746582 458.15454102 232.28417969 C459 234 459 234 459 236 C458.24195068 236.41660889 457.48390137 236.83321777 456.70288086 237.26245117 C443.89466898 244.30537428 431.0880547 251.34870214 418.375 258.5625 C406.7736119 265.1450866 395.11434575 271.62133565 383.44824219 278.08837891 C377.75586879 281.24409143 372.06510384 284.4026973 366.375 287.5625 C365.25641602 288.18366699 364.13783203 288.80483398 362.98535156 289.44482422 C354.45193144 294.18657535 345.93263124 298.9531821 337.41796875 303.72851562 C329.74853756 308.02745908 322.06396856 312.29861743 314.375 316.5625 C306.0629699 321.17293127 297.76907116 325.81296604 289.5 330.5 C285.6678577 332.66877899 281.83442435 334.83525829 278 337 C277.43142273 337.32111755 276.86284546 337.64223511 276.27703857 337.9730835 C272.60314491 340.04703363 268.9256883 342.11447103 265.24414062 344.17480469 C263.47979109 345.16379413 261.71837238 346.15800639 259.95703125 347.15234375 C258.87679688 347.755625 257.7965625 348.35890625 256.68359375 348.98046875 C255.25358032 349.78327271 255.25358032 349.78327271 253.79467773 350.60229492 C248.28753107 353.3565899 243.36821722 354.36318877 237.25 354.375 C235.93515625 354.40335938 234.6203125 354.43171875 233.265625 354.4609375 C224.20160088 353.93070327 216.09285748 348.57167407 208.4375 344.125 C206.40267997 342.95904845 204.36751152 341.7937048 202.33203125 340.62890625 C200.76702881 339.73002686 200.76702881 339.73002686 199.17041016 338.81298828 C194.00825661 335.86102831 188.81655851 332.96233353 183.625 330.0625 C181.52339189 328.88680028 179.4218296 327.71101864 177.3203125 326.53515625 C176.27649414 325.95137207 175.23267578 325.36758789 174.15722656 324.76611328 C168.93706289 321.84601863 163.71861321 318.92286434 158.5 316 C156.41667499 314.83331846 154.33334166 313.6666518 152.25 312.5 C148.08333333 310.16666667 143.91666667 307.83333333 139.75 305.5 C138.71858887 304.92241943 137.68717773 304.34483887 136.62451172 303.74975586 C134.54277268 302.58396248 132.46106691 301.41810968 130.37939453 300.25219727 C125.14694077 297.3216794 119.91389914 294.39222084 114.6796875 291.46484375 C103.65829479 285.2994112 92.64954681 279.1126603 81.65917969 272.89208984 C74.65755485 268.93136912 67.64435729 264.99170132 60.625 261.0625 C59.59616699 260.4862085 58.56733398 259.90991699 57.50732422 259.31616211 C52.09322384 256.28502548 46.67461309 253.26228515 41.25 250.25 C40.14060059 249.6324585 39.03120117 249.01491699 37.88818359 248.37866211 C35.78848076 247.21004851 33.68735457 246.04398674 31.58447266 244.88110352 C4.3506296 229.70692161 4.3506296 229.70692161 0.46228033 216.12123609 C-0.30815413 212.58599293 -0.13303371 208.99664864 -0.12025452 205.39471436 C-0.12110894 204.51741645 -0.12196337 203.64011855 -0.12284368 202.73623586 C-0.12449317 199.79125898 -0.11898576 196.84633883 -0.11352539 193.90136719 C-0.11324338 191.79242962 -0.11340153 189.68349195 -0.1139679 187.57455444 C-0.11425532 181.84356055 -0.10836738 176.11258751 -0.10139394 170.38159847 C-0.09515134 164.39447573 -0.09455588 158.40735254 -0.09336853 152.42022705 C-0.0902579 141.08016291 -0.0820481 129.74010839 -0.07201904 118.40004849 C-0.06084961 105.49089186 -0.05534536 92.58173478 -0.05032361 79.67257452 C-0.03986528 53.11504312 -0.02152311 26.5575249 0 0 Z " fill="#000000" transform="translate(1256,1183)"/>
</svg>
