<?xml version="1.0" encoding="UTF-8"?>
<svg version="1.1" xmlns="http://www.w3.org/2000/svg" width="204" height="192">
<path d="M0 0 C67.32 0 134.64 0 204 0 C204 63.36 204 126.72 204 192 C136.68 192 69.36 192 0 192 C0 128.64 0 65.28 0 0 Z " fill="#010101" transform="translate(0,0)"/>
<path d="M0 0 C2.421875 2.0078125 2.421875 2.0078125 5 5 C6.3070473 6.25856226 7.6257893 7.50504096 8.953125 8.7421875 C10.38571805 10.11947825 11.81800316 11.49708937 13.25 12.875 C13.9821875 13.55691406 14.714375 14.23882812 15.46875 14.94140625 C18.86957241 18.24776137 20.78132273 20.19464751 22.046875 24.85546875 C22 28 22 28 21 30.4375 C19 32 19 32 15.75 32.6875 C11.66640945 31.93884173 10.9937034 31.34500898 8.265625 28.45703125 C7.64977539 27.81354736 7.03392578 27.17006348 6.39941406 26.50708008 C5.93760742 26.00974365 5.47580078 25.51240723 5 25 C4.99635437 25.84302673 4.99270874 26.68605347 4.98895264 27.55462646 C4.95108216 35.50033405 4.89424051 43.44563079 4.81609726 51.39104843 C4.7765918 55.47588455 4.74441863 59.56050411 4.72900391 63.64550781 C4.71385714 67.58799676 4.67944794 71.52989049 4.63169098 75.47211456 C4.61685653 76.97594275 4.6089578 78.4798559 4.60811615 79.98375702 C4.60575073 82.0910534 4.57871062 84.19669909 4.54589844 86.30371094 C4.53257477 88.10240631 4.53257477 88.10240631 4.51898193 89.93743896 C3.89626864 93.6121285 2.94038317 94.7766543 0 97 C-3.25 97.9375 -3.25 97.9375 -7 97 C-9.66303881 94.35528485 -11.5953355 91.27041021 -13.6171875 88.12158203 C-15.98423179 84.48994099 -18.45893963 80.93168506 -20.91210938 77.35791016 C-23.95735985 72.91608901 -26.97927394 68.45852087 -30 64 C-30.01458252 64.89307861 -30.02916504 65.78615723 -30.04418945 66.70629883 C-30.10527077 70.02217278 -30.17942478 73.33721899 -30.26245117 76.65258789 C-30.29569001 78.08704628 -30.32372535 79.52163513 -30.34643555 80.95629883 C-30.38000271 83.01960807 -30.43231413 85.08172303 -30.48828125 87.14453125 C-30.51446533 88.38565674 -30.54064941 89.62678223 -30.56762695 90.90551758 C-31 94 -31 94 -32.31323242 95.9050293 C-35.1747605 97.76259963 -37.70629828 97.35289661 -41 97 C-42.69448853 95.8046875 -42.69448853 95.8046875 -44 94 C-44.38095093 91.609375 -44.38095093 91.609375 -44.38818359 88.75 C-44.39764008 87.67878906 -44.40709656 86.60757813 -44.4168396 85.50390625 C-44.41076691 84.34761719 -44.40469421 83.19132812 -44.3984375 82 C-44.40130768 80.81277344 -44.40417786 79.62554687 -44.40713501 78.40234375 C-44.40917777 75.89062015 -44.40363322 73.37888072 -44.39111328 70.8671875 C-44.3750636 67.01526428 -44.39095588 63.16439045 -44.41015625 59.3125 C-44.40817386 56.87499768 -44.40433027 54.43749601 -44.3984375 52 C-44.40451019 50.84371094 -44.41058289 49.68742187 -44.4168396 48.49609375 C-44.40738312 47.42488281 -44.39792664 46.35367188 -44.38818359 45.25 C-44.38579681 44.30640625 -44.38341003 43.3628125 -44.38095093 42.390625 C-44 40 -44 40 -42.68276978 38.21484375 C-41 37 -41 37 -37.6875 36.3125 C-33.58159634 37.07800746 -33.38595799 37.30653362 -31.1484375 40.5078125 C-30.63273193 41.23363525 -30.11702637 41.95945801 -29.58569336 42.70727539 C-28.80077515 43.84217407 -28.80077515 43.84217407 -28 45 C-26.98855319 46.41816274 -25.97683727 47.83613359 -24.96484375 49.25390625 C-23.95450305 50.68924188 -22.94539071 52.12544293 -21.9375 53.5625 C-20.92597106 55.00143553 -19.91425433 56.44023907 -18.90234375 57.87890625 C-18.46398193 58.5035376 -18.02562012 59.12816895 -17.57397461 59.77172852 C-15.39496093 62.85655214 -13.19522189 65.92668936 -11 69 C-11 54.15 -11 39.3 -11 24 C-13.64 26.64 -16.28 29.28 -19 32 C-22.74510037 32.67534597 -24.61175268 32.76129692 -27.9375 30.9375 C-29.62454578 27.86112241 -29.32637694 25.45334437 -29 22 C-27.09155273 19.18579102 -27.09155273 19.18579102 -24.43359375 16.50390625 C-23.96188248 16.02549789 -23.4901712 15.54708954 -23.00416565 15.05418396 C-22.00639898 14.0516733 -20.99981444 13.05787042 -19.98510742 12.07250977 C-18.44118911 10.56609948 -16.9382233 9.0259453 -15.43554688 7.47851562 C-14.45796555 6.50556031 -13.47821478 5.53477889 -12.49609375 4.56640625 C-11.61107178 3.68927979 -10.7260498 2.81215332 -9.81420898 1.90844727 C-6.27439613 -0.49206606 -4.19641072 -0.52126055 0 0 Z " fill="#F6F6F6" transform="translate(103,24)"/>
<path d="M0 0 C1.07822021 0.00652588 2.15644043 0.01305176 3.26733398 0.01977539 C13.55560112 0.32793683 21.27632238 2.57613572 28.9140625 9.875 C34.70620567 16.73976228 37.31332892 23.77400819 37.0390625 32.75 C35.62102522 42.81003803 30.53964433 50.81852468 22.6875 57 C15.4381634 60.99453241 8.56326594 61.0526922 0.4375 61.0625 C-0.64208984 61.08699219 -1.72167969 61.11148438 -2.83398438 61.13671875 C-3.87232422 61.14058594 -4.91066406 61.14445312 -5.98046875 61.1484375 C-6.92043701 61.15665527 -7.86040527 61.16487305 -8.82885742 61.17333984 C-12.18888403 60.53219947 -13.22901699 59.31369528 -15.375 56.6875 C-15.88293457 54.25927734 -15.88293457 54.25927734 -15.89257812 51.5234375 C-15.90518677 50.49557129 -15.91779541 49.46770508 -15.93078613 48.40869141 C-15.92268921 47.30444824 -15.91459229 46.20020508 -15.90625 45.0625 C-15.9100769 43.92345215 -15.91390381 42.7844043 -15.91784668 41.61083984 C-15.92056774 39.20344153 -15.9131931 36.79601374 -15.89648438 34.38867188 C-15.87507925 30.70115318 -15.89628132 27.01558301 -15.921875 23.328125 C-15.91923176 20.98957903 -15.91410687 18.65103427 -15.90625 16.3125 C-15.91434692 15.20825684 -15.92244385 14.10401367 -15.93078613 12.96630859 C-15.91817749 11.93844238 -15.90556885 10.91057617 -15.89257812 9.8515625 C-15.88939575 8.94873535 -15.88621338 8.0459082 -15.88293457 7.11572266 C-14.18945727 -0.98008373 -6.5999099 -0.04482882 0 0 Z " fill="#F4F4F4" transform="translate(127.375,60.3125)"/>
<path d="M0 0 C3.29680673 0.49101377 3.99376765 0.82668399 5.9375 3.4375 C6.31845093 5.828125 6.31845093 5.828125 6.32568359 8.6875 C6.33514008 9.75871094 6.34459656 10.82992187 6.3543396 11.93359375 C6.34826691 13.08988281 6.34219421 14.24617188 6.3359375 15.4375 C6.34024277 17.21833984 6.34024277 17.21833984 6.34463501 19.03515625 C6.34667777 21.54687985 6.34113322 24.05861928 6.32861328 26.5703125 C6.3125636 30.42223572 6.32845588 34.27310955 6.34765625 38.125 C6.34567386 40.56250232 6.34183027 43.00000399 6.3359375 45.4375 C6.34504654 47.17193359 6.34504654 47.17193359 6.3543396 48.94140625 C6.34488312 50.01261719 6.33542664 51.08382812 6.32568359 52.1875 C6.32329681 53.13109375 6.32091003 54.0746875 6.31845093 55.046875 C5.9375 57.4375 5.9375 57.4375 4.63198853 59.23828125 C1.76437381 61.26774164 -0.6864757 60.85950304 -4.0625 60.4375 C-6.96680978 57.51416572 -7.4423363 55.31995207 -7.46655273 51.2734375 C-7.47923691 50.24557129 -7.49192108 49.21770508 -7.50498962 48.15869141 C-7.50205399 47.05444824 -7.49911835 45.95020508 -7.49609375 44.8125 C-7.50395653 43.10392822 -7.50395653 43.10392822 -7.51197815 41.36083984 C-7.5183994 38.95345881 -7.51706006 36.54604641 -7.50854492 34.13867188 C-7.50003176 30.45125628 -7.52880256 26.76538766 -7.56054688 23.078125 C-7.56215885 20.7395838 -7.56158143 18.40103985 -7.55859375 16.0625 C-7.56982773 14.95825684 -7.58106171 13.85401367 -7.59263611 12.71630859 C-7.57856468 11.17450928 -7.57856468 11.17450928 -7.56420898 9.6015625 C-7.56404282 8.69873535 -7.56387665 7.7959082 -7.56370544 6.86572266 C-6.66427464 2.50819164 -4.29990293 0.61427185 0 0 Z " fill="#F9F9F9" transform="translate(43.0625,60.5625)"/>
<path d="M0 0 C14.44155844 0 14.44155844 0 21.671875 6.50390625 C24.86163724 10.0970796 24.28439608 16.28471543 24.21484375 20.890625 C23.77809685 25.17868544 21.6938043 27.36096972 18.625 30.1875 C12.01514099 34.75145027 8.62025389 34 0 34 C0 22.78 0 11.56 0 0 Z " fill="#020202" transform="translate(126,74)"/>
<path d="M0 0 C3.6578218 2.03993908 5.66946174 3.50419262 8 7 C8.49557946 10.79944252 8.32625657 12.48731111 6.25 15.75 C2.9533674 19.0466326 1.22244197 19.86664269 -3.4375 20.375 C-7.58155564 19.93878362 -9.09130272 18.90869728 -12 16 C-13.60847182 12.78305636 -13.61309149 9.47862778 -13 6 C-9.02999967 1.08973643 -6.29462787 -0.60525268 0 0 Z " fill="#E3E3E3" transform="translate(86,131)"/>
<path d="M0 0 C0.99 -0.66 1.98 -1.32 3 -2 C6.3052763 -1.86228015 8.26531053 -1.71585128 10.67578125 0.6328125 C12.45001811 3.80445716 12.29577113 6.1409622 12.1875 9.75 C12.16042969 10.92046875 12.13335937 12.0909375 12.10546875 13.296875 C12.07066406 14.18890625 12.03585938 15.0809375 12 16 C10.35 16.33 8.7 16.66 7 17 C6.505 10.565 6.505 10.565 6 4 C4.35 4 2.7 4 1 4 C0.67 7.96 0.34 11.92 0 16 C-1.65 16.33 -3.3 16.66 -5 17 C-5.33 12.71 -5.66 8.42 -6 4 C-7.65 4 -9.3 4 -11 4 C-11.33 8.29 -11.66 12.58 -12 17 C-13.65 17 -15.3 17 -17 17 C-17 11.39 -17 5.78 -17 0 C-15.68 -0.33 -14.36 -0.66 -13 -1 C-12.360625 -1.185625 -11.72125 -1.37125 -11.0625 -1.5625 C-6.77658326 -2.47163385 -3.79121331 -2.24664493 0 0 Z " fill="#ECECEC" transform="translate(57,133)"/>
<path d="M0 0 C3.80971571 2.44396857 5.66971058 3.85499667 6.9375 8.25 C6.958125 9.1575 6.97875 10.065 7 11 C6 12 6 12 3.05859375 12.09765625 C1.26615234 12.08025391 1.26615234 12.08025391 -0.5625 12.0625 C-2.35880859 12.04896484 -2.35880859 12.04896484 -4.19140625 12.03515625 C-5.11824219 12.02355469 -6.04507813 12.01195312 -7 12 C-6.01 13.485 -6.01 13.485 -5 15 C-1.79899154 15.33694826 0.92859432 14.91004613 4 14 C4.33 15.32 4.66 16.64 5 18 C1.34148709 20.34144827 -1.72830036 20.44965259 -6 20 C-8.75329021 18.20437595 -10.52627461 16.94745078 -12 14 C-12.57950681 10.26621561 -13.03003198 6.55395828 -10.87109375 3.296875 C-7.40704811 0.14938705 -4.5430607 -0.94647098 0 0 Z " fill="#EAEAEA" transform="translate(131,131)"/>
<path d="M0 0 C2.35546875 0.18359375 2.35546875 0.18359375 5 1 C6.36328125 3.28515625 6.36328125 3.28515625 7.3125 6.0625 C7.63863281 6.98160156 7.96476563 7.90070313 8.30078125 8.84765625 C8.53152344 9.55792969 8.76226562 10.26820313 9 11 C9.24234375 10.28972656 9.4846875 9.57945312 9.734375 8.84765625 C10.06953125 7.92855469 10.4046875 7.00945312 10.75 6.0625 C11.07484375 5.14597656 11.3996875 4.22945312 11.734375 3.28515625 C13 1 13 1 15.140625 0.18359375 C16.06101563 0.09271484 16.06101563 0.09271484 17 0 C18.55420014 3.93794268 17.36285892 6.38207355 15.8125 10.1875 C15.35101563 11.32960937 14.88953125 12.47171875 14.4140625 13.6484375 C12.66570944 17.79232402 10.88816595 21.91776412 9 26 C8.34 26 7.68 26 7 26 C7 26.66 7 27.32 7 28 C5.02 28 3.04 28 1 28 C1 26.35 1 24.7 1 23 C2.32 23 3.64 23 5 23 C5.67618944 16.91429508 3.87509912 13.0411644 1.09375 7.6484375 C-0.05457004 4.86786254 -0.21475347 2.97433562 0 0 Z " fill="#E3E3E3" transform="translate(140,132)"/>
<path d="M0 0 C2 2 2 2 2.1953125 5.6953125 C2.182009 7.17200108 2.15814835 8.64862358 2.125 10.125 C2.11597656 10.87910156 2.10695313 11.63320312 2.09765625 12.41015625 C2.0740687 14.27357254 2.03819719 16.13682593 2 18 C0.68 18 -0.64 18 -2 18 C-2.33 13.71 -2.66 9.42 -3 5 C-5.31 5 -7.62 5 -10 5 C-10 9.29 -10 13.58 -10 18 C-11.65 17.67 -13.3 17.34 -15 17 C-15 11.72 -15 6.44 -15 1 C-13.35 0.67 -11.7 0.34 -10 0 C-6.25976024 -1.24674659 -3.83399823 -0.76679965 0 0 Z " fill="#E2E2E2" transform="translate(112,132)"/>
<path d="M0 0 C3 0.25 3 0.25 5 2.25 C5.25 5.25 5.25 5.25 5 8.25 C3 10.25 3 10.25 0 10.5 C-3 10.25 -3 10.25 -5 8.25 C-5.25 5.25 -5.25 5.25 -5 2.25 C-3 0.25 -3 0.25 0 0 Z " fill="#040404" transform="translate(83,135.75)"/>
<path d="M0 0 C3 -0.3125 3 -0.3125 6 0 C8 2 8 2 8.1953125 5.6953125 C8.182009 7.17200108 8.15814835 8.64862358 8.125 10.125 C8.11597656 10.87910156 8.10695313 11.63320312 8.09765625 12.41015625 C8.0740687 14.27357254 8.03819719 16.13682593 8 18 C6.68 18 5.36 18 4 18 C3.67 13.71 3.34 9.42 3 5 C0.525 4.01 0.525 4.01 -2 3 C-1.34 2.01 -0.68 1.02 0 0 Z " fill="#F9F9F9" transform="translate(106,132)"/>
<path d="M0 0 C2.97 0 5.94 0 9 0 C9.33 0.66 9.66 1.32 10 2 C6.77208445 4.1519437 5.71599191 4.20086443 2 4 C1.34 2.68 0.68 1.36 0 0 Z " fill="#171717" transform="translate(124,143)"/>
<path d="M0 0 C1.98 0 3.96 0 6 0 C6 1.32 6 2.64 6 4 C3.36 4 0.72 4 -2 4 C-1.34 2.68 -0.68 1.36 0 0 Z " fill="#1E1E1E" transform="translate(126,135)"/>
</svg>
