<?xml version="1.0" encoding="utf-8"?>
<!-- Generator: Adobe Illustrator 27.7.0, SVG Export Plug-In . SVG Version: 6.00 Build 0)  -->
<svg version="1.1" id="Layer_1" xmlns="http://www.w3.org/2000/svg" xmlns:xlink="http://www.w3.org/1999/xlink" x="0px" y="0px"
	 viewBox="0 0 1161.5 579.5" style="enable-background:new 0 0 1161.5 579.5;" xml:space="preserve">
<style type="text/css">
	.st0{fill:#3DAE2B;}
	.st1{fill:#FFFFFF;}
</style>
<g>
	<g>
		<path class="st0" d="M502.7,100.7H156.2c-17.4,0-34.6,14.2-38.3,31.6l-68,323.9c-3.7,17.4,7.6,31.6,25.1,31.6h346.5
			c17.4,0,34.6-14.2,38.3-31.6l68-323.9C531.3,114.9,520.1,100.7,502.7,100.7z"/>
		<path class="st1" d="M379.2,241.8l6-25.7H280.7l6.1-26l-79.2,52l54.7,52l6.1-26.2h121.3c19.5,0,31.8,16,27.1,35.5l-20.1,85.8
			c-4.6,19.5-24.3,35.5-43.8,35.5h-173l-6,25.7l-54.4-51.6l78.7-51.9l-6,25.5h104.4l-6.1,25.8l79-51.5L315,294l-6.3,26.5H188.7
			c-19.5,0-31.3-17.4-26.8-37l19.8-84.3c4.6-19.5,24.3-35.5,43.8-35.5h172l6-25.7l54.6,51.9L379.2,241.8z"/>
	</g>
	<g>
		<g>
			<path d="M667.9,281.8l27.4-127.4l-78,127.2h-9.2l-21.5-126.5l-27,126.6h-19.4l34-160h24.6l20.7,122l75-122h26.5l-34,160H667.9
				L667.9,281.8z"/>
			<path d="M714,232.6c-0.7-35.6,26.8-68.5,65.2-68.5c34.2,0,55,20.4,55.6,50.3c0.7,35.9-26.8,68.8-65.2,68.8
				C735.5,283.1,714.4,262.7,714,232.6z M815.3,215c-0.4-21.3-13.7-35.2-36.2-35.2c-27,0-48,25.1-47.4,51.8
				c0.4,21.3,15.8,35.8,38.3,35.8C796.9,267.3,815.7,241.8,815.3,215z"/>
			<path d="M1055.2,213.2c0-29.2-18.9-50.1-49.4-50.1c-36.4,0-64.6,31.6-64.6,69.6c0,30.4,21.2,50.9,56.1,50.9
				c14.8,0,30-5.7,40.4-13.6l-6.1-12.5c-9.2,7.6-21.9,11.3-33.1,11.3c-24.6,0-37.7-14.9-38.8-31.8c0-0.1,0-0.4,0-0.6
				c-0.6-11.2,1.9-21,3.1-25.1c0-0.1,0-0.1,0-0.3c0.1-0.6,0.3-1,0.4-1.3c5.4-17.2,21.9-31.9,41-31.9c22.8,0,34.9,14.5,34.9,33.7
				c0,1.2,0.1,2.2,0.1,2.2h-64.3l-3,15.4h81.4C1054,225.8,1055.2,218.7,1055.2,213.2z"/>
			<path d="M861.2,281.8l-19.8-115.9h19.4l15.4,90.8l56.2-90.8h22.4L883,281.8L861.2,281.8L861.2,281.8z"/>
		</g>
		<g>
			<path d="M619.6,465.1l16.3-76.1c0.4-2.4,1.2-5.2,1.2-8.2c0-13.3-10.1-18.3-24.6-18.3c-14.2,0-29.8,12.4-39.2,21.8l-17.3,80.8
				h-18.5l24.8-115.9h18.5l-3.6,16.9c10.6-9.8,25.8-19.7,43.3-19.7c21.5,0,36.7,10.1,36.7,28.5c0,2.4-0.9,6.7-1.5,9.8l-17.2,80.4
				L619.6,465.1L619.6,465.1z"/>
			<path d="M501.2,464.8l24.8-115.9h19.4l-24.6,115.9L501.2,464.8L501.2,464.8z"/>
			<polygon points="548.1,335.3 552.5,315.2 533.1,315.2 528.8,335.3 			"/>
			<g>
				<path d="M1009.7,416.7c0-35.9,27.1-65.8,61.6-65.8c20.1,0,33.6,7.9,41,20.3l-13,9.7c-5.7-10-16.3-14.9-27.6-14.9
					c-27.4,0-44.3,24.2-44.3,50.4c0,22.4,14.9,34,34.2,34c11.5,0,21.3-5.4,27.9-13.1l9.5,11.5c-9.2,9.5-21.5,16.7-38.9,16.7
					C1030.6,465.5,1009.7,447.3,1009.7,416.7z"/>
				<path d="M966.6,465.8l16.3-76.1c0.4-2.4,1.2-5.2,1.2-8.2c0-13.3-8.5-18.3-22.8-18.3c-14.2,0-31.6,12.4-41,21.8l-17.4,80.8h-18.9
					l24.6-115.9h19.2l-3.6,16.9c10.6-9.8,27.6-19.7,45-19.7c21.5,0,35,10.1,35,28.5c0,2.4-0.7,7.2-1.5,9.8l-17.3,80.4L966.6,465.8
					L966.6,465.8z"/>
				<path d="M656,439.4l13.3-14c11.3,15.2,30.6,25.1,52.9,25.1c24.8,0,34.6-16.3,34.3-29.5c-0.7-31.2-79.5-25.7-80.5-70.7
					c-0.6-24.6,22.2-46.4,55.3-46.4c24.3,0,46.2,9.7,57.7,25.2l-13,13.9c-11-14.5-29.4-21.5-46.7-21.5c-18.6,0-32.5,12.4-32.2,26
					c0.7,28.8,79.3,24.8,80.5,70.5c0.6,25.2-19.2,50.3-56.7,50.3C692.4,468,667.3,455.8,656,439.4z"/>
				<path d="M876.4,349.9l-55,89.3l-15.2-89.3h-20.3l19.7,114.7l-11.9,19.5c-5.5,8.9-9.8,12.4-17.4,12.4h-12.1l-3.9,17.7H775
					c17.9,0,26.2-9.2,36.7-25.1l86.1-139.3H876.4z"/>
			</g>
		</g>
	</g>
</g>
</svg>
