<?xml version="1.0" encoding="UTF-8"?>
<svg version="1.1" xmlns="http://www.w3.org/2000/svg" width="574" height="120">
<path d="M0 0 C16.5 0 33 0 50 0 C54.49218665 15.06308617 54.49218665 15.06308617 56.3984375 21.48828125 C57.69901102 25.87187256 59.00076376 30.25508914 60.30957031 34.63623047 C61.36472089 38.16854646 62.41455381 41.70240288 63.46072388 45.23738861 C63.86071933 46.58554003 64.26262521 47.93312615 64.66647339 49.28012848 C65.2319273 51.16734007 65.78995578 53.05677169 66.34765625 54.94628906 C66.66742432 56.02106506 66.98719238 57.09584106 67.31665039 58.20318604 C68 61 68 61 68 65 C68.66 65 69.32 65 70 65 C70.24548584 63.77531006 70.49097168 62.55062012 70.74389648 61.28881836 C72.10536823 55.17846291 74.10034802 49.30598103 76.09765625 43.37890625 C76.49198349 42.1977977 76.88631073 41.01668915 77.29258728 39.79978943 C78.33281821 36.6874913 79.37708586 33.57658636 80.42315674 30.46624756 C81.27875619 27.91856234 82.12983089 25.36937614 82.98076725 22.82013035 C83.99699731 19.77658594 85.01604073 16.73398549 86.03515625 13.69140625 C86.41744888 12.54877823 86.79974152 11.40615021 87.19361877 10.22889709 C87.5474614 9.17697678 87.90130402 8.12505646 88.26586914 7.04125977 C88.73314171 5.64968407 88.73314171 5.64968407 89.20985413 4.22999573 C90 2 90 2 91 0 C107.17 0 123.34 0 140 0 C140 8.91 140 17.82 140 27 C136.04 27 132.08 27 128 27 C128 48.12 128 69.24 128 91 C131.96 91 135.92 91 140 91 C140 99.91 140 108.82 140 118 C124.49 118 108.98 118 93 118 C93 102.16 93 86.32 93 70 C92.34 70 91.68 70 91 70 C90.79503906 71.25683594 90.59007813 72.51367188 90.37890625 73.80859375 C88.82766436 81.55933627 86.24244778 89.01003937 83.77709961 96.50756836 C82.9299185 99.08557079 82.09228158 101.66653603 81.25585938 104.24804688 C80.72190516 105.88559643 80.18741966 107.52297287 79.65234375 109.16015625 C79.40129379 109.93295425 79.15024384 110.70575226 78.8915863 111.50196838 C77.11594604 116.88405396 77.11594604 116.88405396 76 118 C73.81360547 118.07258946 71.62499611 118.08373783 69.4375 118.0625 C67.64119141 118.04896484 67.64119141 118.04896484 65.80859375 118.03515625 C64.41833984 118.01775391 64.41833984 118.01775391 63 118 C61.33993203 113.09478179 59.68616794 108.18749668 58.0378418 103.27832031 C57.47798428 101.61369659 56.91650267 99.94961807 56.35327148 98.28613281 C53.18860954 88.93561166 50.15317396 79.64794474 48 70 C47.34 70 46.68 70 46 70 C46 85.84 46 101.68 46 118 C30.82 118 15.64 118 0 118 C0 109.09 0 100.18 0 91 C3.63 91 7.26 91 11 91 C11 69.88 11 48.76 11 27 C7.37 27 3.74 27 0 27 C0 18.09 0 9.18 0 0 Z " fill="#EB1B2E" transform="translate(0,2)"/>
<path d="M0 0 C20.46 0 40.92 0 62 0 C62 8.91 62 17.82 62 27 C58.04 27 54.08 27 50 27 C50 48.12 50 69.24 50 91 C58.58 91 67.16 91 76 91 C76 84.4 76 77.8 76 71 C84.58 71 93.16 71 102 71 C102 86.51 102 102.02 102 118 C68.34 118 34.68 118 0 118 C0 109.09 0 100.18 0 91 C3.96 91 7.92 91 12 91 C12 69.88 12 48.76 12 27 C8.04 27 4.08 27 0 27 C0 18.09 0 9.18 0 0 Z " fill="#EB1C2F" transform="translate(258,2)"/>
<path d="M0 0 C14.52 0 29.04 0 44 0 C42.12485237 6.2504921 40.24997408 12.24138057 37.86328125 18.2734375 C37.28044738 19.77207648 36.69776943 21.2707761 36.11523438 22.76953125 C35.20905286 25.08771595 34.30069297 27.40500939 33.3894043 29.72119141 C32.49989448 31.98639095 31.61863176 34.25466567 30.73828125 36.5234375 C30.46333328 37.21513031 30.18838531 37.90682312 29.90510559 38.61947632 C28.5920177 42.01569444 28 44.29835855 28 48 C38.89 48.495 38.89 48.495 50 49 C50 71.77 50 94.54 50 118 C33.5 118 17 118 0 118 C0 109.09 0 100.18 0 91 C3.96 91 7.92 91 12 91 C12 69.88 12 48.76 12 27 C8.04 27 4.08 27 0 27 C0 18.09 0 9.18 0 0 Z " fill="#EB1B2F" transform="translate(153,2)"/>
<path d="M0 0 C12.73246261 -0.44286826 24.9554801 -0.37557263 35.23046875 8.3203125 C36.10638672 9.15175781 36.10638672 9.15175781 37 10 C37.61488281 10.57492187 38.22976562 11.14984375 38.86328125 11.7421875 C46.87756612 20.01389051 50.38734235 31.06040473 50.21484375 42.4453125 C49.22903216 54.16750853 44.82809506 64.09190357 36.32421875 72.20703125 C29.36372104 77.57655805 21.48668659 80.14207969 12.8125 80.0625 C10.90404297 80.04896484 10.90404297 80.04896484 8.95703125 80.03515625 C7.98121094 80.02355469 7.00539062 80.01195313 6 80 C8.82151381 71.77356099 11.74988408 63.59807554 14.8828125 55.484375 C15.13336899 54.83337326 15.38392548 54.18237152 15.64207458 53.51164246 C16.91195152 50.21340625 18.18986821 46.9186432 19.47973633 43.62817383 C19.94919678 42.41154053 20.41865723 41.19490723 20.90234375 39.94140625 C21.33023193 38.84513916 21.75812012 37.74887207 22.19897461 36.61938477 C23.31314777 34.05193882 23.31314777 34.05193882 22 32 C14.74 31.67 7.48 31.34 0 31 C0 20.77 0 10.54 0 0 Z " fill="#EB192D" transform="translate(202,2)"/>
<path d="M0 0 C2.64 0 5.28 0 8 0 C10.09375 2.1875 10.09375 2.1875 11.5 5 C11.9846875 5.928125 12.469375 6.85625 12.96875 7.8125 C13.3090625 8.534375 13.649375 9.25625 14 10 C14.4125 9.278125 14.825 8.55625 15.25 7.8125 C15.8275 6.884375 16.405 5.95625 17 5 C17.556875 4.071875 18.11375 3.14375 18.6875 2.1875 C21 0 21 0 29 0 C29 9.57 29 19.14 29 29 C26.69 29 24.38 29 22 29 C21.67 24.05 21.34 19.1 21 14 C19.576875 15.98 19.576875 15.98 18.125 18 C16.5078125 20.25 16.5078125 20.25 15 22 C14.34 22 13.68 22 13 22 C11.12422691 19.45349592 9.61674188 16.72293369 8 14 C7.67 18.95 7.34 23.9 7 29 C4.69 29 2.38 29 0 29 C0 19.43 0 9.86 0 0 Z " fill="#EB192D" transform="translate(474,46)"/>
<path d="M0 0 C8 0 8 0 10.09375 1.96875 C10.5578125 2.8040625 11.021875 3.639375 11.5 4.5 C11.9846875 5.3353125 12.469375 6.170625 12.96875 7.03125 C13.47921875 8.00578125 13.47921875 8.00578125 14 9 C16.3429247 6.81865631 17.91286514 5.1916967 19.25 2.25 C20.11625 1.13625 20.11625 1.13625 21 0 C23.64 0 26.28 0 29 0 C29 9.24 29 18.48 29 28 C26.69 28 24.38 28 22 28 C21.67 23.38 21.34 18.76 21 14 C19.35 16.64 17.7 19.28 16 22 C11.01222852 19.50611426 10.48741151 17.79715076 8 13 C7.67 17.95 7.34 22.9 7 28 C4.69 28 2.38 28 0 28 C0 18.76 0 9.52 0 0 Z " fill="#EB1B2F" transform="translate(392,2)"/>
<path d="M0 0 C3.0525 -0.061875 6.105 -0.12375 9.25 -0.1875 C10.68327637 -0.22846802 10.68327637 -0.22846802 12.14550781 -0.27026367 C15.73483235 -0.30557971 18.32396051 -0.32985008 21.5859375 1.26171875 C23.28706241 3.35288059 23.48623645 4.33032524 23.375 7 C23.35566406 8.0209375 23.35566406 8.0209375 23.3359375 9.0625 C23 11 23 11 21 14 C21.99 14.33 22.98 14.66 24 15 C25.44430855 17.88861709 25.37688506 19.79647701 25 23 C23.12109375 25.6796875 23.12109375 25.6796875 20 28 C16.53504011 28.60647899 13.19128169 28.47221252 9.6875 28.3125 C6.490625 28.209375 3.29375 28.10625 0 28 C0 18.76 0 9.52 0 0 Z M7 6 C7 7.65 7 9.3 7 11 C11.65052872 11.26932521 11.65052872 11.26932521 16 10 C15.67 8.68 15.34 7.36 15 6 C12.36 6 9.72 6 7 6 Z M7 17 C7 18.65 7 20.3 7 22 C8.45823212 22.0270043 9.91660675 22.04639787 11.375 22.0625 C12.59316406 22.07990234 12.59316406 22.07990234 13.8359375 22.09765625 C16.04937142 22.14466334 16.04937142 22.14466334 18 21 C17.67 19.68 17.34 18.36 17 17 C13.7 17 10.4 17 7 17 Z " fill="#EB1A2E" transform="translate(460,2)"/>
<path d="M0 0 C4.33125 -0.061875 4.33125 -0.061875 8.75 -0.125 C10.10496582 -0.15231201 10.10496582 -0.15231201 11.48730469 -0.18017578 C12.20821289 -0.1851709 12.92912109 -0.19016602 13.671875 -0.1953125 C14.4050293 -0.20578613 15.13818359 -0.21625977 15.89355469 -0.22705078 C18.36885304 0.03975815 19.90029251 0.6693007 22 2 C24.68186667 6.0228 24.57140016 9.27528823 24 14 C22.625 16.5625 22.625 16.5625 21 18 C20.34 18 19.68 18 19 18 C19.433125 18.62648438 19.86625 19.25296875 20.3125 19.8984375 C20.869375 20.71570313 21.42625 21.53296875 22 22.375 C22.556875 23.18710938 23.11375 23.99921875 23.6875 24.8359375 C25 27 25 27 25 29 C19.83405051 29.61290926 19.83405051 29.61290926 17 29 C14.76385711 26.97631724 13.28125697 24.72267106 12 22 C12 21.34 12 20.68 12 20 C10.35 20 8.7 20 7 20 C7 22.97 7 25.94 7 29 C4.69 29 2.38 29 0 29 C0 19.43 0 9.86 0 0 Z M7 6 C7 8.31 7 10.62 7 13 C9.97 13 12.94 13 16 13 C16.33 11.35 16.66 9.7 17 8 C13.5980513 5.90649311 10.94727588 5.82057837 7 6 Z " fill="#EB1A2D" transform="translate(548,46)"/>
<path d="M0 0 C4.49322252 2.45855572 6.6968496 4.96554879 8.3125 9.8125 C8.74917448 15.05259378 8.60612374 18.79284072 5.70703125 23.26953125 C2.15787527 27.19646854 -2.17429513 28.62987183 -7.3125 29.25 C-13.03192971 28.50859245 -16.9800645 26.20649763 -20.6875 21.8125 C-22.41416189 16.63251432 -22.59722877 11.01500122 -20.5 5.9375 C-14.64946062 -0.92175306 -8.68814113 -2.79787596 0 0 Z M-12.5625 7.9375 C-14.86955087 10.63989783 -14.86955087 10.63989783 -15.3125 13.8125 C-14.46368008 17.8868356 -13.01024404 19.35655875 -9.6875 21.8125 C-6.64441709 22.56265195 -6.64441709 22.56265195 -3.6875 21.8125 C-1.03390738 19.87609458 0.0734947 18.43391377 1.25 15.375 C1.3318592 12.01877293 0.26713467 10.49107344 -1.6875 7.8125 C-3.55713998 5.54951563 -3.55713998 5.54951563 -6.5 5.375 C-9.84658945 5.57479265 -9.84658945 5.57479265 -12.5625 7.9375 Z " fill="#EC1B2F" transform="translate(447.6875,2.1875)"/>
<path d="M0 0 C2.866875 -0.0825 5.73375 -0.165 8.6875 -0.25 C9.58170654 -0.28641602 10.47591309 -0.32283203 11.3972168 -0.36035156 C15.44692845 -0.41666694 17.50103852 -0.31241573 21.01953125 1.890625 C23.5853781 4.62347964 23.95544281 5.52769377 24.3125 9.3125 C23.95409018 13.54173592 22.90381772 15.00543798 20 18 C21.25756667 21.48249231 22.7731892 24.06465849 25 27 C25 27.66 25 28.32 25 29 C19.89153482 29.70461589 19.89153482 29.70461589 17 29 C15.11056193 27.0891882 13.80197447 25.14917508 12.421875 22.84765625 C10.95787484 20.54964932 10.95787484 20.54964932 7 20 C7 22.97 7 25.94 7 29 C4.69 29 2.38 29 0 29 C0 19.43 0 9.86 0 0 Z M7 6 C7 8.31 7 10.62 7 13 C9.64 13 12.28 13 15 13 C16.10836423 11.11683841 16.10836423 11.11683841 17 9 C16.67 8.34 16.34 7.68 16 7 C13.87423218 6.53348793 13.87423218 6.53348793 11.4375 6.375 C10.61121094 6.30023438 9.78492188 6.22546875 8.93359375 6.1484375 C8.29550781 6.09945312 7.65742188 6.05046875 7 6 Z " fill="#EB1A2E" transform="translate(419,46)"/>
<path d="M0 0 C0.78375 0.495 1.5675 0.99 2.375 1.5 C1.5625 3.9375 1.5625 3.9375 0.375 6.5 C-2.625 7.5 -2.625 7.5 -5 6.5 C-8.11946679 5.3116317 -9.51013006 5.35241634 -12.625 6.5 C-14.65396212 8.03813421 -14.65396212 8.03813421 -15.625 10.5 C-15.55980059 14.21636626 -15.42390124 16.54746391 -13 19.4375 C-9.79462495 20.87148358 -7.09272635 20.70006114 -3.625 20.5 C-3.625 19.18 -3.625 17.86 -3.625 16.5 C-5.605 16.5 -7.585 16.5 -9.625 16.5 C-9.625 14.52 -9.625 12.54 -9.625 10.5 C-5.335 10.5 -1.045 10.5 3.375 10.5 C4.1005814 22.59302326 4.1005814 22.59302326 1.125 26.3125 C-5.48517709 28.40572275 -11.84141366 28.8185409 -18.1875 25.8125 C-22.28078501 21.92912704 -23.79731711 19.27082936 -24.0625 13.625 C-23.88518818 8.45212044 -22.80002825 5.59411538 -19.625 1.5 C-13.75264882 -2.83435444 -6.5475782 -2.7093427 0 0 Z " fill="#EB1B2E" transform="translate(495.625,91.5)"/>
<path d="M0 0 C7.26 0 14.52 0 22 0 C22 2.31 22 4.62 22 7 C17.05 7 12.1 7 7 7 C7 8.32 7 9.64 7 11 C11.29 11 15.58 11 20 11 C20 13.31 20 15.62 20 18 C15.71 18 11.42 18 7 18 C7 19.32 7 20.64 7 22 C7.99902344 21.98839844 8.99804688 21.97679688 10.02734375 21.96484375 C11.31769531 21.95582031 12.60804688 21.94679688 13.9375 21.9375 C15.22527344 21.92589844 16.51304687 21.91429688 17.83984375 21.90234375 C21 22 21 22 22 23 C22 24.98 22 26.96 22 29 C14.74 29 7.48 29 0 29 C0 19.43 0 9.86 0 0 Z " fill="#EB1F33" transform="translate(534,90)"/>
<path d="M0 0 C7.26 0 14.52 0 22 0 C22 2.31 22 4.62 22 7 C17.05 7 12.1 7 7 7 C7 8.32 7 9.64 7 11 C11.29 11 15.58 11 20 11 C20 13.31 20 15.62 20 18 C15.71 18 11.42 18 7 18 C7 19.32 7 20.64 7 22 C7.99902344 21.98839844 8.99804688 21.97679688 10.02734375 21.96484375 C11.31769531 21.95582031 12.60804688 21.94679688 13.9375 21.9375 C15.22527344 21.92589844 16.51304687 21.91429688 17.83984375 21.90234375 C21 22 21 22 22 23 C22 24.98 22 26.96 22 29 C14.74 29 7.48 29 0 29 C0 19.43 0 9.86 0 0 Z " fill="#EB1F33" transform="translate(417,90)"/>
<path d="M0 0 C7.26 0 14.52 0 22 0 C22 1.98 22 3.96 22 6 C17.38 6 12.76 6 8 6 C8 7.65 8 9.3 8 11 C12.29 11 16.58 11 21 11 C21 12.98 21 14.96 21 17 C16.71 17 12.42 17 8 17 C8 18.65 8 20.3 8 22 C12.95 22 17.9 22 23 22 C23 24.31 23 26.62 23 29 C19.35418313 29.02887512 15.70839537 29.04675585 12.0625 29.0625 C10.50112305 29.07506836 10.50112305 29.07506836 8.90820312 29.08789062 C7.91884766 29.09111328 6.92949219 29.09433594 5.91015625 29.09765625 C4.53549194 29.10551147 4.53549194 29.10551147 3.13305664 29.11352539 C1 29 1 29 0 28 C-0.08767112 25.92737924 -0.10695873 23.85179706 -0.09765625 21.77734375 C-0.09443359 20.51728516 -0.09121094 19.25722656 -0.08789062 17.95898438 C-0.07953403 16.61848891 -0.07106907 15.27799412 -0.0625 13.9375 C-0.0574866 12.59310058 -0.05292342 11.2486994 -0.04882812 9.90429688 C-0.03699497 6.60284567 -0.01905886 3.3014174 0 0 Z " fill="#ED1D2F" transform="translate(447,46)"/>
<path d="M0 0 C7.26 0 14.52 0 22 0 C22 1.98 22 3.96 22 6 C17.05 6 12.1 6 7 6 C7 7.65 7 9.3 7 11 C11.29 11 15.58 11 20 11 C20 12.98 20 14.96 20 17 C15.71 17 11.42 17 7 17 C7 18.65 7 20.3 7 22 C11.95 22 16.9 22 22 22 C22 24.31 22 26.62 22 29 C14.74 29 7.48 29 0 29 C0 19.43 0 9.86 0 0 Z " fill="#EB192D" transform="translate(522,46)"/>
<path d="M0 0 C7.26 0 14.52 0 22 0 C22 1.98 22 3.96 22 6 C17.05 6 12.1 6 7 6 C7 7.65 7 9.3 7 11 C11.29 11 15.58 11 20 11 C20 12.98 20 14.96 20 17 C15.71 17 11.42 17 7 17 C7 18.65 7 20.3 7 22 C11.95 22 16.9 22 22 22 C22 23.98 22 25.96 22 28 C14.74 28 7.48 28 0 28 C0 18.76 0 9.52 0 0 Z " fill="#EB192D" transform="translate(527,2)"/>
<path d="M0 0 C2.31 0 4.62 0 7 0 C7.33 6.6 7.66 13.2 8 20 C10.475 20.99 10.475 20.99 13 22 C16.24849977 20.27773504 16.24849977 20.27773504 17 17 C17.14403348 15.66636297 17.24590423 14.32781954 17.31640625 12.98828125 C17.35830078 12.23095703 17.40019531 11.47363281 17.44335938 10.69335938 C17.48267578 9.90767578 17.52199219 9.12199219 17.5625 8.3125 C17.60568359 7.51521484 17.64886719 6.71792969 17.69335938 5.89648438 C17.79927368 3.93118553 17.90012551 1.96561504 18 0 C20.31 0 22.62 0 25 0 C25.08149592 3.02138567 25.14073421 6.04053905 25.1875 9.0625 C25.21263672 9.91005859 25.23777344 10.75761719 25.26367188 11.63085938 C25.3376442 18.01713677 24.7806936 23.07578673 20.18359375 27.91015625 C15.75941655 30.11828762 10.79948072 29.60977009 6 29 C2.92634214 27.19196596 1.56980268 26.13960536 0 23 C-0.08449628 21.2595583 -0.10723024 19.51590278 -0.09765625 17.7734375 C-0.09443359 16.7421875 -0.09121094 15.7109375 -0.08789062 14.6484375 C-0.07951172 13.56820312 -0.07113281 12.48796875 -0.0625 11.375 C-0.05798828 10.28703125 -0.05347656 9.1990625 -0.04882812 8.078125 C-0.03701776 5.38536211 -0.02054778 2.69270812 0 0 Z " fill="#EB1B2E" transform="translate(504,90)"/>
<path d="M0 0 C1.134375 0.020625 2.26875 0.04125 3.4375 0.0625 C5.0109726 3.70743255 6.57734244 7.35532581 8.13720703 11.00610352 C8.66879273 12.24749721 9.20230845 13.4880663 9.73779297 14.7277832 C10.50735843 16.51034809 11.2694069 18.29615229 12.03125 20.08203125 C12.49208984 21.15557861 12.95292969 22.22912598 13.42773438 23.33520508 C14.4375 26.0625 14.4375 26.0625 14.4375 29.0625 C12.1275 29.0625 9.8175 29.0625 7.4375 29.0625 C6.7775 27.0825 6.1175 25.1025 5.4375 23.0625 C1.4775 23.0625 -2.4825 23.0625 -6.5625 23.0625 C-6.8925 24.7125 -7.2225 26.3625 -7.5625 28.0625 C-8.5625 29.0625 -8.5625 29.0625 -12.125 29.125 C-13.259375 29.104375 -14.39375 29.08375 -15.5625 29.0625 C-13.51272906 22.57841085 -11.10140107 16.31730069 -8.4375 10.0625 C-8.07785156 9.20527344 -7.71820313 8.34804687 -7.34765625 7.46484375 C-4.2203276 0.07404084 -4.2203276 0.07404084 0 0 Z M-0.5625 10.0625 C-1.2225 12.0425 -1.8825 14.0225 -2.5625 16.0625 C-0.9125 16.0625 0.7375 16.0625 2.4375 16.0625 C1.7775 14.0825 1.1175 12.1025 0.4375 10.0625 C0.1075 10.0625 -0.2225 10.0625 -0.5625 10.0625 Z " fill="#EB1B2E" transform="translate(456.5625,89.9375)"/>
<path d="M0 0 C2.68125 -0.103125 5.3625 -0.20625 8.125 -0.3125 C9.37434326 -0.38078003 9.37434326 -0.38078003 10.64892578 -0.45043945 C14.61760042 -0.52382821 17.29103102 -0.239063 20.5078125 2.20703125 C23.1206351 5.13519451 23.82204468 6.15761696 23.75 10 C23.48749013 13.90848027 23.07530332 14.90345728 20.5625 18.125 C16.66392197 20.78949577 12.53753954 20.45375395 8 20 C8.020625 21.299375 8.04125 22.59875 8.0625 23.9375 C8.08399454 25.29165633 8.07148199 26.64756083 8 28 C7.67 28.33 7.34 28.66 7 29 C4.69 29 2.38 29 0 29 C0 19.43 0 9.86 0 0 Z M8 6 C8 8.64 8 11.28 8 14 C10.91652174 14.16681109 10.91652174 14.16681109 14 14 C14.66 13.34 15.32 12.68 16 12 C15.67958603 9.39719432 15.67958603 9.39719432 15 7 C12.69 6.67 10.38 6.34 8 6 Z " fill="#EC1B30" transform="translate(392,46)"/>
<path d="M0 0 C2.64 0 5.28 0 8 0 C8 7.26 8 14.52 8 22 C12.29 22 16.58 22 21 22 C21 24.31 21 26.62 21 29 C14.07 29 7.14 29 0 29 C0 19.43 0 9.86 0 0 Z " fill="#ED1B31" transform="translate(392,90)"/>
<path d="M0 0 C2.31 0 4.62 0 7 0 C7 7.26 7 14.52 7 22 C11.62 22 16.24 22 21 22 C21 23.98 21 25.96 21 28 C14.07 28 7.14 28 0 28 C0 18.76 0 9.52 0 0 Z " fill="#EB192D" transform="translate(502,2)"/>
<path d="M0 0 C2.31 0 4.62 0 7 0 C7 9.57 7 19.14 7 29 C4.69 29 2.38 29 0 29 C0 19.43 0 9.86 0 0 Z " fill="#EB192D" transform="translate(509,46)"/>
<path d="M0 0 C2.31 0 4.62 0 7 0 C7 9.24 7 18.48 7 28 C4.69 28 2.38 28 0 28 C0 18.76 0 9.52 0 0 Z " fill="#EB192D" transform="translate(489,2)"/>
</svg>
