<?xml version="1.0" encoding="UTF-8"?>
<svg version="1.1" xmlns="http://www.w3.org/2000/svg" width="960" height="345">
<path d="M0 0 C16.45875 -0.0825 32.9175 -0.165 49.875 -0.25 C57.64780518 -0.30462402 57.64780518 -0.30462402 65.57763672 -0.36035156 C71.94360352 -0.37841797 71.94360352 -0.37841797 74.93118286 -0.3817749 C77.0016118 -0.38788578 79.07202719 -0.40188856 81.1423645 -0.42230225 C84.2929121 -0.45179292 87.44259577 -0.45561708 90.59326172 -0.45410156 C91.50348524 -0.468494 92.41370876 -0.48288643 93.35151482 -0.497715 C101.05752053 -0.44844744 107.8294731 1.43522418 113.8828125 6.33203125 C114.62273437 7.15058594 115.36265625 7.96914062 116.125 8.8125 C118.88929407 11.76051067 121.58316668 14.5994381 124.6875 17.1875 C129.5617778 21.34701609 133.98826212 25.95804109 138.48852539 30.51245117 C141.76599228 33.81547496 145.05253387 37.01162529 148.625 40 C154.28890598 44.81432009 158.54152077 50.51561817 159.18054581 58.15970993 C159.24560289 60.75943151 159.24731276 63.35216534 159.22705078 65.95263672 C159.22734283 66.9386235 159.22763489 67.92461029 159.22793579 68.94047546 C159.22654675 72.18697019 159.21100542 75.43323305 159.1953125 78.6796875 C159.19158086 80.93555577 159.1887346 83.19142567 159.18673706 85.44729614 C159.1791125 91.37549336 159.15947403 97.30359209 159.1373291 103.23175049 C159.11684536 109.28469511 159.10772993 115.33765569 159.09765625 121.390625 C159.0762271 133.26045986 159.04210529 145.13022173 159 157 C153.73473145 157.07457346 148.46977545 157.12880098 143.20410156 157.16479492 C141.41563557 157.17981184 139.62720597 157.20023158 137.83886719 157.22631836 C135.25706969 157.26301615 132.67576221 157.27979745 130.09375 157.29296875 C128.90888 157.31619453 128.90888 157.31619453 127.70007324 157.33988953 C121.36720545 157.3417772 115.72934562 156.2799165 110.72265625 152.09765625 C109.90087891 151.09025391 109.90087891 151.09025391 109.0625 150.0625 C108.49660156 149.39347656 107.93070312 148.72445312 107.34765625 148.03515625 C104.3650819 143.53103672 104.86376164 138.50988071 104.88647461 133.28417969 C104.88632858 132.40577423 104.88618256 131.52736877 104.8860321 130.62234497 C104.88672815 127.7221631 104.89450614 124.82204564 104.90234375 121.921875 C104.90420902 119.90977005 104.90563241 117.89766465 104.90663147 115.88555908 C104.91044802 110.59194686 104.92027098 105.29836211 104.93133545 100.00476074 C104.94336744 93.65210538 104.94795591 87.29944084 104.95378876 80.94677734 C104.96348317 71.29783246 104.98264578 61.64894785 105 52 C88.17 52 71.34 52 54 52 C54 86.65 54 121.3 54 157 C36.18 157 18.36 157 0 157 C0 105.19 0 53.38 0 0 Z " fill="#21CE80" transform="translate(40,133)"/>
<path d="M0 0 C9.73633311 -0.1162489 19.47249901 -0.20489445 29.20938683 -0.25906086 C33.73147609 -0.28506845 38.25308783 -0.32030298 42.77490234 -0.37719727 C47.14511379 -0.43183507 51.51486819 -0.46148689 55.88539505 -0.47438622 C57.54627291 -0.48356949 59.20712795 -0.50150164 60.8678093 -0.52865028 C71.99928284 -0.70326043 80.5463961 0.10782724 89.27490234 7.67553711 C90.22489755 8.61316424 91.16189298 9.5641318 92.0859375 10.52734375 C92.84954086 11.2944442 92.84954086 11.2944442 93.62857056 12.07704163 C94.68787853 13.14597893 95.74122526 14.22085623 96.78857422 15.30151367 C98.38072163 16.94340038 99.99108887 18.56554283 101.60546875 20.18554688 C110.96418438 29.67141061 116.21087924 36.67570111 116.24884033 50.16899109 C116.2380545 51.74424309 116.2380545 51.74424309 116.22705078 53.35131836 C116.22734283 54.47400116 116.22763489 55.59668396 116.22793579 56.75338745 C116.22654706 60.44895263 116.21100709 64.14431397 116.1953125 67.83984375 C116.19158076 70.4081664 116.18873455 72.97649048 116.18673706 75.54481506 C116.17989177 81.60429229 116.1641431 87.66368592 116.14403808 93.72313172 C116.12163726 100.62520809 116.11067516 107.52728803 116.10064721 114.42939174 C116.07977557 128.61963343 116.04462579 142.80981413 116 157 C103.76901151 157.06963091 91.53807049 157.12287779 79.30692387 157.15543652 C73.62698915 157.17106616 67.94719044 157.19225518 62.26733398 157.22631836 C56.78193774 157.25900799 51.29667201 157.27687332 45.81118584 157.28463173 C43.7224974 157.290158 41.63381579 157.30094937 39.54518318 157.31719017 C36.61077786 157.33909197 33.67690606 157.34196159 30.74243164 157.34057617 C29.88646896 157.351362 29.03050629 157.36214783 28.14860535 157.3732605 C20.83383132 157.33609719 13.35101471 156.08105045 7.97265625 150.7421875 C7.00936401 149.81055786 7.00936401 149.81055786 6.02661133 148.86010742 C5.37845459 148.20502197 4.73029785 147.54993652 4.0625 146.875 C2.67302169 145.51315198 1.28239894 144.15247061 -0.109375 142.79296875 C-0.77388672 142.13731934 -1.43839844 141.48166992 -2.12304688 140.80615234 C-5.22194677 137.82414643 -8.5366259 135.11351415 -11.88671875 132.41796875 C-18.34466214 125.02893556 -19.80749684 117.58716729 -19.625 108 C-19.64433594 106.98421875 -19.66367187 105.9684375 -19.68359375 104.921875 C-19.62896235 96.39937645 -17.41453516 89.17391144 -11.30859375 83.00390625 C-9.88740234 81.79541016 -9.88740234 81.79541016 -8.4375 80.5625 C-7.38088966 79.64785203 -6.32491953 78.73246406 -5.26953125 77.81640625 C-4.73150879 77.35766113 -4.19348633 76.89891602 -3.63916016 76.42626953 C-1.97368508 74.97710281 -0.36392304 73.4835139 1.23828125 71.96484375 C1.76413818 71.46847412 2.28999512 70.97210449 2.83178711 70.46069336 C4.29203776 69.07852604 5.75151113 67.69553766 7.2109375 66.3125 C12.10993312 62.25058767 16.09901317 60.62107839 22.46435547 60.65942383 C23.72520966 60.65965042 24.98606384 60.65987701 26.28512573 60.66011047 C27.64581667 60.67542677 29.00650392 60.6910747 30.3671875 60.70703125 C31.77108302 60.71263262 33.17498444 60.71690016 34.57888794 60.71989441 C38.25822387 60.73130073 41.93719957 60.76073082 45.61639404 60.79400635 C49.37702564 60.82479871 53.13771594 60.83841924 56.8984375 60.85351562 C64.26580755 60.88560534 71.63280723 60.93833794 79 61 C79 53.08 79 45.16 79 37 C75.95724854 37.02356567 75.95724854 37.02356567 72.85302734 37.04760742 C66.1395916 37.09738878 59.42614755 37.13048306 52.71257591 37.15543652 C48.64340805 37.17107087 44.57442983 37.19226809 40.50537109 37.22631836 C36.57610849 37.25899183 32.64702793 37.27686979 28.71763992 37.28463173 C27.22096518 37.29016095 25.72430003 37.30095824 24.22770309 37.31719017 C22.12603223 37.33907143 20.02510688 37.34196258 17.92333984 37.34057617 C16.72865082 37.34723801 15.53396179 37.35389984 14.30307007 37.36076355 C9.28446629 36.81262825 6.05732325 35.17162847 2.6875 31.4375 C0.03022618 27.59921559 -0.11945425 25.56321018 -0.09765625 20.8984375 C-0.09443359 19.68671875 -0.09121094 18.475 -0.08789062 17.2265625 C-0.07951172 15.95554688 -0.07113281 14.68453125 -0.0625 13.375 C-0.05798828 12.09625 -0.05347656 10.8175 -0.04882812 9.5 C-0.03701203 6.33328708 -0.02053815 3.16666644 0 0 Z M18 90 C18 101.22 18 112.44 18 124 C38.13 124 58.26 124 79 124 C79 112.78 79 101.56 79 90 C58.87 90 38.74 90 18 90 Z " fill="#39004D" transform="translate(578,133)"/>
<path d="M0 0 C15.18 -0.0825 30.36 -0.165 46 -0.25 C50.78242188 -0.28641602 55.56484375 -0.32283203 60.4921875 -0.36035156 C66.359375 -0.37841797 66.359375 -0.37841797 69.11132812 -0.3817749 C71.02184786 -0.38789295 72.93235273 -0.40191091 74.84277344 -0.42230225 C77.74701519 -0.45173553 80.65031816 -0.45561903 83.5546875 -0.45410156 C84.39716034 -0.468494 85.23963318 -0.48288643 86.1076355 -0.497715 C94.30047893 -0.44070955 100.06848847 2.67918849 106 8.25 C106.84304688 9.03632813 107.68609375 9.82265625 108.5546875 10.6328125 C111.43101425 13.41724383 114.26020608 16.24277072 117.0625 19.1015625 C119.00874043 21.00856421 121.03622658 22.75144346 123.125 24.5 C127.79786536 28.51847987 132.02873885 33.08621655 134 39 C134.0896442 40.61150639 134.12196971 42.22650298 134.12025452 43.84049988 C134.12231651 45.33599113 134.12231651 45.33599113 134.12442017 46.86169434 C134.12082489 47.95429565 134.11722961 49.04689697 134.11352539 50.17260742 C134.11367142 51.32396683 134.11381744 52.47532623 134.1139679 53.66157532 C134.11326991 57.47622547 134.10548279 61.2908271 134.09765625 65.10546875 C134.09579167 67.74676995 134.09436795 70.3880715 134.09336853 73.02937317 C134.09025948 79.27665829 134.08205182 85.52392592 134.07201904 91.77120334 C134.0608447 98.88358981 134.05534412 105.99597712 134.05032361 113.10837018 C134.03986886 127.73892248 134.02227764 142.36946099 134 157 C129.81263332 157.08760181 125.62550469 157.14059435 121.4375 157.1875 C120.25607422 157.21263672 119.07464844 157.23777344 117.85742188 157.26367188 C110.71562409 157.32368698 104.94368334 157.31587725 99.2578125 152.53515625 C95.81544277 148.0600756 94.87323381 145.00479715 94.87974548 139.45684814 C94.87768349 138.09812843 94.87768349 138.09812843 94.87557983 136.71195984 C94.88097275 135.23273796 94.88097275 135.23273796 94.88647461 133.72363281 C94.88632858 132.67941666 94.88618256 131.6352005 94.8860321 130.55934143 C94.88672887 127.10724817 94.89451027 123.65520884 94.90234375 120.203125 C94.90420877 117.80987579 94.90563228 115.41662619 94.90663147 113.02337646 C94.91045004 106.72364244 94.92027473 100.42393146 94.93133545 94.12420654 C94.94336198 86.56594824 94.94795495 79.00768224 94.95378876 71.44941711 C94.9634868 59.96626205 94.98264802 48.48315755 95 37 C76.52 37 58.04 37 39 37 C39 76.6 39 116.2 39 157 C26.13 157 13.26 157 0 157 C0 105.19 0 53.38 0 0 Z " fill="#3A004E" transform="translate(401,133)"/>
<path d="M0 0 C13.86 0 27.72 0 42 0 C53 44 64 88 75 132 C76.65544222 128.96197634 77.61068823 126.05679479 78.44862366 122.70429993 C78.71918076 121.63164886 78.98973785 120.5589978 79.26849365 119.45384216 C79.55895569 118.28225052 79.84941772 117.11065887 80.14868164 115.90356445 C80.61488167 114.04704254 80.61488167 114.04704254 81.09049988 112.15301514 C81.7654222 109.46526538 82.43741926 106.77680729 83.10716438 104.08776283 C84.16543885 99.8391059 85.23058608 95.59219078 86.29673767 91.34550476 C88.36515152 83.1026561 90.42667123 74.85809113 92.48737335 66.61331177 C95.11351096 56.10736784 97.74238615 45.60211381 100.37819761 35.09859246 C101.43831748 30.87308895 102.49482792 26.64670395 103.54857457 22.4196068 C104.04582609 20.42703553 104.5446563 18.43486766 105.04420471 16.44287109 C105.65450423 14.00911095 106.26224174 11.57470647 106.86703491 9.13957214 C107.13477219 8.07538055 107.40250946 7.01118896 107.67835999 5.91474915 C108.02704935 4.51911224 108.02704935 4.51911224 108.38278294 3.09528065 C109 1 109 1 110 0 C113.02977804 -0.08871273 116.03667022 -0.1151935 119.06640625 -0.09765625 C119.97502914 -0.0962413 120.88365204 -0.09482635 121.81980896 -0.09336853 C124.73407221 -0.08775193 127.64825981 -0.07519665 130.5625 -0.0625 C132.53320202 -0.05748714 134.50390524 -0.05292386 136.47460938 -0.04882812 C141.31643559 -0.03777711 146.15820495 -0.02050138 151 0 C149.74603609 6.85673639 148.09656748 13.48340377 146.078125 20.15234375 C145.78538193 21.13370804 145.49263885 22.11507233 145.19102478 23.12617493 C144.55140303 25.26905258 143.90980282 27.41134046 143.26644897 29.55310059 C141.48195383 35.49480989 139.71268632 41.44105925 137.94140625 47.38671875 C137.65529952 48.34608526 137.65529952 48.34608526 137.36341286 49.32483292 C131.90894053 67.61481633 126.55224688 85.93354518 121.1875 104.25 C119.52623209 109.9212045 117.86467761 115.59232494 116.20282173 121.26335716 C115.56336312 123.44601315 114.92434202 125.62879683 114.28538513 127.81159973 C113.52739878 130.40064566 112.76720778 132.9890084 112.00570679 135.57702637 C111.36959931 137.74205016 110.73772245 139.90832537 110.11172485 142.07629395 C109.85096161 142.96989624 109.59019836 143.86349854 109.3215332 144.78417969 C109.10366653 145.53850281 108.88579987 146.29282593 108.66133118 147.07000732 C107.62611532 150.09112455 106.38127973 151.87615592 104 154 C97.97847744 156.72030552 93.05720406 157.44623595 86.49609375 157.3984375 C85.17291893 157.40274277 85.17291893 157.40274277 83.82301331 157.40713501 C81.96997429 157.4091645 80.1169133 157.40371321 78.26391602 157.39111328 C75.44172964 157.37502411 72.62097095 157.39100976 69.79882812 157.41015625 C67.9895802 157.408174 66.18033316 157.40433069 64.37109375 157.3984375 C63.53549423 157.40451019 62.69989471 157.41058289 61.838974 157.4168396 C55.18875585 157.33768589 50.34309433 156.15209728 45.29248047 151.51318359 C42.01821929 147.15044955 40.7934399 141.96565281 39.3203125 136.7890625 C38.81783493 135.09108017 38.81783493 135.09108017 38.3052063 133.35879517 C37.38381577 130.23481422 36.47577753 127.10730561 35.57295227 123.97792053 C34.59899014 120.61565146 33.60654497 117.25884266 32.61621094 113.90136719 C30.24213752 105.83955035 27.89420279 97.77022992 25.55031967 89.69959259 C24.40302933 85.75037751 23.25381936 81.80172111 22.10473633 77.85302734 C20.71881021 73.09021209 19.33300364 68.32736246 17.94813538 63.5642395 C15.1496819 53.94059776 12.3399136 44.32036366 9.51953125 34.703125 C8.85754283 32.44353438 8.1955946 30.18393199 7.53369141 27.92431641 C6.6183514 24.79960497 5.70224647 21.67513082 4.78338623 18.55145264 C3.96130785 15.75634011 3.14239559 12.96031908 2.32421875 10.1640625 C2.08467972 9.3531012 1.84514069 8.54213989 1.5983429 7.706604 C0 2.22775695 0 2.22775695 0 0 Z " fill="#3A004D" transform="translate(709,133)"/>
<path d="M0 0 C42.9 0 85.8 0 130 0 C130 42.9 130 85.8 130 130 C112.84 130 95.68 130 78 130 C78 104.26 78 78.52 78 52 C52.26 52 26.52 52 0 52 C0 34.84 0 17.68 0 0 Z " fill="#21CF80" transform="translate(145,55)"/>
<path d="M0 0 C12.87 0 25.74 0 39 0 C39 51.81 39 103.62 39 157 C26.13 157 13.26 157 0 157 C0 105.19 0 53.38 0 0 Z " fill="#3B004E" transform="translate(881,133)"/>
<path d="M0 0 C33.33 0 66.66 0 101 0 C101 0.33 101 0.66 101 1 C68.33 1 35.66 1 2 1 C2 51.82 2 102.64 2 155 C18.83 155 35.66 155 53 155 C53 120.68 53 86.36 53 51 C70.49 51 87.98 51 106 51 C106.33 82.35 106.66 113.7 107 146 C104.75463878 141.50927756 104.73059306 138.15673995 104.77294922 133.28417969 C104.77265717 132.40577423 104.77236511 131.52736877 104.77206421 130.62234497 C104.77345633 127.72208745 104.78901206 124.82208758 104.8046875 121.921875 C104.80841805 119.90977112 104.81126482 117.89766543 104.81326294 115.88555908 C104.8208961 110.59190854 104.84054193 105.29836789 104.8626709 100.00476074 C104.88673482 93.65212271 104.89591182 87.29944792 104.90757751 80.94677734 C104.92696645 71.29777515 104.96529132 61.64901405 105 52 C88.17 52 71.34 52 54 52 C54 86.65 54 121.3 54 157 C36.18 157 18.36 157 0 157 C0 105.19 0 53.38 0 0 Z " fill="#147A4C" transform="translate(40,133)"/>
<path d="M0 0 C42.9 0 85.8 0 130 0 C130 42.9 130 85.8 130 130 C112.84 130 95.68 130 78 130 C78 129.67 78 129.34 78 129 C94.5 129 111 129 128 129 C128 87.09 128 45.18 128 2 C86.09 2 44.18 2 1 2 C1 18.17 1 34.34 1 51 C26.41 51 51.82 51 78 51 C78 51.33 78 51.66 78 52 C52.26 52 26.52 52 0 52 C0 34.84 0 17.68 0 0 Z " fill="#17955C" transform="translate(145,55)"/>
</svg>
