<?xml version="1.0" encoding="UTF-8"?>
<svg version="1.1" xmlns="http://www.w3.org/2000/svg" width="960" height="191">
<path d="M0 0 C0 0.66 0 1.32 0 2 C0.58007812 2.22945312 1.16015625 2.45890625 1.7578125 2.6953125 C10.41647432 7.73362791 16.03984386 21.17436113 19.1171875 30.3203125 C22.92411576 46.18812853 21.23338472 62.40444627 14 77 C13.45214844 77.8559375 12.90429688 78.711875 12.33984375 79.59375 C10.67567622 82.12343772 10.67567622 82.12343772 11 86 C12.57332028 87.80111581 12.57332028 87.80111581 14.6875 89.375 C15.41324219 89.98601562 16.13898438 90.59703125 16.88671875 91.2265625 C17.93279297 92.10441406 17.93279297 92.10441406 19 93 C21.91956689 95.48267208 23.76488265 97.71263616 24.4765625 101.609375 C24.71714421 106.29438734 24.6588499 109.88686352 21.625 113.625 C17.45324893 117.39944144 14.40182513 117.51322945 8.890625 117.484375 C3.93468743 116.6539206 1.34201507 113.52640211 -2 110 C-2.845625 109.360625 -3.69125 108.72125 -4.5625 108.0625 C-7.42993512 105.63620874 -9.74176838 102.94015688 -12.15625 100.0703125 C-13.949971 98.05617663 -15.8539098 96.34337866 -17.875 94.5625 C-21.1079669 91.35872467 -22.11579052 88.73054221 -22.26171875 84.19140625 C-21.59569436 78.61469455 -18.14650731 75.11692598 -14.5 71.1875 C-8.07771459 64.02100126 -5.89088223 55.50688591 -6 46 C-6.82872191 36.27731612 -11.00071433 26.84374599 -18 20 C-28.71925861 12.62940234 -39.00243787 9.46191352 -51.99609375 11.4609375 C-58.21770367 12.80829251 -62.95206328 14.79386528 -68.0625 18.59765625 C-70 20 -70 20 -72.125 20.93359375 C-74.14677932 21.84887267 -74.14677932 21.84887267 -74.91162109 23.88476562 C-76.11513614 26.22376391 -77.25149755 27.26940913 -79.2890625 28.91015625 C-83.19542036 32.21546808 -86.80614186 35.73358556 -90.3984375 39.37109375 C-90.96371155 39.94203766 -91.5289856 40.51298157 -92.11138916 41.10122681 C-94.47183274 43.48876234 -96.82803839 45.88040399 -99.18017578 48.27612305 C-100.91529364 50.04125453 -102.65642841 51.80026685 -104.3984375 53.55859375 C-104.93173676 54.10535263 -105.46503601 54.65211151 -106.01449585 55.21543884 C-107.30552223 56.51528518 -108.64844033 57.76321543 -110 59 C-110.66 59 -111.32 59 -112 59 C-112.37125 59.928125 -112.37125 59.928125 -112.75 60.875 C-114.23740369 63.40358627 -115.43678009 63.71839004 -118 65 C-118.68268138 66.32520503 -119.3507041 67.65812182 -120 69 C-120.99 69.33 -121.98 69.66 -123 70 C-123 70.66 -123 71.32 -123 72 C-124.57421875 73.5859375 -124.57421875 73.5859375 -126.6875 75.375 C-127.41582031 75.99375 -128.14414063 76.6125 -128.89453125 77.25 C-137.45660856 84.36653179 -137.45660856 84.36653179 -144.67578125 84.28515625 C-148.25079353 83.8465413 -150.3331253 82.34164608 -153 80 C-155.55844349 75.77415713 -155.77733549 71.81948006 -155 67 C-153.12018121 62.75947854 -149.91191576 59.84044388 -146.41796875 56.890625 C-141.48097247 52.61504449 -136.90627582 48.01350206 -132.3125 43.375 C-131.41055908 42.46927246 -130.50861816 41.56354492 -129.5793457 40.63037109 C-126.71711436 37.75600431 -123.85804198 34.8785306 -121 32 C-117.23225667 28.20524662 -113.46084455 24.41418619 -109.6875 20.625 C-108.40903198 19.33408447 -108.40903198 19.33408447 -107.10473633 18.01708984 C-102.75197787 13.64667751 -98.33678788 9.42966486 -93.64440918 5.42442322 C-91.4996764 3.56660875 -89.5190148 1.55514707 -87.5 -0.4375 C-62.66025846 -22.92805668 -25.19257232 -19.83245055 0 0 Z " fill="#0D8E6C" transform="translate(155,16)"/>
<path d="M0 0 C2.73306509 2.16010928 4.62750604 4.41546766 6.62109375 7.28125 C6.62109375 7.94125 6.62109375 8.60125 6.62109375 9.28125 C7.34296875 8.53875 8.06484375 7.79625 8.80859375 7.03125 C15.96446884 0.03439435 21.09332138 -2.87618492 31.12109375 -3.09375 C39.37188011 -2.89884953 44.83198922 -1.35090642 50.94488525 4.37698364 C57.35852849 11.66324013 57.16462038 20.98824936 57.01171875 30.1640625 C57.00605896 31.45947968 57.00039917 32.75489685 56.99456787 34.08956909 C56.97944482 37.49939019 56.94028317 40.90850733 56.89575195 44.3180542 C56.85450714 47.81089765 56.83649518 51.30385715 56.81640625 54.796875 C56.77377169 61.62531472 56.70353544 68.45317588 56.62109375 75.28125 C49.36109375 75.28125 42.10109375 75.28125 34.62109375 75.28125 C34.57210937 71.65769531 34.523125 68.03414063 34.47265625 64.30078125 C34.41863829 60.78926482 34.36133391 57.27781633 34.30371094 53.76635742 C34.26544073 51.32695583 34.23058445 48.88749818 34.19921875 46.44799805 C34.1535263 42.94038873 34.0955377 39.43316466 34.03515625 35.92578125 C34.02360504 34.83602493 34.01205383 33.74626862 34.00015259 32.62348938 C33.9802829 31.60280869 33.96041321 30.58212799 33.93994141 29.53051758 C33.92661774 28.63561111 33.91329407 27.74070465 33.89956665 26.81867981 C33.51469964 23.31179273 32.80836703 20.24020149 29.99609375 17.96875 C24.58192733 16.4014913 18.62662016 16.65930759 13.62109375 19.28125 C10.94495583 24.84362162 11.27268087 30.76486499 11.20703125 36.8046875 C11.1876651 37.90600006 11.16829895 39.00731262 11.14834595 40.14199829 C11.08874447 43.64667099 11.04224213 47.15137688 10.99609375 50.65625 C10.95789613 53.03777445 10.91884336 55.41928534 10.87890625 57.80078125 C10.78305871 63.62749362 10.69895561 69.45427065 10.62109375 75.28125 C3.69109375 75.28125 -3.23890625 75.28125 -10.37890625 75.28125 C-10.40863525 73.04855347 -10.40863525 73.04855347 -10.43896484 70.77075195 C-10.51507487 65.24486461 -10.60378443 59.71923873 -10.69628906 54.19360352 C-10.7345564 51.80270553 -10.76941318 49.41175041 -10.80078125 47.02075195 C-10.84647997 43.58263744 -10.90446747 40.14491548 -10.96484375 36.70703125 C-10.97639496 35.63914871 -10.98794617 34.57126617 -10.99984741 33.47102356 C-11.0197171 32.47036362 -11.03958679 31.46970367 -11.06005859 30.4387207 C-11.07338226 29.56157913 -11.08670593 28.68443756 -11.10043335 27.78071594 C-11.54617485 23.77991117 -12.44062227 21.0586853 -15.56640625 18.46875 C-19.11420227 16.97079168 -21.55642419 16.87169835 -25.37890625 17.28125 C-29.61828851 19.11189234 -31.50050538 21.09497706 -33.37890625 25.28125 C-33.85542801 29.08586488 -33.86770209 32.87615903 -33.890625 36.70703125 C-33.9085762 37.80975876 -33.9265274 38.91248627 -33.94502258 40.04862976 C-33.99911629 43.56363119 -34.03301915 47.07849687 -34.06640625 50.59375 C-34.09958005 52.97983659 -34.13406977 55.36590527 -34.16992188 57.75195312 C-34.2573146 63.59507154 -34.31739386 69.43757258 -34.37890625 75.28125 C-41.63890625 75.28125 -48.89890625 75.28125 -56.37890625 75.28125 C-56.37890625 49.87125 -56.37890625 24.46125 -56.37890625 -1.71875 C-49.11890625 -1.71875 -41.85890625 -1.71875 -34.37890625 -1.71875 C-34.04890625 0.92125 -33.71890625 3.56125 -33.37890625 6.28125 C-32.82203125 5.518125 -32.26515625 4.755 -31.69140625 3.96875 C-24.34788666 -4.56561061 -9.50824858 -5.72539699 0 0 Z " fill="#0E8F6C" transform="translate(586.37890625,51.71875)"/>
<path d="M0 0 C22.44 0 44.88 0 68 0 C68 6.6 68 13.2 68 20 C52.82 20 37.64 20 22 20 C22 26.93 22 33.86 22 41 C36.19 41 50.38 41 65 41 C65 47.27 65 53.54 65 60 C51.14 60 37.28 60 23 60 C22.67 67.26 22.34 74.52 22 82 C37.18 82 52.36 82 68 82 C68 88.27 68 94.54 68 101 C45.56 101 23.12 101 0 101 C0 67.67 0 34.34 0 0 Z " fill="#0E8F6C" transform="translate(660,26)"/>
<path d="M0 0 C57.90559072 0 57.90559072 0 67.390625 9.2890625 C68.18726563 10.13597656 68.18726563 10.13597656 69 11 C69.7425 11.763125 70.485 12.52625 71.25 13.3125 C78.1149947 23.85517043 78.80951407 35.9298107 76.375 48.1328125 C73.50122096 56.31795102 67.64024856 62.91755383 60 66.9375 C51.53730611 70.9258304 43.69586432 71.26688048 34.5 71.125 C28.8075 71.063125 28.8075 71.063125 23 71 C22.67 80.9 22.34 90.8 22 101 C14.74 101 7.48 101 0 101 C0 67.67 0 34.34 0 0 Z M22 19 C22 29.89 22 40.78 22 52 C25.96 52.061875 25.96 52.061875 30 52.125 C30.8146875 52.14320801 31.629375 52.16141602 32.46875 52.18017578 C38.74979871 52.22698167 44.49425617 51.63418076 49.875 48.125 C53.81759329 44.18240671 54.73025117 40.57480905 55 35 C54.17454297 30.17367919 53.06573542 26.21798334 49.8125 22.5 C43.42723106 19.09452323 37.07171588 18.71694939 30 18.875 C27.36 18.91625 24.72 18.9575 22 19 Z " fill="#0D8F6C" transform="translate(217,26)"/>
<path d="M0 0 C7.26 0 14.52 0 22 0 C22.33 12.54 22.66 25.08 23 38 C24.98 35.525 24.98 35.525 27 33 C34.91386342 27.09931236 43.55776617 27.45334436 53 28 C60.0844763 29.35910648 63.99077284 33.30189496 68.1875 38.9375 C71.13144334 43.91174909 72.25220758 48.24446457 72.22705078 54.00537109 C72.22689972 55.16612152 72.22674866 56.32687195 72.22659302 57.52279663 C72.21627045 58.76050812 72.20594788 59.9982196 72.1953125 61.2734375 C72.1924826 62.55231842 72.18965271 63.83119934 72.18673706 65.14883423 C72.1774602 68.53220099 72.15952183 71.91529326 72.1373291 75.29858398 C72.11679041 78.75762574 72.10771826 82.21669596 72.09765625 85.67578125 C72.07563197 92.45060591 72.04112034 99.22526541 72 106 C65.07 106 58.14 106 51 106 C50.96261719 102.86757812 50.92523438 99.73515625 50.88671875 96.5078125 C50.84039818 93.44622138 50.78920288 90.38474743 50.73754883 87.32324219 C50.70446426 85.2090579 50.67638204 83.09478877 50.65356445 80.98046875 C50.61971392 77.92671841 50.56738455 74.87373406 50.51171875 71.8203125 C50.50532883 70.88760529 50.4989389 69.95489807 50.49235535 68.993927 C50.35465494 62.73172888 49.5800578 56.7708081 47 51 C43.30660658 48.07964242 39.73690986 47.42929185 35.0234375 47.6640625 C31.33771618 48.27597762 28.73560175 49.44564081 26 52 C22.78639292 58.23412609 22.53509989 64.85094119 22.48828125 71.72265625 C22.47033005 72.70874374 22.45237885 73.69483124 22.43388367 74.71080017 C22.38015472 77.8279913 22.3460056 80.94503264 22.3125 84.0625 C22.27929387 86.1894738 22.24480121 88.31642793 22.20898438 90.44335938 C22.12205289 95.62892335 22.06166419 100.81382928 22 106 C14.74 106 7.48 106 0 106 C0 71.02 0 36.04 0 0 Z " fill="#0D8F6D" transform="translate(304,21)"/>
<path d="M0 0 C3.27811432 1.716799 5.49029087 4.31337695 8 7 C9.92644353 8.94503855 11.86562892 10.87687208 13.80566406 12.80834961 C15.17578506 14.17669248 16.53983141 15.55114735 17.89746094 16.93188477 C18.84153809 17.88985962 18.84153809 17.88985962 19.8046875 18.8671875 C20.37171387 19.44581543 20.93874023 20.02444336 21.52294922 20.62060547 C22.97110166 22.10372935 22.97110166 22.10372935 25 23 C25 23.66 25 24.32 25 25 C25.66 25 26.32 25 27 25 C27 25.66 27 26.32 27 27 C27.66 27 28.32 27 29 27 C29 27.66 29 28.32 29 29 C29.56315918 29.2386377 30.12631836 29.47727539 30.70654297 29.72314453 C33.5024951 31.27975829 35.42904008 33.16977209 37.6953125 35.4296875 C39.01595703 36.74646484 39.01595703 36.74646484 40.36328125 38.08984375 C41.27464844 39.00894531 42.18601562 39.92804688 43.125 40.875 C44.04410156 41.78636719 44.96320313 42.69773438 45.91015625 43.63671875 C46.78800781 44.51714844 47.66585937 45.39757812 48.5703125 46.3046875 C49.37227051 47.10890137 50.17422852 47.91311523 51.00048828 48.74169922 C53.86912195 51.98160905 54.89664403 54.06979624 55.375 58.375 C54.54792906 66.37001909 47.70364881 71.5685075 42.25 76.9375 C41.08984375 78.09668945 41.08984375 78.09668945 39.90625 79.27929688 C35.6187827 83.53439235 31.24957846 87.61284077 26.62011719 91.49438477 C24.7642839 93.10236943 24.7642839 93.10236943 23 96 C18.37939044 97.54020319 13.82536624 97.51574193 9 97 C5.29657616 94.88375781 3.62727699 92.8700892 2 89 C1.39658226 84.61934393 1.55762698 80.98528536 3.375 76.9375 C3.91125 76.298125 4.4475 75.65875 5 75 C5.66 75 6.32 75 7 75 C7 74.34 7 73.68 7 73 C7.66 73 8.32 73 9 73 C9 72.34 9 71.68 9 71 C9.66 71 10.32 71 11 71 C11 70.34 11 69.68 11 69 C11.66 69 12.32 69 13 69 C13 68.34 13 67.68 13 67 C15.00817747 65.18008917 17.12186339 63.52894795 19.25 61.8515625 C21.45792908 59.94011162 21.45792908 59.94011162 21 56 C19.356632 53.94691509 17.74840149 52.16401334 15.890625 50.32421875 C15.36740662 49.79480179 14.84418823 49.26538483 14.30511475 48.71992493 C13.19703304 47.60474436 12.08378742 46.49467454 10.96582031 45.3894043 C9.25432447 43.69178939 7.56818968 41.9715492 5.8828125 40.24804688 C4.80353507 39.16781842 3.72285154 38.08899262 2.640625 37.01171875 C1.88413666 36.23534309 1.88413666 36.23534309 1.11236572 35.44328308 C-0.47254894 33.84282384 -0.47254894 33.84282384 -3 32 C-6.69494307 32.14319921 -8.2927551 33.99513872 -10.75 36.625 C-14.63756373 40.66487499 -18.68539842 44.41960583 -23 48 C-23.64710937 48.54140625 -24.29421875 49.0828125 -24.9609375 49.640625 C-28.39827643 51.93218428 -31.92721059 52.24040771 -36 52 C-40.02261887 49.98869056 -42.6124493 47.78313908 -45 44 C-45.43359375 41.6328125 -45.43359375 41.6328125 -45.4375 39.125 C-45.45683594 38.30257812 -45.47617187 37.48015625 -45.49609375 36.6328125 C-44.15435669 29.51209774 -38.03637771 24.96337088 -32.9375 20.3125 C-31.41272096 18.90249102 -29.88928644 17.49102671 -28.3671875 16.078125 C-27.62436523 15.38912109 -26.88154297 14.70011719 -26.11621094 13.99023438 C-22.30831958 10.40902414 -18.65476878 6.68145016 -15.00390625 2.94140625 C-10.74854794 -1.18123133 -5.62802367 -0.87118723 0 0 Z " fill="#0D8E6C" transform="translate(92,94)"/>
<path d="M0 0 C7.92 0 15.84 0 24 0 C25.97734976 6.88628001 27.95348466 13.77288455 29.92651367 20.66040039 C30.59799757 23.00305383 31.27019279 25.34550351 31.94311523 27.68774414 C32.91056677 31.05561786 33.87545282 34.42421753 34.83984375 37.79296875 C35.14091537 38.83897751 35.441987 39.88498627 35.75218201 40.96269226 C36.1725045 42.43365105 36.1725045 42.43365105 36.60131836 43.93432617 C36.84780624 44.79370285 37.09429413 45.65307953 37.34825134 46.53849792 C38.00315784 49.01192643 38.52501653 51.48637673 39 54 C42.76075577 42.11111532 46.09352858 30.10847046 49.44458008 18.09936523 C50.17362346 15.48895007 50.90506802 12.8792166 51.63671875 10.26953125 C51.85962082 9.46755814 52.08252289 8.66558502 52.31217957 7.83930969 C53.88698842 2.22602316 53.88698842 2.22602316 55 0 C62.26 0 69.52 0 77 0 C76.27532848 6.52204372 75.42159487 11.49962237 73.2265625 17.46875 C72.94694672 18.25494217 72.66733093 19.04113434 72.37924194 19.85115051 C71.46978568 22.40394514 70.54747851 24.95188565 69.625 27.5 C68.3415072 31.08551869 67.06479549 34.67343278 65.7890625 38.26171875 C65.46794495 39.16246628 65.14682739 40.06321381 64.815979 40.99125671 C62.74278068 46.82999918 60.75244457 52.69008433 58.8359375 58.58203125 C58.59211334 59.32915375 58.34828918 60.07627625 58.09707642 60.84603882 C57.17474607 63.67794805 56.25395105 66.51008874 55.35528564 69.34960938 C51.5945004 81.23048011 47.33189925 94.39451861 36.06005859 101.1652832 C29.9079847 104.12683634 24.69684212 104.49459693 17.9375 104.25 C16.97650391 104.23195313 16.01550781 104.21390625 15.02539062 104.1953125 C12.6831527 104.1487008 10.34143662 104.07697874 8 104 C8 98.39 8 92.78 8 87 C11.54817708 86.38151042 15.09635417 85.76302083 18.64453125 85.14453125 C22.06629656 84.27441413 22.06629656 84.27441413 24.01171875 81.82421875 C26.6159433 74.38210669 22.13862072 66.35372554 19.5625 59.375 C18.65345813 56.87422415 17.74576362 54.37299834 16.83984375 51.87109375 C16.606604 51.22880325 16.37336426 50.58651276 16.13305664 49.92475891 C13.11889576 41.60524834 10.26498631 33.23090364 7.40063477 24.85888672 C7.01319092 23.72854004 6.62574707 22.59819336 6.2265625 21.43359375 C5.85692383 20.35319824 5.48728516 19.27280273 5.10644531 18.15966797 C3.71508967 14.18638361 2.22895028 10.25154338 0.71240234 6.32446289 C0 4 0 4 0 0 Z " fill="#0D8F6C" transform="translate(883,50)"/>
<path d="M0 0 C5.1343551 4.02346736 7.85533066 8.32808717 9.7734375 14.55859375 C10.2964676 19.16255171 10.24087076 23.71519051 10.1640625 28.34375 C10.15840271 29.64058212 10.15274292 30.93741425 10.14691162 32.27354431 C10.13176885 35.69159807 10.09258919 39.10895256 10.0480957 42.5267334 C10.00689443 46.02618963 9.98884806 49.52576083 9.96875 53.02539062 C9.92608043 59.87010477 9.85582701 66.71424351 9.7734375 73.55859375 C2.8434375 73.55859375 -4.0865625 73.55859375 -11.2265625 73.55859375 C-11.7215625 70.09359375 -11.7215625 70.09359375 -12.2265625 66.55859375 C-12.6390625 66.95691406 -13.0515625 67.35523437 -13.4765625 67.765625 C-20.49898541 74.20807102 -26.64100574 76.16761296 -36.19140625 75.9140625 C-42.81717227 75.13807189 -49.65616323 72.52074153 -54.2265625 67.55859375 C-59.0242176 60.54868658 -60.45736676 53.96521905 -59.2265625 45.55859375 C-57.46599197 39.3862406 -53.67705231 34.87414441 -48.2265625 31.55859375 C-36.4425926 26.15040815 -23.94439322 26.35235866 -11.2265625 26.55859375 C-11.45614027 25.11769115 -11.71112604 23.6808236 -11.9765625 22.24609375 C-12.11578125 21.44558594 -12.255 20.64507812 -12.3984375 19.8203125 C-13.47769033 16.87273047 -14.45463739 16.0189704 -17.2265625 14.55859375 C-20.36509961 14.12135829 -20.36509961 14.12135829 -23.7265625 14.24609375 C-24.850625 14.24996094 -25.9746875 14.25382812 -27.1328125 14.2578125 C-30.11156422 14.54741336 -31.77513563 14.89273776 -34.2265625 16.55859375 C-34.8865625 17.54859375 -35.5465625 18.53859375 -36.2265625 19.55859375 C-38.28955078 19.89916992 -38.28955078 19.89916992 -40.796875 19.8515625 C-41.69277344 19.84189453 -42.58867187 19.83222656 -43.51171875 19.82226562 C-44.91744141 19.78456055 -44.91744141 19.78456055 -46.3515625 19.74609375 C-47.29644531 19.73255859 -48.24132812 19.71902344 -49.21484375 19.70507812 C-51.55265029 19.66965681 -53.88932487 19.62026646 -56.2265625 19.55859375 C-55.33669906 11.0612703 -52.79018133 6.3596963 -46.08984375 0.87890625 C-34.53059169 -7.31192645 -11.80883859 -7.6446692 0 0 Z M-19.3515625 40.93359375 C-20.65351563 41.00320312 -21.95546875 41.0728125 -23.296875 41.14453125 C-28.52527774 41.69543651 -32.80214569 42.2410082 -36.7265625 45.87109375 C-38.45205553 48.42791 -38.45205553 48.42791 -38.1640625 51.18359375 C-37.10082946 53.87711745 -36.6265372 54.93280444 -34.2265625 56.55859375 C-28.48043641 58.73815882 -24.93132796 58.79528272 -19.20703125 56.5390625 C-15.29665709 54.60315735 -13.66975948 52.60010665 -11.9765625 48.62109375 C-11.28113298 45.78142321 -11.05568539 43.46350468 -11.2265625 40.55859375 C-13.93410381 40.55859375 -16.65037725 40.78029752 -19.3515625 40.93359375 Z " fill="#0E8F6D" transform="translate(446.2265625,53.44140625)"/>
<path d="M0 0 C5.06115084 4.10865355 7.94540304 7.88800125 9.51171875 14.30078125 C9.90911827 18.86765425 9.86146813 23.40712767 9.8046875 27.98828125 C9.80044266 29.28652832 9.79619781 30.58477539 9.79182434 31.92236328 C9.78045297 35.34850882 9.75105418 38.77426359 9.7177124 42.20025635 C9.68684355 45.70636715 9.67328335 49.21254203 9.65820312 52.71875 C9.62617541 59.57960231 9.57347219 66.4401327 9.51171875 73.30078125 C2.58171875 73.30078125 -4.34828125 73.30078125 -11.48828125 73.30078125 C-11.81828125 71.32078125 -12.14828125 69.34078125 -12.48828125 67.30078125 C-13.29265625 68.06390625 -14.09703125 68.82703125 -14.92578125 69.61328125 C-21.27768814 74.82510228 -28.43427067 75.87198243 -36.48828125 75.65625 C-43.1465909 74.86730966 -49.83634133 72.2263647 -54.48828125 67.30078125 C-58.59566256 60.41323368 -60.30299808 54.3315614 -59.48828125 46.30078125 C-57.99653285 40.67527222 -55.35873261 36.14824383 -50.72265625 32.58203125 C-38.80380097 25.74744291 -24.77632871 26.14259021 -11.48828125 26.30078125 C-12.14828125 22.67078125 -12.80828125 19.04078125 -13.48828125 15.30078125 C-17.14189995 14.38737657 -20.18128484 14.03833259 -23.92578125 13.92578125 C-25.03824219 13.87679687 -26.15070312 13.8278125 -27.296875 13.77734375 C-30.68134571 13.98914108 -30.68134571 13.98914108 -32.72265625 16.8046875 C-36.91559705 20.58899424 -40.86401231 19.85061502 -46.30078125 19.61328125 C-47.7693457 19.57944336 -47.7693457 19.57944336 -49.26757812 19.54492188 C-51.6760558 19.48617852 -54.08137203 19.40410254 -56.48828125 19.30078125 C-55.47040612 10.92825935 -52.87084383 5.81285062 -46.34765625 0.5859375 C-34.77904804 -7.41001229 -11.69493833 -7.98633936 0 0 Z M-19.61328125 40.67578125 C-20.91523437 40.74539062 -22.2171875 40.815 -23.55859375 40.88671875 C-28.10647286 41.36591874 -32.48089785 42.07044949 -36.42578125 44.48828125 C-38.2155048 47.54133907 -37.97109811 49.86071111 -37.48828125 53.30078125 C-34.92912125 56.24769277 -32.97519669 57.16032487 -29.23828125 58.23828125 C-23.33610174 58.33665091 -18.57343321 57.02103162 -13.98828125 53.23828125 C-11.84594843 49.04287948 -11.6691794 44.95890862 -11.48828125 40.30078125 C-14.19582256 40.30078125 -16.912096 40.52248502 -19.61328125 40.67578125 Z " fill="#0D8F6C" transform="translate(795.48828125,53.69921875)"/>
<path d="M0 0 C0.79962158 -0.00563965 1.59924316 -0.0112793 2.4230957 -0.01708984 C10.55037293 0.08186988 18.92507482 1.3495838 25.1953125 6.93359375 C29.69488664 11.61202126 33.375 17.5541486 33.375 24.3125 C26.445 24.3125 19.515 24.3125 12.375 24.3125 C11.715 22.9925 11.055 21.6725 10.375 20.3125 C4.90983262 17.07801318 0.5199707 16.76189992 -5.625 18.3125 C-8.58548102 19.71631035 -8.58548102 19.71631035 -10.625 21.3125 C-10.75940778 23.74169865 -10.75940778 23.74169865 -9.625 26.3125 C-3.95027129 28.84381157 1.66666904 30.07235549 7.75 31.1875 C17.67370644 33.16687868 25.78519279 35.48616915 32.31640625 43.6640625 C35.4831596 48.5953168 34.86754046 54.70182167 34.375 60.3125 C32.61413243 66.97463589 27.97517154 71.54076054 22.375 75.3125 C10.12811132 81.46390527 -3.76768516 82.12480871 -16.8984375 78.35546875 C-23.82123107 75.70735144 -29.14926464 71.98591189 -32.625 65.3125 C-34.10669403 61.60826493 -34.625 59.34350581 -34.625 55.3125 C-31.20878212 55.16710047 -27.79336009 55.07840275 -24.375 55 C-23.40691406 54.95810547 -22.43882812 54.91621094 -21.44140625 54.87304688 C-14.21259152 54.74841214 -14.21259152 54.74841214 -11.0859375 57.75 C-10.60382812 58.595625 -10.12171875 59.44125 -9.625 60.3125 C-5.12772521 63.09022855 0.25499553 62.87594547 5.375 62.3125 C8.8797765 60.98264431 8.8797765 60.98264431 11.375 59.3125 C11.375 57.6625 11.375 56.0125 11.375 54.3125 C6.13408776 51.31025557 0.95919265 50.17994785 -4.875 48.9375 C-24.51435976 44.47846036 -24.51435976 44.47846036 -30.625 35.3125 C-33.46266266 29.20294161 -33.77345655 23.04097753 -31.78515625 16.5859375 C-28.62522039 9.54257878 -24.39009394 5.67706548 -17.5546875 2.28515625 C-11.82476972 0.11896782 -6.05112478 0.04080327 0 0 Z " fill="#0D8F6C" transform="translate(847.625,48.6875)"/>
<path d="M0 0 C1.72089844 -0.02126953 1.72089844 -0.02126953 3.4765625 -0.04296875 C6.375 0.1875 6.375 0.1875 8.375 2.1875 C8.60205078 4.15869141 8.60205078 4.15869141 8.5703125 6.5390625 C8.56386719 7.38984375 8.55742188 8.240625 8.55078125 9.1171875 C8.53402344 10.00664063 8.51726563 10.89609375 8.5 11.8125 C8.49097656 12.7096875 8.48195313 13.606875 8.47265625 14.53125 C8.4490497 16.75026586 8.4161231 18.96875077 8.375 21.1875 C6.6734375 21.10048828 6.6734375 21.10048828 4.9375 21.01171875 C-5.72984985 20.43340072 -5.72984985 20.43340072 -15.27734375 24.60546875 C-18.15704083 27.98598271 -18.87370516 31.73243567 -18.94384766 36.06958008 C-18.96371735 37.01017776 -18.98358704 37.95077545 -19.00405884 38.9198761 C-19.02138565 40.4232679 -19.02138565 40.4232679 -19.0390625 41.95703125 C-19.05842865 42.99317062 -19.0777948 44.02931 -19.0977478 45.09684753 C-19.15740357 48.39781529 -19.20387331 51.69881819 -19.25 55 C-19.28819263 57.24155145 -19.32724511 59.48308842 -19.3671875 61.72460938 C-19.46470789 67.21216317 -19.5443887 72.69956759 -19.625 78.1875 C-26.885 78.1875 -34.145 78.1875 -41.625 78.1875 C-41.625 52.7775 -41.625 27.3675 -41.625 1.1875 C-34.695 1.1875 -27.765 1.1875 -20.625 1.1875 C-20.295 3.8275 -19.965 6.4675 -19.625 9.1875 C-19.068125 8.424375 -18.51125 7.66125 -17.9375 6.875 C-12.78762326 0.89000812 -7.58060898 0.04277996 0 0 Z " fill="#0D8F6C" transform="translate(512.625,48.8125)"/>
</svg>
