<?xml version="1.0" encoding="UTF-8"?>
<svg version="1.1" xmlns="http://www.w3.org/2000/svg" width="450" height="112">
<path d="M0 0 C148.5 0 297 0 450 0 C450 36.96 450 73.92 450 112 C301.5 112 153 112 0 112 C0 75.04 0 38.08 0 0 Z " fill="#FEFEFE" transform="translate(0,0)"/>
<path d="M0 0 C1.32 0.33 2.64 0.66 4 1 C4 1.66 4 2.32 4 3 C4.66 3 5.32 3 6 3 C6 3.66 6 4.32 6 5 C7.65 5 9.3 5 11 5 C11.33 4.01 11.66 3.02 12 2 C12.33 3.65 12.66 5.3 13 7 C14.66611905 7.042721 16.33382885 7.04063832 18 7 C18.33 6.67 18.66 6.34 19 6 C25.10368582 5.01905049 31.93549156 3.97599594 38.015625 5.5078125 C40.30630975 6.16049132 40.30630975 6.16049132 44 6 C44.05437607 7.58294782 44.09296271 9.16644256 44.125 10.75 C44.14820313 11.63171875 44.17140625 12.5134375 44.1953125 13.421875 C43.98870725 16.14906426 43.47305841 17.71315408 42 20 C39.29120665 21.35439668 36.99066732 21.06501451 34 21 C33.505 20.01 33.505 20.01 33 19 C29.28400809 18.79913557 28.22791555 18.8480563 25 21 C21.00453212 21.52114798 19.47680735 21.33169207 16.125 19 C15.42375 18.34 14.7225 17.68 14 17 C14 18.32 14 19.64 14 21 C13.01 21 12.02 21 11 21 C10.71125 20.195625 10.4225 19.39125 10.125 18.5625 C9.26737432 15.8673532 9.26737432 15.8673532 7 15 C7 16.98 7 18.96 7 21 C5.68 21 4.36 21 3 21 C3 21.99 3 22.98 3 24 C1.68 24 0.36 24 -1 24 C-1 23.34 -1 22.68 -1 22 C-1.62648438 21.90203125 -2.25296875 21.8040625 -2.8984375 21.703125 C-3.71570313 21.55359375 -4.53296875 21.4040625 -5.375 21.25 C-6.18710937 21.11078125 -6.99921875 20.9715625 -7.8359375 20.828125 C-10 20 -10 20 -11.29296875 18.140625 C-12.40764641 14.76579981 -11.90996982 12.39722065 -11 9 C-8.6875 6.5625 -8.6875 6.5625 -6 5 C-4.68 5 -3.36 5 -2 5 C-1.67 4.01 -1.34 3.02 -1 2 C-0.67 1.34 -0.34 0.68 0 0 Z " fill="#7791B2" transform="translate(365,80)"/>
<path d="M0 0 C0.495 0.99 0.495 0.99 1 2 C1.99 2.33 2.98 2.66 4 3 C3.505 1.515 3.505 1.515 3 0 C3.66 0 4.32 0 5 0 C5.66 1.32 6.32 2.64 7 4 C10.3 4 13.6 4 17 4 C17 4.99 17 5.98 17 7 C15.02 7 13.04 7 11 7 C11 7.99 11 8.98 11 10 C12.98 10 14.96 10 17 10 C17 10.99 17 11.98 17 13 C15.02 13 13.04 13 11 13 C11 13.99 11 14.98 11 16 C12.98 16 14.96 16 17 16 C17 17.32 17 18.64 17 20 C15.10507254 20.19644384 13.20899097 20.38177288 11.3125 20.5625 C10.25675781 20.66691406 9.20101562 20.77132812 8.11328125 20.87890625 C5 21 5 21 2.23046875 20.40234375 C1.49441406 20.26957031 0.75835937 20.13679688 0 20 C-0.66 20.66 -1.32 21.32 -2 22 C-4.625 22.125 -4.625 22.125 -7 22 C-7.33 21.34 -7.66 20.68 -8 20 C-8.61875 20.185625 -9.2375 20.37125 -9.875 20.5625 C-14.38054168 21.19327584 -18.48566731 20.54171992 -23 20 C-23 15.71 -23 11.42 -23 7 C-28.31925322 7.05754492 -28.31925322 7.05754492 -33 9 C-33.04063832 10.66617115 -33.042721 12.33388095 -33 14 C-30.525 14.99 -30.525 14.99 -28 16 C-28 15.01 -28 14.02 -28 13 C-28.66 13 -29.32 13 -30 13 C-29.67 12.01 -29.34 11.02 -29 10 C-27.35 10 -25.7 10 -24 10 C-23.90234375 16.15234375 -23.90234375 16.15234375 -24 18 C-25 19 -25 19 -28.3125 19.1875 C-31.65077479 19.01775721 -33.30825025 18.86351906 -36 17 C-37.54586876 13.90826248 -37.29359521 11.40570448 -37 8 C-35.62109375 5.7890625 -35.62109375 5.7890625 -33 4 C-29.57069201 3.50841647 -26.20517772 3.6241812 -22.75 3.75 C-21.81414062 3.76804687 -20.87828125 3.78609375 -19.9140625 3.8046875 C-17.60832985 3.85174327 -15.30469055 3.91746287 -13 4 C-12.67 4.66 -12.34 5.32 -12 6 C-11.67 5.34 -11.34 4.68 -11 4 C-4.25 3.875 -4.25 3.875 -2 5 C-1.855625 4.360625 -1.71125 3.72125 -1.5625 3.0625 C-1 1 -1 1 0 0 Z " fill="#F2F8F5" transform="translate(302,82)"/>
<path d="M0 0 C0.66 0.33 1.32 0.66 2 1 C1.67 1.66 1.34 2.32 1 3 C1.56203125 2.82597656 2.1240625 2.65195313 2.703125 2.47265625 C5.24556755 1.94946654 7.18452337 2.09795162 9.75 2.4375 C10.94882812 2.59025391 10.94882812 2.59025391 12.171875 2.74609375 C12.77515625 2.82988281 13.3784375 2.91367188 14 3 C14.33 2.34 14.66 1.68 15 1 C15.33 1.33 15.66 1.66 16 2 C17.34747084 2.23075082 18.70377565 2.41153063 20.0625 2.5625 C21.361875 2.706875 22.66125 2.85125 24 3 C24.81832722 4.89332534 25.62942268 6.78977733 26.4375 8.6875 C27.11619141 10.27111328 27.11619141 10.27111328 27.80859375 11.88671875 C28.85447455 14.61972529 29.53520748 17.12042337 30 20 C27.91835982 20.36398622 25.83459438 20.71583287 23.75 21.0625 C22.00976562 21.35833984 22.00976562 21.35833984 20.234375 21.66015625 C17.31401744 21.96700541 15.73401539 21.82513077 13 21 C12.175 21.185625 11.35 21.37125 10.5 21.5625 C8 22 8 22 4 20 C4 16.37 4 12.74 4 9 C2.68 9 1.36 9 0 9 C0 7.02 0 5.04 0 3 C-0.66 2.67 -1.32 2.34 -2 2 C-1.34 1.34 -0.68 0.68 0 0 Z " fill="#E8F1F5" transform="translate(27,82)"/>
<path d="M0 0 C1.98 0 3.96 0 6 0 C6.67154933 1.28913487 7.33708859 2.58140204 8 3.875 C8.37125 4.59429687 8.7425 5.31359375 9.125 6.0546875 C10 8 10 8 10 10 C12.93638223 9.43968727 12.93638223 9.43968727 16 8 C17.72512465 5.04990627 17.72512465 5.04990627 19 2 C22.22791555 -0.1519437 23.28400809 -0.20086443 27 0 C27.495 1.485 27.495 1.485 28 3 C26.02 3 24.04 3 22 3 C23.50663783 6.01327566 26.03166411 6.61056618 29 8 C29.1875 10.375 29.1875 10.375 29 13 C25.3558226 15.4294516 23.28758728 15.16179575 19 15 C19 13.68 19 12.36 19 11 C19.66 11 20.32 11 21 11 C21 10.34 21 9.68 21 9 C19.68 9.33 18.36 9.66 17 10 C16.896875 10.61875 16.79375 11.2375 16.6875 11.875 C16 14 16 14 13 16 C10.87890625 16.23046875 10.87890625 16.23046875 8.5625 16.1875 C7.80066406 16.18105469 7.03882812 16.17460938 6.25390625 16.16796875 C4.05600603 16.00417376 2.12665916 15.55478065 0 15 C-1.66623639 14.96213099 -3.33397597 14.95372155 -5 15 C-3.97137215 9.55432314 -2.75385216 4.88182883 0 0 Z " fill="#E5F0F5" transform="translate(74,86)"/>
<path d="M0 0 C1.37865234 -0.01063477 1.37865234 -0.01063477 2.78515625 -0.02148438 C7.84252991 0.02678718 7.84252991 0.02678718 9.875 0.4375 C12.22619399 3.96429099 12.08943452 5.46629485 12 9.625 C11.98195313 10.71167969 11.96390625 11.79835938 11.9453125 12.91796875 C11.92210937 13.74941406 11.89890625 14.58085938 11.875 15.4375 C12.865 15.7675 13.855 16.0975 14.875 16.4375 C9.79250205 17.96224938 5.05567268 17.05918072 -0.125 16.4375 C-0.125 12.1475 -0.125 7.8575 -0.125 3.4375 C-5.44425322 3.49504492 -5.44425322 3.49504492 -10.125 5.4375 C-10.16563832 7.10367115 -10.167721 8.77138095 -10.125 10.4375 C-7.65 11.4275 -7.65 11.4275 -5.125 12.4375 C-5.125 11.4475 -5.125 10.4575 -5.125 9.4375 C-5.785 9.4375 -6.445 9.4375 -7.125 9.4375 C-6.795 8.4475 -6.465 7.4575 -6.125 6.4375 C-4.475 6.4375 -2.825 6.4375 -1.125 6.4375 C-1.02734375 12.58984375 -1.02734375 12.58984375 -1.125 14.4375 C-2.125 15.4375 -2.125 15.4375 -5.4375 15.625 C-8.77577479 15.45525721 -10.43325025 15.30101906 -13.125 13.4375 C-14.67086876 10.34576248 -14.41859521 7.84320448 -14.125 4.4375 C-10.73245367 -0.94279179 -5.71461364 -0.12528502 0 0 Z " fill="#E6F0F4" transform="translate(279.125,85.5625)"/>
<path d="M0 0 C1.43931117 0.45261358 2.87638999 0.91232979 4.3125 1.375 C5.11300781 1.63023438 5.91351563 1.88546875 6.73828125 2.1484375 C9 3 9 3 12 5 C11.814375 6.03125 11.62875 7.0625 11.4375 8.125 C11.02692918 11.76148442 11.221691 14.45437009 12 18 C11.01 18 10.02 18 9 18 C8.71125 17.195625 8.4225 16.39125 8.125 15.5625 C7.26737432 12.8673532 7.26737432 12.8673532 5 12 C5 13.98 5 15.96 5 18 C2.69 18 0.38 18 -2 18 C-2.33 18.99 -2.66 19.98 -3 21 C-4.32 20.34 -5.64 19.68 -7 19 C-7 14.71 -7 10.42 -7 6 C-8.32 6 -9.64 6 -11 6 C-11 5.01 -11 4.02 -11 3 C-7.37 3 -3.74 3 0 3 C0 2.01 0 1.02 0 0 Z " fill="#F0F6F8" transform="translate(115,83)"/>
<path d="M0 0 C1.65 0 3.3 0 5 0 C5.99 1.98 6.98 3.96 8 6 C8.33 4.02 8.66 2.04 9 0 C14.28 0 19.56 0 25 0 C25 0.99 25 1.98 25 3 C23.68 3 22.36 3 21 3 C21 6.96 21 10.92 21 15 C19.35 15 17.7 15 16 15 C15.67 14.67 15.34 14.34 15 14 C14.01 14.495 14.01 14.495 13 15 C12.67 15.99 12.34 16.98 12 18 C7.52457784 15.44261591 6.01876369 11.5207421 4 7 C3.67 9.64 3.34 12.28 3 15 C2.01 15 1.02 15 0 15 C0 10.05 0 5.1 0 0 Z " fill="#B9CADA" transform="translate(321,86)"/>
<path d="M0 0 C2.9375 2.0625 2.9375 2.0625 5 4 C5 4.66 5 5.32 5 6 C-0.94 5.67 -6.88 5.34 -13 5 C-13.33 11.93 -13.66 18.86 -14 26 C-14.66 26 -15.32 26 -16 26 C-16 18.74 -16 11.48 -16 4 C-18.02125 4.33 -20.0425 4.66 -22.125 5 C-26.47876861 5.71081936 -30.58732418 6.10729911 -35 6 C-28.20774676 -5.11459621 -10.47543054 -6.24068202 0 0 Z " fill="#375D91" transform="translate(239,23)"/>
<path d="M0 0 C0 5.28 0 10.56 0 16 C-14.33035714 15.59821429 -14.33035714 15.59821429 -17.375 12.8125 C-19.33331384 9.42311066 -19.89738239 7.83427022 -19 4 C-13.79973138 -1.64600593 -7.22283135 -0.29480944 0 0 Z " fill="#E0EBF2" transform="translate(183,86)"/>
<path d="M0 0 C1.32 0.33 2.64 0.66 4 1 C4 1.66 4 2.32 4 3 C4.66 3 5.32 3 6 3 C6 3.66 6 4.32 6 5 C7.65 5 9.3 5 11 5 C11.33 4.01 11.66 3.02 12 2 C12.33 3.32 12.66 4.64 13 6 C9.7 6 6.4 6 3 6 C3 11.94 3 17.88 3 24 C1.68 24 0.36 24 -1 24 C-1 23.34 -1 22.68 -1 22 C-1.62648438 21.90203125 -2.25296875 21.8040625 -2.8984375 21.703125 C-3.71570313 21.55359375 -4.53296875 21.4040625 -5.375 21.25 C-6.18710937 21.11078125 -6.99921875 20.9715625 -7.8359375 20.828125 C-10 20 -10 20 -11.29296875 18.140625 C-12.40764641 14.76579981 -11.90996982 12.39722065 -11 9 C-8.6875 6.5625 -8.6875 6.5625 -6 5 C-4.68 5 -3.36 5 -2 5 C-1.67 4.01 -1.34 3.02 -1 2 C-0.67 1.34 -0.34 0.68 0 0 Z " fill="#F5F9FA" transform="translate(365,80)"/>
<path d="M0 0 C7.26 0 14.52 0 22 0 C22 0.99 22 1.98 22 3 C20.02 3 18.04 3 16 3 C16 3.99 16 4.98 16 6 C17.65 6 19.3 6 21 6 C21 6.99 21 7.98 21 9 C19.35 9 17.7 9 16 9 C16 9.99 16 10.98 16 12 C17.98 12 19.96 12 22 12 C22 12.99 22 13.98 22 15 C19.36 15.33 16.72 15.66 14 16 C14.33 16.66 14.66 17.32 15 18 C14.01 18 13.02 18 12 18 C11.67 17.34 11.34 16.68 11 16 C8.67843403 15.59270772 6.3431213 15.25561323 4 15 C4 11.04 4 7.08 4 3 C2.68 3 1.36 3 0 3 C0 2.01 0 1.02 0 0 Z " fill="#F9FBF9" transform="translate(141,86)"/>
<path d="M0 0 C1.89492187 0.01353516 1.89492187 0.01353516 3.828125 0.02734375 C4.79234375 0.03894531 5.7565625 0.05054687 6.75 0.0625 C5.97095672 11.58414009 5.97095672 11.58414009 3.75 17.0625 C-1.69369955 16.92640751 -4.74565879 14.66803326 -8.61328125 11.1171875 C-11.24066001 7.81885521 -11.25 5.21114658 -11.25 1.0625 C-7.49600202 -0.1414337 -3.91782588 -0.03627617 0 0 Z " fill="#275494" transform="translate(213.25,30.9375)"/>
<path d="M0 0 C1.89575251 -0.02721176 3.79161979 -0.04649136 5.6875 -0.0625 C6.74324219 -0.07410156 7.79898438 -0.08570312 8.88671875 -0.09765625 C11.72410262 -0.00865425 14.2438919 0.35060162 17 1 C17.35028885 4.67803287 17.11347493 6.7635939 15.5 10.125 C12.45762394 13.62373247 9.36072594 15.47777534 5 17 C4.01 17 3.02 17 2 17 C0.7017874 11.23918159 -0.25706972 5.91260345 0 0 Z " fill="#2A5492" transform="translate(229,31)"/>
<path d="M0 0 C0.77085937 -0.00257812 1.54171875 -0.00515625 2.3359375 -0.0078125 C4.56636849 0.12159817 6.46599714 0.58309888 8.625 1.125 C9.945 1.125 11.265 1.125 12.625 1.125 C12.67937607 2.70794782 12.71796271 4.29144256 12.75 5.875 C12.77320313 6.75671875 12.79640625 7.6384375 12.8203125 8.546875 C12.61370725 11.27406426 12.09805841 12.83815408 10.625 15.125 C7.91620665 16.47939668 5.61566732 16.19001451 2.625 16.125 C2.295 15.465 1.965 14.805 1.625 14.125 C-0.39963255 13.47286708 -0.39963255 13.47286708 -2.375 13.125 C-2.41238281 12.51011719 -2.44976562 11.89523438 -2.48828125 11.26171875 C-2.55402344 10.45347656 -2.61976563 9.64523438 -2.6875 8.8125 C-2.74550781 8.01199219 -2.80351562 7.21148437 -2.86328125 6.38671875 C-3.45706694 3.76227666 -4.33280294 2.81679328 -6.375 1.125 C-4.03562093 -0.04468953 -2.60130632 -0.00864221 0 0 Z " fill="#F3F9FA" transform="translate(396.375,84.875)"/>
<path d="M0 0 C13.2609743 0.19298715 13.2609743 0.19298715 17.125 2.125 C17.125 3.115 17.125 4.105 17.125 5.125 C11.515 4.795 5.905 4.465 0.125 4.125 C0.785 9.735 1.445 15.345 2.125 21.125 C0.145 21.455 -1.835 21.785 -3.875 22.125 C-3.90387814 18.64585059 -3.92175687 15.16673169 -3.9375 11.6875 C-3.94587891 10.69427734 -3.95425781 9.70105469 -3.96289062 8.67773438 C-3.96611328 7.73349609 -3.96933594 6.78925781 -3.97265625 5.81640625 C-3.97789307 4.94185791 -3.98312988 4.06730957 -3.98852539 3.16625977 C-3.8080254 -0.07924653 -3.29688158 0.14334268 0 0 Z " fill="#C3D1DE" transform="translate(228.875,26.875)"/>
<path d="M0 0 C1.65 0 3.3 0 5 0 C5 4.95 5 9.9 5 15 C4.01 15 3.02 15 2 15 C1.67 12.03 1.34 9.06 1 6 C0.01 8.97 -0.98 11.94 -2 15 C-2.99 15 -3.98 15 -5 15 C-5.66 12.36 -6.32 9.72 -7 7 C-7.33 9.64 -7.66 12.28 -8 15 C-8.99 15 -9.98 15 -11 15 C-11.08333357 10.1666528 -10.95261487 5.76307437 -10 1 C-8.35 1 -6.7 1 -5 1 C-4.67 3.31 -4.34 5.62 -4 8 C-3.34 8 -2.68 8 -2 8 C-1.7834375 6.576875 -1.7834375 6.576875 -1.5625 5.125 C-1 2 -1 2 0 0 Z " fill="#456491" transform="translate(215,86)"/>
<path d="M0 0 C2.31 0 4.62 0 7 0 C7.83739781 2.1234016 8.66980283 4.2487728 9.5 6.375 C9.9640625 7.55835937 10.428125 8.74171875 10.90625 9.9609375 C12 13 12 13 12 15 C10.02 15 8.04 15 6 15 C5.01 12.69 4.02 10.38 3 8 C2.34 10.31 1.68 12.62 1 15 C-0.98 15 -2.96 15 -5 15 C-1.92482916 4.44191344 -1.92482916 4.44191344 0 0 Z " fill="#365B91" transform="translate(45,86)"/>
<path d="M0 0 C1.98 0 3.96 0 6 0 C8.25861997 4.93387858 10.40109514 9.80355921 12 15 C10.02 15 8.04 15 6 15 C5.01 12.69 4.02 10.38 3 8 C2.01 10.31 1.02 12.62 0 15 C-1.65 15 -3.3 15 -5 15 C-4.37321829 11.33827525 -3.35548154 8.1181005 -1.9375 4.6875 C-1.39416016 3.36298828 -1.39416016 3.36298828 -0.83984375 2.01171875 C-0.56269531 1.34785156 -0.28554687 0.68398438 0 0 Z " fill="#365B90" transform="translate(213,56)"/>
<path d="M0 0 C1.98 0 3.96 0 6 0 C8.81532819 5.04140164 10.5188509 9.22621075 11 15 C9.35 15 7.7 15 6 15 C4.74335022 12.09399739 4 10.20395416 4 7 C3.34 7 2.68 7 2 7 C1.855625 8.134375 1.71125 9.26875 1.5625 10.4375 C1 14 1 14 0 15 C-1.66617115 15.04063832 -3.33388095 15.042721 -5 15 C-3.97137215 9.55432314 -2.75385216 4.88182883 0 0 Z " fill="#2A538E" transform="translate(74,86)"/>
<path d="M0 0 C1.98 0 3.96 0 6 0 C6.83986084 1.93467942 7.67168027 3.87285129 8.5 5.8125 C8.9640625 6.89144531 9.428125 7.97039063 9.90625 9.08203125 C11 12 11 12 11 15 C9.35 15 7.7 15 6 15 C4.74335022 12.09399739 4 10.20395416 4 7 C3.34 7 2.68 7 2 7 C1.855625 7.94875 1.71125 8.8975 1.5625 9.875 C1 13 1 13 0 15 C-1.65 15 -3.3 15 -5 15 C-4.43174347 9.45949887 -2.37113483 4.96284034 0 0 Z " fill="#305892" transform="translate(242,56)"/>
<path d="M0 0 C1.65 0 3.3 0 5 0 C5 4.95 5 9.9 5 15 C4.01 15 3.02 15 2 15 C1.67 12.03 1.34 9.06 1 6 C0.34 8.97 -0.32 11.94 -1 15 C-2.32 15 -3.64 15 -5 15 C-5.33 11.37 -5.66 7.74 -6 4 C-6.66 4 -7.32 4 -8 4 C-8 7.3 -8 10.6 -8 14 C-8.66 14 -9.32 14 -10 14 C-10 9.71 -10 5.42 -10 1 C-7.525 1.495 -7.525 1.495 -5 2 C-4.67 3.98 -4.34 5.96 -4 8 C-3.34 8 -2.68 8 -2 8 C-1.34 5.36 -0.68 2.72 0 0 Z " fill="#466693" transform="translate(302,86)"/>
<path d="M0 0 C4.62 0 9.24 0 14 0 C14 1.65 14 3.3 14 5 C12.68 5 11.36 5 10 5 C10 8.3 10 11.6 10 15 C8.02 15 6.04 15 4 15 C4 11.7 4 8.4 4 5 C2.68 5 1.36 5 0 5 C0 3.35 0 1.7 0 0 Z " fill="#5574A0" transform="translate(56,86)"/>
<path d="M0 0 C4.62 0 9.24 0 14 0 C14 1.65 14 3.3 14 5 C12.68 5 11.36 5 10 5 C10 8.3 10 11.6 10 15 C8.02 15 6.04 15 4 15 C4 11.7 4 8.4 4 5 C2.68 5 1.36 5 0 5 C0 3.35 0 1.7 0 0 Z " fill="#4A6991" transform="translate(27,86)"/>
<path d="M0 0 C4.62 0 9.24 0 14 0 C14 1.65 14 3.3 14 5 C12.68 5 11.36 5 10 5 C10 8.3 10 11.6 10 15 C8.02 15 6.04 15 4 15 C4 11.7 4 8.4 4 5 C2.68 5 1.36 5 0 5 C0 3.35 0 1.7 0 0 Z " fill="#4E6E9A" transform="translate(195,56)"/>
<path d="M0 0 C4.62 0 9.24 0 14 0 C14 1.65 14 3.3 14 5 C12.68 5 11.36 5 10 5 C10 8.3 10 11.6 10 15 C8.02 15 6.04 15 4 15 C4 11.7 4 8.4 4 5 C2.68 5 1.36 5 0 5 C0 3.35 0 1.7 0 0 Z " fill="#4A6C9C" transform="translate(224,56)"/>
<path d="M0 0 C0.99 0 1.98 0 3 0 C3 4.95 3 9.9 3 15 C1.68 15 0.36 15 -1 15 C-2.98 11.535 -2.98 11.535 -5 8 C-5.33 10.31 -5.66 12.62 -6 15 C-6.99 15 -7.98 15 -9 15 C-9 10.38 -9 5.76 -9 1 C-6.525 1.495 -6.525 1.495 -4 2 C-2.1875 5.0625 -2.1875 5.0625 -1 8 C-0.67 5.36 -0.34 2.72 0 0 Z " fill="#436491" transform="translate(246,86)"/>
<path d="M0 0 C0.22203245 13.5439795 0.22203245 13.5439795 -1 20 C-1.66 20.33 -2.32 20.66 -3 21 C-3.33 20.34 -3.66 19.68 -4 19 C-4.66 19.66 -5.32 20.32 -6 21 C-5.68853528 19.10399631 -5.37578283 17.20820413 -5.0625 15.3125 C-4.80146484 13.72888672 -4.80146484 13.72888672 -4.53515625 12.11328125 C-4.06886987 9.40065172 -3.53979276 6.69896382 -3 4 C-11.415 4.495 -11.415 4.495 -20 5 C-20 3.68 -20 2.36 -20 1 C-6.3667426 -0.14806378 -6.3667426 -0.14806378 0 0 Z " fill="#DBE5EC" transform="translate(223,27)"/>
<path d="M0 0 C7 0 7 0 10 2 C9.814375 3.03125 9.62875 4.0625 9.4375 5.125 C9.02692918 8.76148442 9.221691 11.45437009 10 15 C9.01 15 8.02 15 7 15 C6.71125 14.195625 6.4225 13.39125 6.125 12.5625 C5.26737432 9.8673532 5.26737432 9.8673532 3 9 C3 10.98 3 12.96 3 15 C2.01 15 1.02 15 0 15 C0 10.05 0 5.1 0 0 Z " fill="#3A5D8B" transform="translate(117,86)"/>
<path d="M0 0 C0.33 0.99 0.66 1.98 1 3 C-0.7015625 3.2165625 -0.7015625 3.2165625 -2.4375 3.4375 C-5.80777201 3.61171478 -5.80777201 3.61171478 -7 5 C-7.04063832 6.66617115 -7.042721 8.33388095 -7 10 C-4.525 10.99 -4.525 10.99 -2 12 C-2 11.01 -2 10.02 -2 9 C-2.66 9 -3.32 9 -4 9 C-3.67 8.01 -3.34 7.02 -3 6 C-1.35 6 0.3 6 2 6 C2.09765625 12.15234375 2.09765625 12.15234375 2 14 C1 15 1 15 -2.3125 15.1875 C-5.65077479 15.01775721 -7.30825025 14.86351906 -10 13 C-11.54586876 9.90826248 -11.29359521 7.40570448 -11 4 C-8.07275826 -0.56649711 -5.15004683 -0.39615745 0 0 Z " fill="#325584" transform="translate(276,86)"/>
<path d="M0 0 C1.65 0 3.3 0 5 0 C6.32 2.97 7.64 5.94 9 9 C9.33 6.36 9.66 3.72 10 1 C10.66 1 11.32 1 12 1 C12 5.62 12 10.24 12 15 C10.68 15 9.36 15 8 15 C6.68 12.36 5.36 9.72 4 7 C3.67 9.64 3.34 12.28 3 15 C2.01 15 1.02 15 0 15 C0 10.05 0 5.1 0 0 Z " fill="#3B5B8C" transform="translate(321,86)"/>
<path d="M0 0 C1.65 0.33 3.3 0.66 5 1 C5.67031719 2.9570868 6.33614683 4.91571113 7 6.875 C7.556875 8.51082031 7.556875 8.51082031 8.125 10.1796875 C9 13 9 13 9 15 C7.68 15 6.36 15 5 15 C4.67 14.01 4.34 13.02 4 12 C2.68 12 1.36 12 0 12 C-0.33 12.99 -0.66 13.98 -1 15 C-1.99 15 -2.98 15 -4 15 C-3.43179252 9.54520815 -2.05362055 5.08940744 0 0 Z " fill="#3C5E8C" transform="translate(226,86)"/>
<path d="M0 0 C0 0.99 0 1.98 0 3 C-2.31 3.33 -4.62 3.66 -7 4 C-7.33 6.31 -7.66 8.62 -8 11 C-5.03 11.495 -5.03 11.495 -2 12 C-2 11.01 -2 10.02 -2 9 C-2.99 9 -3.98 9 -5 9 C-5 8.34 -5 7.68 -5 7 C-3.02 7 -1.04 7 1 7 C1 9.64 1 12.28 1 15 C-0.43655854 15.08131463 -1.8744483 15.13933559 -3.3125 15.1875 C-4.51326172 15.23970703 -4.51326172 15.23970703 -5.73828125 15.29296875 C-8 15 -8 15 -9.73828125 13.66796875 C-11.64844032 11.14277394 -11.87453116 9.13672108 -12 6 C-9.08888999 -0.23809288 -6.58298115 -0.12190706 0 0 Z " fill="#395A8E" transform="translate(365,86)"/>
<path d="M0 0 C3.3 0 6.6 0 10 0 C10 0.99 10 1.98 10 3 C8.02 3 6.04 3 4 3 C4 3.99 4 4.98 4 6 C5.65 6 7.3 6 9 6 C9 6.99 9 7.98 9 9 C7.35 9 5.7 9 4 9 C4 9.99 4 10.98 4 12 C5.98 12 7.96 12 10 12 C10 12.99 10 13.98 10 15 C6.7 15 3.4 15 0 15 C0 10.05 0 5.1 0 0 Z " fill="#647DA0" transform="translate(153,86)"/>
<path d="M0 0 C1.65 0 3.3 0 5 0 C5.508783 1.55966218 6.00663469 3.12289241 6.5 4.6875 C6.7784375 5.55761719 7.056875 6.42773438 7.34375 7.32421875 C7.99850805 9.99391677 8.11831495 12.26396684 8 15 C7.01 15 6.02 15 5 15 C5 13.68 5 12.36 5 11 C3.35 11 1.7 11 0 11 C-0.33 12.32 -0.66 13.64 -1 15 C-1.99 15 -2.98 15 -4 15 C-2.07289294 4.44191344 -2.07289294 4.44191344 0 0 Z " fill="#385A8A" transform="translate(133,86)"/>
<path d="M0 0 C1.65 0 3.3 0 5 0 C5.6700834 2.12392506 6.33596797 4.24917524 7 6.375 C7.37125 7.55835937 7.7425 8.74171875 8.125 9.9609375 C9 13 9 13 9 15 C7.68 15 6.36 15 5 15 C5 13.68 5 12.36 5 11 C3.35 11 1.7 11 0 11 C-0.33 12.32 -0.66 13.64 -1 15 C-1.99 15 -2.98 15 -4 15 C-3.32584613 9.7415998 -1.75734451 4.97361654 0 0 Z " fill="#426390" transform="translate(255,86)"/>
<path d="M0 0 C0.66 0.99 1.32 1.98 2 3 C4.05003955 4.19232613 4.05003955 4.19232613 6 5 C5.01 5.33 4.02 5.66 3 6 C3 8.97 3 11.94 3 15 C0 12 0 12 -0.9375 9.875 C-1.288125 9.25625 -1.63875 8.6375 -2 8 C-3.32 7.67 -4.64 7.34 -6 7 C-6 11.62 -6 16.24 -6 21 C-6.33 19.68 -6.66 18.36 -7 17 C-7.99 16.67 -8.98 16.34 -10 16 C-10.33 14.35 -10.66 12.7 -11 11 C-10.01 11 -9.02 11 -8 11 C-8.33 8.69 -8.66 6.38 -9 4 C-8.01 4.33 -7.02 4.66 -6 5 C-5.34 3.68 -4.68 2.36 -4 1 C-3.34 1.66 -2.68 2.32 -2 3 C-1.34 2.01 -0.68 1.02 0 0 Z " fill="#F5F8F8" transform="translate(243,80)"/>
<path d="M0 0 C0 0.99 0 1.98 0 3 C-2.31 3 -4.62 3 -7 3 C-7 5.64 -7 8.28 -7 11 C-5.35 11.33 -3.7 11.66 -2 12 C-2 11.01 -2 10.02 -2 9 C-2.66 9 -3.32 9 -4 9 C-4 8.34 -4 7.68 -4 7 C-2.35 7 -0.7 7 1 7 C1 9.64 1 12.28 1 15 C-6.14514693 15.60552093 -6.14514693 15.60552093 -10 12.875 C-12 10 -12 10 -12.6875 6.9375 C-12 4 -12 4 -9.375 1.625 C-5.86465013 -0.06516845 -3.83246777 -0.36499693 0 0 Z " fill="#466591" transform="translate(176,86)"/>
<path d="M0 0 C7 0 7 0 9.4375 2 C10.2109375 2.99 10.2109375 2.99 11 4 C10.3125 6.4375 10.3125 6.4375 9 9 C6.375 9.8125 6.375 9.8125 4 10 C3.67 11.65 3.34 13.3 3 15 C2.01 15 1.02 15 0 15 C0 10.05 0 5.1 0 0 Z " fill="#3E5F8E" transform="translate(411,86)"/>
<path d="M0 0 C0.33 0.66 0.66 1.32 1 2 C1.66 2 2.32 2 3 2 C2.52396226 4.12570312 2.04407402 6.25054427 1.5625 8.375 C1.29566406 9.55835937 1.02882812 10.74171875 0.75390625 11.9609375 C0 15 0 15 -1 17 C-0.01 17 0.98 17 2 17 C2.33 15.68 2.66 14.36 3 13 C4.65 13 6.3 13 8 13 C7.67 14.98 7.34 16.96 7 19 C3.62058652 20.12647116 2.39092328 19.80736269 -1 19 C-1.928125 18.814375 -2.85625 18.62875 -3.8125 18.4375 C-4.534375 18.293125 -5.25625 18.14875 -6 18 C-5.01 17.67 -4.02 17.34 -3 17 C-3.350625 15.783125 -3.70125 14.56625 -4.0625 13.3125 C-4.93456352 9.87913104 -5.07703169 7.44650141 -4 4 C-3.01 4 -2.02 4 -1 4 C-0.67 2.68 -0.34 1.36 0 0 Z " fill="#E5EEF2" transform="translate(130,84)"/>
<path d="M0 0 C1.32 0 2.64 0 4 0 C4.05437607 1.58294782 4.09296271 3.16644256 4.125 4.75 C4.14820313 5.63171875 4.17140625 6.5134375 4.1953125 7.421875 C3.98870725 10.14906426 3.47305841 11.71315408 2 14 C-0.78863007 15.39431504 -2.92078868 15.25660094 -6 15 C-8.28062828 11.57905758 -8.21925007 10.31812778 -8.125 6.3125 C-8.10695313 5.31863281 -8.08890625 4.32476562 -8.0703125 3.30078125 C-8.04710937 2.54152344 -8.02390625 1.78226562 -8 1 C-7.01 1 -6.02 1 -5 1 C-4.67 4.3 -4.34 7.6 -4 11 C-2.68 11.33 -1.36 11.66 0 12 C0 8.04 0 4.08 0 0 Z " fill="#3A5A8B" transform="translate(405,86)"/>
<path d="M0 0 C2.97 0 5.94 0 9 0 C9 0.99 9 1.98 9 3 C7.02 3 5.04 3 3 3 C3 3.99 3 4.98 3 6 C4.98 6 6.96 6 9 6 C9 6.99 9 7.98 9 9 C7.02 9 5.04 9 3 9 C3 9.99 3 10.98 3 12 C4.98 12 6.96 12 9 12 C9 12.99 9 13.98 9 15 C6.03 15 3.06 15 0 15 C0 10.05 0 5.1 0 0 Z " fill="#547199" transform="translate(310,86)"/>
<path d="M0 0 C2.97 0 5.94 0 9 0 C9 0.99 9 1.98 9 3 C7.02 3 5.04 3 3 3 C3 3.99 3 4.98 3 6 C4.98 6 6.96 6 9 6 C9 6.99 9 7.98 9 9 C7.02 9 5.04 9 3 9 C3 9.99 3 10.98 3 12 C4.98 12 6.96 12 9 12 C9 12.99 9 13.98 9 15 C6.03 15 3.06 15 0 15 C0 10.05 0 5.1 0 0 Z " fill="#486793" transform="translate(280,86)"/>
<path d="M0 0 C1.98 0 3.96 0 6 0 C5.67 0.66 5.34 1.32 5 2 C3.68 1.67 2.36 1.34 1 1 C1 5.29 1 9.58 1 14 C1.66 14 2.32 14 3 14 C3 10.7 3 7.4 3 4 C3.66 4 4.32 4 5 4 C5.33 7.63 5.66 11.26 6 15 C7.32 15 8.64 15 10 15 C10.04898437 14.37351562 10.09796875 13.74703125 10.1484375 13.1015625 C10.22320312 12.28429687 10.29796875 11.46703125 10.375 10.625 C10.47941406 9.40683594 10.47941406 9.40683594 10.5859375 8.1640625 C11 6 11 6 13 4 C13.10815225 5.76949095 13.18566083 7.54087487 13.25 9.3125 C13.29640625 10.29863281 13.3428125 11.28476563 13.390625 12.30078125 C13 15 13 15 11.15625 16.84375 C8.58940917 18.22017189 6.87176585 18.23931382 4 18 C4 17.01 4 16.02 4 15 C2.68 15 1.36 15 0 15 C0 10.05 0 5.1 0 0 Z " fill="#BAC9D8" transform="translate(291,86)"/>
<path d="M0 0 C0.66 0.99 1.32 1.98 2 3 C1.175 3.37125 0.35 3.7425 -0.5 4.125 C-3.29059534 5.78180903 -3.29059534 5.78180903 -3.5625 8.875 C-2.89516381 12.58242327 -1.55326464 14.28715632 1 17 C-1.88415883 18.44207941 -4.41721528 18.09394887 -7.625 18.0625 C-8.81351563 18.05347656 -10.00203125 18.04445313 -11.2265625 18.03515625 C-12.14179688 18.02355469 -13.05703125 18.01195313 -14 18 C-14 17.67 -14 17.34 -14 17 C-11.03 17 -8.06 17 -5 17 C-5 16.01 -5 15.02 -5 14 C-6.98 14 -8.96 14 -11 14 C-11 13.01 -11 12.02 -11 11 C-9.35 11 -7.7 11 -6 11 C-6 10.01 -6 9.02 -6 8 C-7.65 8 -9.3 8 -11 8 C-11 7.01 -11 6.02 -11 5 C-9.9275 4.731875 -8.855 4.46375 -7.75 4.1875 C-4.43491072 3.13772173 -2.56122354 2.25387672 0 0 Z " fill="#EAF2F7" transform="translate(168,84)"/>
<path d="M0 0 C0.33 0.99 0.66 1.98 1 3 C-0.98 3 -2.96 3 -5 3 C-3.49336217 6.01327566 -0.96833589 6.61056618 2 8 C2.1875 10.375 2.1875 10.375 2 13 C-1.6441774 15.4294516 -3.71241272 15.16179575 -8 15 C-8 14.01 -8 13.02 -8 12 C-6.02 12 -4.04 12 -2 12 C-2 11.01 -2 10.02 -2 9 C-2.804375 8.855625 -3.60875 8.71125 -4.4375 8.5625 C-7 8 -7 8 -8 7 C-8.25 4.5625 -8.25 4.5625 -8 2 C-4.77208445 -0.1519437 -3.71599191 -0.20086443 0 0 Z " fill="#3C5F8D" transform="translate(101,86)"/>
<path d="M0 0 C0 0.99 0 1.98 0 3 C-1.98 3.33 -3.96 3.66 -6 4 C-7.00217064 7.58327753 -7.00217064 7.58327753 -6 11 C-2.97065509 11.65772428 -2.97065509 11.65772428 0 12 C0 12.99 0 13.98 0 15 C-6.25 15.48076923 -6.25 15.48076923 -9.4375 13.4375 C-11.60396028 10.05782196 -11.56288002 7.94016013 -11 4 C-8.07275826 -0.56649711 -5.15004683 -0.39615745 0 0 Z " fill="#49658D" transform="translate(196,86)"/>
<path d="M0 0 C6.0546875 -0.1953125 6.0546875 -0.1953125 8 0 C8.66 0.66 9.32 1.32 10 2 C9.625 4.125 9.625 4.125 9 6 C8.34 5.34 7.68 4.68 7 4 C7 3.01 7 2.02 7 1 C5.68 1.33 4.36 1.66 3 2 C2.67 3.32 2.34 4.64 2 6 C3.32 6 4.64 6 6 6 C6 6.66 6 7.32 6 8 C6.99 8 7.98 8 9 8 C9.33 9.98 9.66 11.96 10 14 C9.01 14 8.02 14 7 14 C6.71125 13.195625 6.4225 12.39125 6.125 11.5625 C5.26737432 8.8673532 5.26737432 8.8673532 3 8 C3 9.98 3 11.96 3 14 C2.01 14 1.02 14 0 14 C0 9.38 0 4.76 0 0 Z " fill="#2A4B7C" transform="translate(369,87)"/>
<path d="M0 0 C-1.32 0.33 -2.64 0.66 -4 1 C-4 1.66 -4 2.32 -4 3 C-3.01 3.33 -2.02 3.66 -1 4 C-1.33 4.66 -1.66 5.32 -2 6 C-7.19432248 7.58470855 -12.57858775 8.28533749 -18 8 C-13.7148709 1.39375931 -7.69451098 -0.57708832 0 0 Z " fill="#395C90" transform="translate(222,21)"/>
<path d="M0 0 C0.99 0 1.98 0 3 0 C3 2.31 3 4.62 3 7 C4.32 7 5.64 7 7 7 C7.05395478 8.62463842 7.09277195 10.24978541 7.125 11.875 C7.14820313 12.77992187 7.17140625 13.68484375 7.1953125 14.6171875 C7 17 7 17 5 19 C2.00910472 13.51669198 -0.33596877 8.27574616 -1 2 C-0.67 1.34 -0.34 0.68 0 0 Z " fill="#E7F0F4" transform="translate(53,84)"/>
<path d="M0 0 C0.66 0.33 1.32 0.66 2 1 C1.67 1.66 1.34 2.32 1 3 C1.56203125 2.82597656 2.1240625 2.65195313 2.703125 2.47265625 C5.24556755 1.94946654 7.18452337 2.09795162 9.75 2.4375 C10.94882812 2.59025391 10.94882812 2.59025391 12.171875 2.74609375 C12.77515625 2.82988281 13.3784375 2.91367188 14 3 C14.33 2.34 14.66 1.68 15 1 C15.33 1.33 15.66 1.66 16 2 C17.34747084 2.23075082 18.70377565 2.41153063 20.0625 2.5625 C21.361875 2.706875 22.66125 2.85125 24 3 C24 3.33 24 3.66 24 4 C22.02 4 20.04 4 18 4 C17.34 5.98 16.68 7.96 16 10 C15.01 10 14.02 10 13 10 C12.67 12.97 12.34 15.94 12 19 C11.67 19 11.34 19 11 19 C11 15.7 11 12.4 11 9 C11.99 9 12.98 9 14 9 C14 7.35 14 5.7 14 4 C13.01257812 4.02320312 12.02515625 4.04640625 11.0078125 4.0703125 C9.72648437 4.08835937 8.44515625 4.10640625 7.125 4.125 C5.21074219 4.15980469 5.21074219 4.15980469 3.2578125 4.1953125 C0 4 0 4 -2 2 C-1.34 1.34 -0.68 0.68 0 0 Z " fill="#EEF5F8" transform="translate(27,82)"/>
<path d="M0 0 C1.65 0 3.3 0 5 0 C4.34 0.66 3.68 1.32 3 2 C2.98016609 4.14544394 2.98016609 4.14544394 3.375 6.5625 C3.97664405 11.42519953 4.07898681 16.10281772 4 21 C2.68 21 1.36 21 0 21 C0 14.07 0 7.14 0 0 Z " fill="#E2EAF0" transform="translate(225,28)"/>
<path d="M0 0 C1.32 0.33 2.64 0.66 4 1 C3.01 1 2.02 1 1 1 C1 5.95 1 10.9 1 16 C0.34 16 -0.32 16 -1 16 C-1 15.01 -1 14.02 -1 13 C-2.98 13 -4.96 13 -7 13 C-7 12.01 -7 11.02 -7 10 C-5.02 10 -3.04 10 -1 10 C-1 9.01 -1 8.02 -1 7 C-2.98 7 -4.96 7 -7 7 C-7 6.01 -7 5.02 -7 4 C-5.02 4 -3.04 4 -1 4 C-0.67 2.68 -0.34 1.36 0 0 Z " fill="#E9F4F8" transform="translate(320,85)"/>
<path d="M0 0 C3.63 0 7.26 0 11 0 C11 0.99 11 1.98 11 3 C9.68 3 8.36 3 7 3 C7 6.96 7 10.92 7 15 C6.01 15 5.02 15 4 15 C4 11.04 4 7.08 4 3 C2.68 3 1.36 3 0 3 C0 2.01 0 1.02 0 0 Z " fill="#3F5E8A" transform="translate(104,86)"/>
<path d="M0 0 C3.63 0 7.26 0 11 0 C11 0.99 11 1.98 11 3 C9.68 3 8.36 3 7 3 C7 6.96 7 10.92 7 15 C6.01 15 5.02 15 4 15 C4 11.04 4 7.08 4 3 C2.68 3 1.36 3 0 3 C0 2.01 0 1.02 0 0 Z " fill="#486893" transform="translate(141,86)"/>
<path d="M0 0 C1.98 0 3.96 0 6 0 C6 0.66 6 1.32 6 2 C5.01 2 4.02 2 3 2 C2.86722656 2.68707031 2.73445313 3.37414062 2.59765625 4.08203125 C2.42105469 4.98308594 2.24445313 5.88414063 2.0625 6.8125 C1.88847656 7.70582031 1.71445313 8.59914063 1.53515625 9.51953125 C1 12 1 12 0 15 C-1.65 15 -3.3 15 -5 15 C-3.97137215 9.55432314 -2.75385216 4.88182883 0 0 Z " fill="#325C9C" transform="translate(74,86)"/>
<path d="M0 0 C1.32 0 2.64 0 4 0 C0.92482916 10.55808656 0.92482916 10.55808656 -1 15 C0.65 15 2.3 15 4 15 C4 15.33 4 15.66 4 16 C1.66705225 16.04241723 -0.66702567 16.04092937 -3 16 C-4 15 -4 15 -4.09765625 12.71484375 C-4.08605469 11.79832031 -4.07445312 10.88179687 -4.0625 9.9375 C-4.05347656 9.01839844 -4.04445312 8.09929687 -4.03515625 7.15234375 C-4.02355469 6.44207031 -4.01195312 5.73179688 -4 5 C-2.68 5 -1.36 5 0 5 C0 3.35 0 1.7 0 0 Z " fill="#E7F0F6" transform="translate(209,56)"/>
<path d="M0 0 C0.33 0.66 0.66 1.32 1 2 C2.32 2 3.64 2 5 2 C5 5.96 5 9.92 5 14 C4.01 14 3.02 14 2 14 C1.67 14.99 1.34 15.98 1 17 C0.86722656 16.26394531 0.73445312 15.52789062 0.59765625 14.76953125 C0.42105469 13.79371094 0.24445313 12.81789063 0.0625 11.8125 C-0.19853516 10.36810547 -0.19853516 10.36810547 -0.46484375 8.89453125 C-0.9523735 6.25760028 -1.46671105 3.6280095 -2 1 C-1.34 0.67 -0.68 0.34 0 0 Z " fill="#F0F5F4" transform="translate(140,87)"/>
<path d="M0 0 C-0.33 5.61 -0.66 11.22 -1 17 C-0.01 17.33 0.98 17.66 2 18 C1.34 18.66 0.68 19.32 0 20 C-0.66 20 -1.32 20 -2 20 C-2 19.01 -2 18.02 -2 17 C-2.5775 17.185625 -3.155 17.37125 -3.75 17.5625 C-6.20692525 18.04023546 -7.64397534 17.75729364 -10 17 C-8.35 16.67 -6.7 16.34 -5 16 C-4.34 11.38 -3.68 6.76 -3 2 C-4.32 1.67 -5.64 1.34 -7 1 C-4 0 -4 0 0 0 Z " fill="#E3EDF4" transform="translate(412,84)"/>
<path d="M0 0 C2.31 0 4.62 0 7 0 C7.33 0.99 7.66 1.98 8 3 C6.68 3 5.36 3 4 3 C4 5.97 4 8.94 4 12 C2.35 12 0.7 12 -1 12 C-1.14285714 3.42857143 -1.14285714 3.42857143 0 0 Z " fill="#335C91" transform="translate(33,88)"/>
<path d="M0 0 C1 2 1 2 0.22265625 4.3828125 C-0.16019531 5.28773437 -0.54304687 6.19265625 -0.9375 7.125 C-1.31777344 8.03507812 -1.69804687 8.94515625 -2.08984375 9.8828125 C-2.39019531 10.58148438 -2.69054687 11.28015625 -3 12 C-1.35 12 0.3 12 2 12 C2 12.33 2 12.66 2 13 C-2.62 13 -7.24 13 -12 13 C-12 12.67 -12 12.34 -12 12 C-10.02 12 -8.04 12 -6 12 C-6 8.7 -6 5.4 -6 2 C-4.02 1.34 -2.04 0.68 0 0 Z " fill="#E7F3F4" transform="translate(240,59)"/>
<path d="M0 0 C3.63 0 7.26 0 11 0 C11 0.66 11 1.32 11 2 C9.68 2 8.36 2 7 2 C7 5.96 7 9.92 7 14 C6.01 14 5.02 14 4 14 C4 10.04 4 6.08 4 2 C2.68 2 1.36 2 0 2 C0 1.34 0 0.68 0 0 Z " fill="#2B507E" transform="translate(335,87)"/>
<path d="M0 0 C1.66611905 -0.042721 3.33382885 -0.04063832 5 0 C6 1 6 1 6.125 3.9375 C6 7 6 7 5 9 C3.33388095 9.042721 1.66617115 9.04063832 0 9 C-1 8 -1 8 -1.125 5.0625 C-1 2 -1 2 0 0 Z " fill="#E4EDF2" transform="translate(385,89)"/>
<path d="M0 0 C1.65 0 3.3 0 5 0 C5.33 1.65 5.66 3.3 6 5 C5.34 5 4.68 5 4 5 C4 6.32 4 7.64 4 9 C1.69 9.33 -0.62 9.66 -3 10 C-2.01 6.7 -1.02 3.4 0 0 Z " fill="#3E608E" transform="translate(133,86)"/>
<path d="M0 0 C1.22589844 0.01353516 1.22589844 0.01353516 2.4765625 0.02734375 C3.41628906 0.04474609 3.41628906 0.04474609 4.375 0.0625 C4.045 0.7225 3.715 1.3825 3.375 2.0625 C2.385 2.0625 1.395 2.0625 0.375 2.0625 C0.375 5.6925 0.375 9.3225 0.375 13.0625 C-0.615 13.0625 -1.605 13.0625 -2.625 13.0625 C-2.66238281 12.44761719 -2.69976562 11.83273438 -2.73828125 11.19921875 C-2.80402344 10.39097656 -2.86976563 9.58273438 -2.9375 8.75 C-2.99550781 7.94949219 -3.05351562 7.14898437 -3.11328125 6.32421875 C-3.70706694 3.69977666 -4.58280294 2.75429328 -6.625 1.0625 C-4.21954362 -0.14022819 -2.67503047 -0.03821472 0 0 Z " fill="#CBD9E2" transform="translate(396.625,84.9375)"/>
<path d="M0 0 C1.90234375 0.19140625 1.90234375 0.19140625 4 1 C4.94140625 3.21484375 4.94140625 3.21484375 5.5625 5.9375 C6.47307833 10.27363683 6.47307833 10.27363683 10 13 C6.6875 14.125 6.6875 14.125 3 15 C2.01 14.34 1.02 13.68 0 13 C1.32 13 2.64 13 4 13 C3.71125 12.31292969 3.4225 11.62585938 3.125 10.91796875 C2.568125 9.56638672 2.568125 9.56638672 2 8.1875 C1.62875 7.29417969 1.2575 6.40085937 0.875 5.48046875 C0 3 0 3 0 0 Z " fill="#DAE7ED" transform="translate(260,88)"/>
<path d="M0 0 C2.64 0 5.28 0 8 0 C8 0.66 8 1.32 8 2 C6.35 2 4.7 2 3 2 C3 2.99 3 3.98 3 5 C4.65 5 6.3 5 8 5 C8 5.99 8 6.98 8 8 C6.02 8 4.04 8 2 8 C1.67 8.99 1.34 9.98 1 11 C-0.20272819 8.59454362 -0.10071472 7.05003047 -0.0625 4.375 C-0.05347656 3.55773437 -0.04445312 2.74046875 -0.03515625 1.8984375 C-0.02355469 1.27195312 -0.01195312 0.64546875 0 0 Z " fill="#365A8B" transform="translate(154,87)"/>
<path d="M0 0 C1.65 0 3.3 0 5 0 C5 1.32 5 2.64 5 4 C4.34 4 3.68 4 3 4 C3 7.63 3 11.26 3 15 C2.01 15 1.02 15 0 15 C0 10.05 0 5.1 0 0 Z " fill="#416290" transform="translate(321,86)"/>
<path d="M0 0 C0.99 0.33 1.98 0.66 3 1 C2.52140759 2.60433809 2.04210442 4.20846416 1.5625 5.8125 C1.29566406 6.70582031 1.02882813 7.59914063 0.75390625 8.51953125 C0.19612127 10.35473055 -0.39344575 12.18033726 -1 14 C-1.99 14 -2.98 14 -4 14 C-4 10.7 -4 7.4 -4 4 C-2.68 4 -1.36 4 0 4 C0 2.68 0 1.36 0 0 Z " fill="#EEF5F5" transform="translate(70,87)"/>
<path d="M0 0 C0.66 0 1.32 0 2 0 C2 3.63 2 7.26 2 11 C4.31 11 6.62 11 9 11 C9 11.99 9 12.98 9 14 C6.03 14 3.06 14 0 14 C0 9.38 0 4.76 0 0 Z " fill="#36598B" transform="translate(310,87)"/>
<path d="M0 0 C1.670625 0.061875 1.670625 0.061875 3.375 0.125 C1.725 2.105 0.075 4.085 -1.625 6.125 C-0.965 6.125 -0.305 6.125 0.375 6.125 C0.375 7.115 0.375 8.105 0.375 9.125 C-4.5 8.25 -4.5 8.25 -5.625 7.125 C-5.8125 4.6875 -5.8125 4.6875 -5.625 2.125 C-3.625 0.125 -3.625 0.125 0 0 Z " fill="#DFECF2" transform="translate(273.625,88.875)"/>
<path d="M0 0 C1.32 0.33 2.64 0.66 4 1 C4 1.66 4 2.32 4 3 C4.66 3 5.32 3 6 3 C6 3.66 6 4.32 6 5 C7.65 5 9.3 5 11 5 C11.33 4.01 11.66 3.02 12 2 C12.33 3.32 12.66 4.64 13 6 C11.56260487 6.02712066 10.12506137 6.04645067 8.6875 6.0625 C7.48673828 6.07990234 7.48673828 6.07990234 6.26171875 6.09765625 C4 6 4 6 1 5 C0.67 6.32 0.34 7.64 0 9 C0 8.01 0 7.02 0 6 C-1.98 6 -3.96 6 -6 6 C-5.360625 5.896875 -4.72125 5.79375 -4.0625 5.6875 C-3.381875 5.460625 -2.70125 5.23375 -2 5 C-1.67 4.01 -1.34 3.02 -1 2 C-0.67 1.34 -0.34 0.68 0 0 Z " fill="#F1F6F9" transform="translate(365,80)"/>
<path d="M0 0 C1.32 0 2.64 0 4 0 C4 1.65 4 3.3 4 5 C6.31 5 8.62 5 11 5 C11 5.33 11 5.66 11 6 C10.07767578 6.09087891 10.07767578 6.09087891 9.13671875 6.18359375 C8.32847656 6.26738281 7.52023438 6.35117188 6.6875 6.4375 C5.88699219 6.51871094 5.08648437 6.59992188 4.26171875 6.68359375 C1.83912821 6.95265693 1.83912821 6.95265693 -1 8 C-1 7.34 -1 6.68 -1 6 C-2.65 6 -4.3 6 -6 6 C-5.67 5.01 -5.34 4.02 -5 3 C-3.68 3 -2.36 3 -1 3 C-0.67 2.01 -0.34 1.02 0 0 Z " fill="#F4F7F9" transform="translate(139,80)"/>
<path d="M0 0 C0.99 0 1.98 0 3 0 C3 0.99 3 1.98 3 3 C4.32 3 5.64 3 7 3 C7 6.96 7 10.92 7 15 C6.67 15 6.34 15 6 15 C6 11.37 6 7.74 6 4 C3.00667261 4.9977758 2.05233685 5.7522025 0 8 C-2.5 6.625 -2.5 6.625 -5 5 C-5 4.34 -5 3.68 -5 3 C-3.02 3 -1.04 3 1 3 C0.67 2.01 0.34 1.02 0 0 Z " fill="#D2DFEB" transform="translate(101,86)"/>
<path d="M0 0 C2.475 0.495 2.475 0.495 5 1 C6.60725635 4.21451269 6.05748185 7.43612536 6 11 C4 9 4 9 3.875 5.875 C3.91625 4.92625 3.9575 3.9775 4 3 C3.34 3 2.68 3 2 3 C2 6.3 2 9.6 2 13 C1.34 13 0.68 13 0 13 C0 8.71 0 4.42 0 0 Z " fill="#2B4F82" transform="translate(292,87)"/>
<path d="M0 0 C0.33 0 0.66 0 1 0 C1 4.62 1 9.24 1 14 C3.97 14 6.94 14 10 14 C10 14.33 10 14.66 10 15 C8.06403108 15.22211116 6.12610672 15.42722992 4.1875 15.625 C2.56908203 15.79902344 2.56908203 15.79902344 0.91796875 15.9765625 C-2 16 -2 16 -5 14 C-4.01 14 -3.02 14 -2 14 C-2.02320313 13.32453125 -2.04640625 12.6490625 -2.0703125 11.953125 C-2.08835937 11.06109375 -2.10640625 10.1690625 -2.125 9.25 C-2.14820313 8.36828125 -2.17140625 7.4865625 -2.1953125 6.578125 C-1.99139502 3.8864142 -1.36551721 2.30095026 0 0 Z " fill="#D8E7F3" transform="translate(309,87)"/>
<path d="M0 0 C1.134375 0.020625 2.26875 0.04125 3.4375 0.0625 C2.4475 0.7225 1.4575 1.3825 0.4375 2.0625 C1.7575 2.7225 3.0775 3.3825 4.4375 4.0625 C2.4575 4.0625 0.4775 4.0625 -1.5625 4.0625 C-1.5625 4.7225 -1.5625 5.3825 -1.5625 6.0625 C-0.5725 6.0625 0.4175 6.0625 1.4375 6.0625 C1.4375 7.0525 1.4375 8.0425 1.4375 9.0625 C-1.5325 8.5675 -1.5325 8.5675 -4.5625 8.0625 C-4.60491723 5.72955225 -4.60342937 3.39547433 -4.5625 1.0625 C-3.5625 0.0625 -3.5625 0.0625 0 0 Z " fill="#CCDCE8" transform="translate(361.5625,88.9375)"/>
<path d="M0 0 C1.8125 1.4375 1.8125 1.4375 3 3 C2.34 4.65 1.68 6.3 1 8 C-1.97 7.505 -1.97 7.505 -5 7 C-5 5.02 -5 3.04 -5 1 C-2.6875 0.3125 -2.6875 0.3125 0 0 Z " fill="#7690AF" transform="translate(419,87)"/>
<path d="M0 0 C1.32 0 2.64 0 4 0 C4.02698189 1.62490954 4.04638757 3.24994633 4.0625 4.875 C4.07410156 5.77992187 4.08570313 6.68484375 4.09765625 7.6171875 C4 10 4 10 3 12 C2.01 12 1.02 12 0 12 C0 8.04 0 4.08 0 0 Z " fill="#4B6B96" transform="translate(405,86)"/>
<path d="M0 0 C0.99 0 1.98 0 3 0 C3 4.95 3 9.9 3 15 C2.01 15 1.02 15 0 15 C0 10.05 0 5.1 0 0 Z " fill="#3B5D8C" transform="translate(180,86)"/>
<path d="M0 0 C0.33 0 0.66 0 1 0 C1 1.65 1 3.3 1 5 C2.32 5 3.64 5 5 5 C5 8.3 5 11.6 5 15 C1 13 1 13 -0.25 9.875 C-0.4975 8.92625 -0.745 7.9775 -1 7 C-0.67 6.67 -0.34 6.34 0 6 C0.04080783 4.00041636 0.04254356 1.99954746 0 0 Z " fill="#E6F0F6" transform="translate(223,56)"/>
<path d="M0 0 C2.31 0 4.62 0 7 0 C7 0.33 7 0.66 7 1 C5.02 1 3.04 1 1 1 C1 1.66 1 2.32 1 3 C3.31 3 5.62 3 8 3 C8 3.33 8 3.66 8 4 C6.35 4 4.7 4 3 4 C3 4.66 3 5.32 3 6 C3.66 6 4.32 6 5 6 C5 6.99 5 7.98 5 9 C3.33388095 9.042721 1.66617115 9.04063832 0 9 C-1 8 -1 8 -1.125 5.0625 C-1 2 -1 2 0 0 Z " fill="#C2D2E2" transform="translate(169,89)"/>
<path d="M0 0 C0 0.99 0 1.98 0 3 C-2.31 3 -4.62 3 -7 3 C-7.33 4.98 -7.66 6.96 -8 9 C-8.66 8.34 -9.32 7.68 -10 7 C-10.66 7.99 -11.32 8.98 -12 10 C-12.375 7.25 -12.375 7.25 -12 4 C-8.08275382 0.45582489 -5.23065471 -0.49815759 0 0 Z " fill="#3F5E8E" transform="translate(176,86)"/>
<path d="M0 0 C0.66 0.33 1.32 0.66 2 1 C2 3.97 2 6.94 2 10 C0.35 10 -1.3 10 -3 10 C-3 7.03 -3 4.06 -3 1 C-2.01 1.495 -2.01 1.495 -1 2 C-0.67 1.34 -0.34 0.68 0 0 Z " fill="#2D558F" transform="translate(63,90)"/>
<path d="M0 0 C1.98 0 3.96 0 6 0 C6.66 1.65 7.32 3.3 8 5 C5.4345406 7.5654594 3.52313332 7.54046087 0 8 C0.66 7.67 1.32 7.34 2 7 C1.67 6.01 1.34 5.02 1 4 C0.34 4 -0.32 4 -1 4 C-0.67 2.68 -0.34 1.36 0 0 Z " fill="#315B9A" transform="translate(213,56)"/>
<path d="M0 0 C1.65 0 3.3 0 5 0 C5.09765625 6.15234375 5.09765625 6.15234375 5 8 C4 9 4 9 0.4375 9.0625 C-0.696875 9.041875 -1.83125 9.02125 -3 9 C-1.68 8.34 -0.36 7.68 1 7 C1 5.68 1 4.36 1 3 C0.34 3 -0.32 3 -1 3 C-0.67 2.01 -0.34 1.02 0 0 Z " fill="#55749D" transform="translate(273,92)"/>
<path d="M0 0 C0.99 0.495 0.99 0.495 2 1 C2 2.65 2 4.3 2 6 C3.65 6 5.3 6 7 6 C6.67 6.66 6.34 7.32 6 8 C5.01 8 4.02 8 3 8 C3 9.98 3 11.96 3 14 C2.01 14 1.02 14 0 14 C0 9.38 0 4.76 0 0 Z " fill="#315385" transform="translate(117,87)"/>
<path d="M0 0 C0.66 0 1.32 0 2 0 C2.66 2.64 3.32 5.28 4 8 C5.65 8 7.3 8 9 8 C8.67 6.35 8.34 4.7 8 3 C8.66 3 9.32 3 10 3 C10 4.98 10 6.96 10 9 C8.741875 9.04125 7.48375 9.0825 6.1875 9.125 C5.47980469 9.14820312 4.77210937 9.17140625 4.04296875 9.1953125 C2 9 2 9 -1 7 C-0.67 4.69 -0.34 2.38 0 0 Z " fill="#D6E3EC" transform="translate(76,93)"/>
<path d="M0 0 C2.96175123 0.61277612 4.38058783 1.25372522 7 3 C7 3.99 7 4.98 7 6 C4.69 6.66 2.38 7.32 0 8 C-0.79953138 4.71303767 -1.09658936 3.28976808 0 0 Z " fill="#F5F8F8" transform="translate(71,80)"/>
<path d="M0 0 C1.65 0 3.3 0 5 0 C5.625 2.8125 5.625 2.8125 6 6 C5.01 7.485 5.01 7.485 4 9 C3.01 9 2.02 9 1 9 C0.855625 8.21625 0.71125 7.4325 0.5625 6.625 C0.12201075 4.03578982 0.12201075 4.03578982 -1 2 C-0.67 1.34 -0.34 0.68 0 0 Z " fill="#6984A8" transform="translate(255,86)"/>
<path d="M0 0 C0.1875 2.375 0.1875 2.375 0 5 C-3.6441774 7.4294516 -5.71241272 7.16179575 -10 7 C-10 6.01 -10 5.02 -10 4 C-8.02 4 -6.04 4 -4 4 C-4 3.01 -4 2.02 -4 1 C-1 0 -1 0 0 0 Z " fill="#4E6B93" transform="translate(103,94)"/>
<path d="M0 0 C1.65 0 3.3 0 5 0 C3.68 0.33 2.36 0.66 1 1 C1 5.62 1 10.24 1 15 C0.67 13.68 0.34 12.36 0 11 C-0.99 10.67 -1.98 10.34 -3 10 C-3.33 8.35 -3.66 6.7 -4 5 C-2.68 5 -1.36 5 0 5 C0 3.35 0 1.7 0 0 Z " fill="#C6D6E1" transform="translate(236,86)"/>
<path d="M0 0 C2.475 0.495 2.475 0.495 5 1 C4.67 2.32 4.34 3.64 4 5 C3.67 4.67 3.34 4.34 3 4 C2.67 7.3 2.34 10.6 2 14 C1.34 14 0.68 14 0 14 C0 9.38 0 4.76 0 0 Z " fill="#2D5080" transform="translate(237,87)"/>
<path d="M0 0 C1.32 0 2.64 0 4 0 C4 1.32 4 2.64 4 4 C7.63 4.33 11.26 4.66 15 5 C15 5.33 15 5.66 15 6 C9.39 6 3.78 6 -2 6 C-1.34 4.02 -0.68 2.04 0 0 Z " fill="#F3F7F8" transform="translate(100,80)"/>
<path d="M0 0 C2.875 -0.125 2.875 -0.125 6 0 C8 2 8 2 8.1953125 4.1640625 C8.17210937 4.97617188 8.14890625 5.78828125 8.125 6.625 C8.10695313 7.44226563 8.08890625 8.25953125 8.0703125 9.1015625 C8.03550781 10.04128906 8.03550781 10.04128906 8 11 C7.01 11 6.02 11 5 11 C4.9175 9.741875 4.835 8.48375 4.75 7.1875 C4.33442857 3.66188788 4.33442857 3.66188788 1.9375 1 C1.298125 0.67 0.65875 0.34 0 0 Z " fill="#345788" transform="translate(386,87)"/>
<path d="M0 0 C1.98 0 3.96 0 6 0 C6 2.64 6 5.28 6 8 C3.03 8 0.06 8 -3 8 C-3 7.67 -3 7.34 -3 7 C-0.36 7 2.28 7 5 7 C3.87465895 5.64381501 3.87465895 5.64381501 0.9375 5.9375 C-0.031875 5.958125 -1.00125 5.97875 -2 6 C-1.67 5.34 -1.34 4.68 -1 4 C0.32 4.33 1.64 4.66 3 5 C3 4.01 3 3.02 3 2 C2.01 2 1.02 2 0 2 C0 1.34 0 0.68 0 0 Z " fill="#506D99" transform="translate(360,93)"/>
<path d="M0 0 C1.32 0 2.64 0 4 0 C4 0.66 4 1.32 4 2 C3.01 2.495 3.01 2.495 2 3 C2 6.63 2 10.26 2 14 C1.01 14 0.02 14 -1 14 C-1.08333357 9.1666528 -0.95261487 4.76307437 0 0 Z " fill="#365786" transform="translate(205,87)"/>
<path d="M0 0 C2.31 0 4.62 0 7 0 C7.33 0.66 7.66 1.32 8 2 C7.0625 4.625 7.0625 4.625 6 7 C4.68 7 3.36 7 2 7 C1.34 4.69 0.68 2.38 0 0 Z " fill="#829CBA" transform="translate(117,86)"/>
<path d="M0 0 C2.0580158 1.90742928 2.97102713 2.91887597 3.9375 5.625 C4.288125 6.40875 4.63875 7.1925 5 8 C6.32 8.33 7.64 8.66 9 9 C6.36 9.66 3.72 10.32 1 11 C-0.20272819 8.59454362 -0.10071472 7.05003047 -0.0625 4.375 C-0.05347656 3.55773437 -0.04445312 2.74046875 -0.03515625 1.8984375 C-0.02355469 1.27195312 -0.01195312 0.64546875 0 0 Z " fill="#EAF3F6" transform="translate(240,93)"/>
<path d="M0 0 C0.99 0.33 1.98 0.66 3 1 C3.33 2.65 3.66 4.3 4 6 C4.99 6 5.98 6 7 6 C7.33 5.34 7.66 4.68 8 4 C8.33 5.32 8.66 6.64 9 8 C7.35 8.33 5.7 8.66 4 9 C3.67 8.01 3.34 7.02 3 6 C2.01 6 1.02 6 0 6 C0 4.02 0 2.04 0 0 Z " fill="#E7F0F4" transform="translate(372,95)"/>
<path d="M0 0 C1.65 0 3.3 0 5 0 C5 0.66 5 1.32 5 2 C5.99 2 6.98 2 8 2 C8.33 3.98 8.66 5.96 9 8 C8.01 8 7.02 8 6 8 C5.71125 7.195625 5.4225 6.39125 5.125 5.5625 C4.26737432 2.8673532 4.26737432 2.8673532 2 2 C2 3.98 2 5.96 2 8 C1.67 8 1.34 8 1 8 C0.67 5.36 0.34 2.72 0 0 Z " fill="#41618F" transform="translate(370,93)"/>
<path d="M0 0 C0 0.99 0 1.98 0 3 C-1.093125 3.103125 -2.18625 3.20625 -3.3125 3.3125 C-6.85559629 3.97307727 -7.93243723 4.2027092 -10 7 C-10.33 5.68 -10.66 4.36 -11 3 C-7.48550811 -0.37391222 -4.73940561 -0.27342725 0 0 Z " fill="#42628D" transform="translate(365,86)"/>
<path d="M0 0 C0.33 0.99 0.66 1.98 1 3 C1.99 3.33 2.98 3.66 4 4 C3.01 4 2.02 4 1 4 C1 6.64 1 9.28 1 12 C-2.14958831 8.57653445 -2.56179109 5.55737263 -3 1 C-2.01 0.67 -1.02 0.34 0 0 Z " fill="#F1F6F7" transform="translate(329,82)"/>
<path d="M0 0 C0 3.96 0 7.92 0 12 C-0.99 12 -1.98 12 -3 12 C-3 8.37 -3 4.74 -3 1 C-1 0 -1 0 0 0 Z " fill="#385987" transform="translate(148,89)"/>
<path d="M0 0 C4 5 4 5 3.953125 7.45703125 C3.72109375 8.23433594 3.4890625 9.01164062 3.25 9.8125 C3.02828125 10.60269531 2.8065625 11.39289063 2.578125 12.20703125 C2.29195312 13.09455078 2.29195312 13.09455078 2 14 C1.34 14 0.68 14 0 14 C0 9.38 0 4.76 0 0 Z " fill="#E4EEF4" transform="translate(249,87)"/>
<path d="M0 0 C0.66 0.33 1.32 0.66 2 1 C2.75 3.375 2.75 3.375 3 6 C2.01 7.485 2.01 7.485 1 9 C0.67 8.01 0.34 7.02 0 6 C-3.63 6 -7.26 6 -11 6 C-11.33 5.34 -11.66 4.68 -12 4 C-8.37 4.33 -4.74 4.66 -1 5 C-0.67 3.35 -0.34 1.7 0 0 Z " fill="#F4F8F8" transform="translate(289,80)"/>
<path d="M0 0 C1.45606519 4.52092968 0.27032841 7.51648796 -1 12 C-1.99 12 -2.98 12 -4 12 C-3.45660208 7.43545749 -2.20536179 4.0271824 0 0 Z " fill="#395A89" transform="translate(255,89)"/>
<path d="M0 0 C0 0.99 0 1.98 0 3 C-0.969375 3.12375 -1.93875 3.2475 -2.9375 3.375 C-3.948125 3.58125 -4.95875 3.7875 -6 4 C-6.33 4.66 -6.66 5.32 -7 6 C-7.66 6 -8.32 6 -9 6 C-9.33 5.01 -9.66 4.02 -10 3 C-7.29536552 -0.8183075 -4.37912428 -0.24787496 0 0 Z " fill="#4A668F" transform="translate(196,86)"/>
<path d="M0 0 C-0.33 3.96 -0.66 7.92 -1 12 C-1.66 12 -2.32 12 -3 12 C-3 8.7 -3 5.4 -3 2 C-4.32 1.67 -5.64 1.34 -7 1 C-4 0 -4 0 0 0 Z " fill="#EFF7F7" transform="translate(412,84)"/>
<path d="M0 0 C0.33 0.99 0.66 1.98 1 3 C-0.670625 3.2165625 -0.670625 3.2165625 -2.375 3.4375 C-5.82142047 3.78372035 -5.82142047 3.78372035 -8 5 C-8.66 4.34 -9.32 3.68 -10 3 C-7.29536552 -0.8183075 -4.37912428 -0.24787496 0 0 Z " fill="#4D6A93" transform="translate(276,86)"/>
<path d="M0 0 C2.40785992 3.2104799 3.68197635 5.35008834 5 9 C3.35 9.33 1.7 9.66 0 10 C0 6.7 0 3.4 0 0 Z " fill="#DEE6EE" transform="translate(324,91)"/>
<path d="M0 0 C1.65 0 3.3 0 5 0 C5 1.32 5 2.64 5 4 C4.34 4 3.68 4 3 4 C3 4.99 3 5.98 3 7 C2.01 6.67 1.02 6.34 0 6 C-0.75 4.0625 -0.75 4.0625 -1 2 C-0.67 1.34 -0.34 0.68 0 0 Z " fill="#E3EDF3" transform="translate(255,97)"/>
<path d="M0 0 C0.33 0 0.66 0 1 0 C1 3.63 1 7.26 1 11 C0.34 11 -0.32 11 -1 11 C-1.33 11.66 -1.66 12.32 -2 13 C-3.71050559 8.02398374 -2.00885647 4.57383705 0 0 Z " fill="#C9D8E7" transform="translate(216,90)"/>
<path d="M0 0 C1.32 0 2.64 0 4 0 C4.33 2.31 4.66 4.62 5 7 C4.34 7 3.68 7 3 7 C3 6.34 3 5.68 3 5 C1.68 5 0.36 5 -1 5 C-0.67 3.35 -0.34 1.7 0 0 Z " fill="#8AA5C7" transform="translate(372,88)"/>
<path d="M0 0 C0 0.99 0 1.98 0 3 C0.66 3 1.32 3 2 3 C2 4.65 2 6.3 2 8 C1.34 8 0.68 8 0 8 C-0.33 5.69 -0.66 3.38 -1 1 C-2.65 1 -4.3 1 -6 1 C-6 2.98 -6 4.96 -6 7 C-6.33 7 -6.66 7 -7 7 C-7 4.69 -7 2.38 -7 0 C-3.86650268 -1.04449911 -3.01031744 -0.93423645 0 0 Z " fill="#C5D5E2" transform="translate(211,86)"/>
<path d="M0 0 C5.61 0.66 11.22 1.32 17 2 C17 2.33 17 2.66 17 3 C8.585 3.495 8.585 3.495 0 4 C0 2.68 0 1.36 0 0 Z " fill="#C1D1DF" transform="translate(203,28)"/>
<path d="M0 0 C2.31 0 4.62 0 7 0 C7.66 2.31 8.32 4.62 9 7 C7.35 7.66 5.7 8.32 4 9 C4.33 6.69 4.66 4.38 5 2 C3.35 1.67 1.7 1.34 0 1 C0 0.67 0 0.34 0 0 Z " fill="#4B6D9E" transform="translate(45,86)"/>
<path d="M0 0 C2.64 0.66 5.28 1.32 8 2 C8 2.33 8 2.66 8 3 C6.02 3 4.04 3 2 3 C2 7.95 2 12.9 2 18 C1.67 18 1.34 18 1 18 C0.67 12.06 0.34 6.12 0 0 Z " fill="#C4D2E2" transform="translate(115,83)"/>
<path d="M0 0 C1.65 1.65 3.3 3.3 5 5 C2.11584117 6.44207941 -0.41721528 6.09394887 -3.625 6.0625 C-4.81351563 6.05347656 -6.00203125 6.04445313 -7.2265625 6.03515625 C-8.14179688 6.02355469 -9.05703125 6.01195313 -10 6 C-10 5.67 -10 5.34 -10 5 C-7.03 5 -4.06 5 -1 5 C-0.67 3.35 -0.34 1.7 0 0 Z " fill="#E1EEF3" transform="translate(164,96)"/>
<path d="M0 0 C1.4606285 2.64738916 2 3.89448334 2 7 C2.66 7 3.32 7 4 7 C4 7.99 4 8.98 4 10 C2.68 10.33 1.36 10.66 0 11 C-0.33 8.36 -0.66 5.72 -1 3 C-1.66 3 -2.32 3 -3 3 C-2.67 2.34 -2.34 1.68 -2 1 C-1.34 1.33 -0.68 1.66 0 2 C0 1.34 0 0.68 0 0 Z " fill="#486A9C" transform="translate(209,87)"/>
<path d="M0 0 C0.99 0 1.98 0 3 0 C4.6875 2 4.6875 2 6 4 C5.34 5.32 4.68 6.64 4 8 C3.34 6.68 2.68 5.36 2 4 C1.67 6.31 1.34 8.62 1 11 C0.67 11 0.34 11 0 11 C0 7.37 0 3.74 0 0 Z " fill="#5C799F" transform="translate(239,90)"/>
<path d="M0 0 C1.32 0.33 2.64 0.66 4 1 C4 2.98 4 4.96 4 7 C2.68 7.33 1.36 7.66 0 8 C0 5.36 0 2.72 0 0 Z " fill="#F9FBF7" transform="translate(334,89)"/>
<path d="M0 0 C2 3 2 3 2 6 C1.34 6 0.68 6 0 6 C0 6.66 0 7.32 0 8 C-0.99 8 -1.98 8 -3 8 C-3.1875 5.125 -3.1875 5.125 -3 2 C-2.01 1.34 -1.02 0.68 0 0 Z " fill="#6F8CB4" transform="translate(230,87)"/>
<path d="M0 0 C1 3 1 3 1 5 C1.66 5.66 2.32 6.32 3 7 C2.67 7.66 2.34 8.32 2 9 C0.35 9 -1.3 9 -3 9 C-2.5020163 5.26512223 -2.12508244 3.18762365 0 0 Z " fill="#385989" transform="translate(240,62)"/>
<path d="M0 0 C0.99 0.33 1.98 0.66 3 1 C3 2.98 3 4.96 3 7 C1.35 7 -0.3 7 -2 7 C-1.34 4.69 -0.68 2.38 0 0 Z " fill="#265193" transform="translate(230,63)"/>
<path d="M0 0 C1.50433594 0.01353516 1.50433594 0.01353516 3.0390625 0.02734375 C3.80992187 0.03894531 4.58078125 0.05054688 5.375 0.0625 C5.045 1.0525 4.715 2.0425 4.375 3.0625 C4.375 2.4025 4.375 1.7425 4.375 1.0625 C3.385 1.7225 2.395 2.3825 1.375 3.0625 C-0.88671875 3.2578125 -0.88671875 3.2578125 -3.3125 3.1875 C-4.52486328 3.16042969 -4.52486328 3.16042969 -5.76171875 3.1328125 C-6.68404297 3.09800781 -6.68404297 3.09800781 -7.625 3.0625 C-7.625 2.4025 -7.625 1.7425 -7.625 1.0625 C-4.98041621 -0.25979189 -2.94738699 -0.03427194 0 0 Z " fill="#29508C" transform="translate(203.625,56.9375)"/>
<path d="M0 0 C4.29 0 8.58 0 13 0 C13 0.33 13 0.66 13 1 C11.02 1 9.04 1 7 1 C7 1.66 7 2.32 7 3 C4.69 3 2.38 3 0 3 C0 2.01 0 1.02 0 0 Z " fill="#244D88" transform="translate(56,87)"/>
<path d="M0 0 C0.33 0 0.66 0 1 0 C1 3.63 1 7.26 1 11 C0.01 11.33 -0.98 11.66 -2 12 C-1.85904936 10.3745692 -1.71207913 8.74965949 -1.5625 7.125 C-1.48128906 6.22007813 -1.40007812 5.31515625 -1.31640625 4.3828125 C-1 2 -1 2 0 0 Z " fill="#D2DFEB" transform="translate(303,90)"/>
<path d="M0 0 C0.99 0 1.98 0 3 0 C3.33 2.64 3.66 5.28 4 8 C2.68 8 1.36 8 0 8 C0 5.36 0 2.72 0 0 Z " fill="#265295" transform="translate(32,92)"/>
<path d="M0 0 C1.65 0 3.3 0 5 0 C5.33 1.65 5.66 3.3 6 5 C5.34 5 4.68 5 4 5 C4 6.32 4 7.64 4 9 C3.01 9 2.02 9 1 9 C1 7.35 1 5.7 1 4 C1.99 4 2.98 4 4 4 C4 3.01 4 2.02 4 1 C2.68 0.67 1.36 0.34 0 0 Z " fill="#89A1BE" transform="translate(133,86)"/>
<path d="M0 0 C0.33 0 0.66 0 1 0 C1 1.98 1 3.96 1 6 C-0.32 6 -1.64 6 -3 6 C-3 8.97 -3 11.94 -3 15 C-3.33 15 -3.66 15 -4 15 C-4 11.04 -4 7.08 -4 3 C-2.68 3 -1.36 3 0 3 C0 2.01 0 1.02 0 0 Z " fill="#E8F5FA" transform="translate(152,86)"/>
<path d="M0 0 C1.65 0 3.3 0 5 0 C4.34 2.64 3.68 5.28 3 8 C2.34 8 1.68 8 1 8 C0.67 5.36 0.34 2.72 0 0 Z " fill="#E1EBF3" transform="translate(297,86)"/>
<path d="M0 0 C0.66 0 1.32 0 2 0 C2 0.99 2 1.98 2 3 C2.66 3 3.32 3 4 3 C4 4.65 4 6.3 4 8 C2.68 8 1.36 8 0 8 C0 5.36 0 2.72 0 0 Z " fill="#255191" transform="translate(200,62)"/>
<path d="M0 0 C3.96 0 7.92 0 12 0 C12 0.99 12 1.98 12 3 C8.04 2.67 4.08 2.34 0 2 C0 1.34 0 0.68 0 0 Z " fill="#EDF7F8" transform="translate(210,28)"/>
<path d="M0 0 C0.33 0.66 0.66 1.32 1 2 C1.66 2.33 2.32 2.66 3 3 C-0.78756477 6.61139896 -0.78756477 6.61139896 -3 8 C-5.875 7.8125 -5.875 7.8125 -8 7 C-8 6.34 -8 5.68 -8 5 C-6.865625 4.731875 -5.73125 4.46375 -4.5625 4.1875 C-3.386875 3.795625 -2.21125 3.40375 -1 3 C-0.67 2.01 -0.34 1.02 0 0 Z " fill="#EAF2F9" transform="translate(103,96)"/>
<path d="M0 0 C2.76223278 2.76223278 2.57856291 5.20706617 3 9 C1.35 9 -0.3 9 -2 9 C-2.33 8.01 -2.66 7.02 -3 6 C-2.01 5.67 -1.02 5.34 0 5 C0 3.35 0 1.7 0 0 Z " fill="#476494" transform="translate(82,92)"/>
<path d="M0 0 C0.33 0.66 0.66 1.32 1 2 C2.32 2 3.64 2 5 2 C5 5.96 5 9.92 5 14 C4.67 14 4.34 14 4 14 C4 10.37 4 6.74 4 3 C0.9254644 3.7763932 0.9254644 3.7763932 -1 6 C-1.33 4.35 -1.66 2.7 -2 1 C-1.34 0.67 -0.68 0.34 0 0 Z " fill="#BBCFE0" transform="translate(140,87)"/>
<path d="M0 0 C1.9375 0.3125 1.9375 0.3125 4 1 C5.09658936 4.28976808 4.79953138 5.71303767 4 9 C1.18167487 7.59083743 0.97406539 5.92219617 0 3 C0 2.01 0 1.02 0 0 Z " fill="#EAF2F5" transform="translate(260,88)"/>
<path d="M0 0 C1.32 0 2.64 0 4 0 C3.67 0.99 3.34 1.98 3 3 C2.34 3 1.68 3 1 3 C1 4.98 1 6.96 1 9 C0.67 8.34 0.34 7.68 0 7 C-0.66 7 -1.32 7 -2 7 C-1.34 4.69 -0.68 2.38 0 0 Z " fill="#456494" transform="translate(226,86)"/>
<path d="M0 0 C0.66 0.66 1.32 1.32 2 2 C1.625 5.625 1.625 5.625 1 9 C-0.32 8.34 -1.64 7.68 -3 7 C-2.01 4.69 -1.02 2.38 0 0 Z " fill="#D9E3EB" transform="translate(216,63)"/>
<path d="M0 0 C2.49505962 2.49505962 2.35948376 3.67328888 2.625 7.125 C2.69976562 8.03507812 2.77453125 8.94515625 2.8515625 9.8828125 C2.92503906 10.93082031 2.92503906 10.93082031 3 12 C2.01 12 1.02 12 0 12 C0 8.04 0 4.08 0 0 Z " fill="#385680" transform="translate(339,89)"/>
<path d="M0 0 C0.66 0 1.32 0 2 0 C3.25664978 2.90600261 4 4.79604584 4 8 C2.68 7.67 1.36 7.34 0 7 C0 4.69 0 2.38 0 0 Z " fill="#38598D" transform="translate(185,90)"/>
<path d="M0 0 C0 2.97 0 5.94 0 9 C-2.83328987 6.16671013 -3.7191375 4.64553172 -5 1 C-1.125 0 -1.125 0 0 0 Z " fill="#CDDEEA" transform="translate(246,86)"/>
<path d="M0 0 C1.98 0 3.96 0 6 0 C4.52307692 4.67692308 4.52307692 4.67692308 1.875 6.3125 C0.946875 6.6528125 0.946875 6.6528125 0 7 C0 4.69 0 2.38 0 0 Z " fill="#F5F7F4" transform="translate(86,95)"/>
<path d="M0 0 C4.82360189 -0.19294408 8.49646738 0.24252386 13 2 C13 2.33 13 2.66 13 3 C8.07872966 3.16682272 4.49656104 3.24828052 0 1 C0 0.67 0 0.34 0 0 Z " fill="#DAE6F0" transform="translate(226,27)"/>
<path d="M0 0 C0.66 0 1.32 0 2 0 C2.33 2.31 2.66 4.62 3 7 C1.68 7 0.36 7 -1 7 C-0.67 4.69 -0.34 2.38 0 0 Z " fill="#59769E" transform="translate(298,94)"/>
<path d="M0 0 C0.33 0.99 0.66 1.98 1 3 C1.99 3 2.98 3 4 3 C4 3.99 4 4.98 4 6 C1.03 5.505 1.03 5.505 -2 5 C-1.125 1.125 -1.125 1.125 0 0 Z " fill="#E2EDF1" transform="translate(359,92)"/>
<path d="M0 0 C0.66 0 1.32 0 2 0 C2 0.99 2 1.98 2 3 C3.98 3 5.96 3 8 3 C8 3.66 8 4.32 8 5 C5.36 5 2.72 5 0 5 C0 3.35 0 1.7 0 0 Z " fill="#355787" transform="translate(281,95)"/>
<path d="M0 0 C3 1 3 1 4.1875 2.8125 C5 5 5 5 5 9 C4.34 9 3.68 9 3 9 C3 7.68 3 6.36 3 5 C1.68 4.67 0.36 4.34 -1 4 C-0.67 2.68 -0.34 1.36 0 0 Z " fill="#F5F6F4" transform="translate(181,81)"/>
<path d="M0 0 C1.98 0 3.96 0 6 0 C6.66 1.98 7.32 3.96 8 6 C7.34 6 6.68 6 6 6 C6 5.01 6 4.02 6 3 C4.02 3 2.04 3 0 3 C0 2.01 0 1.02 0 0 Z " fill="#466692" transform="translate(242,56)"/>
<path d="M0 0 C-1.32 0.33 -2.64 0.66 -4 1 C-4 1.66 -4 2.32 -4 3 C-3.01 3.33 -2.02 3.66 -1 4 C-1.33 4.66 -1.66 5.32 -2 6 C-3.32 5.67 -4.64 5.34 -6 5 C-6 4.34 -6 3.68 -6 3 C-6.66 2.34 -7.32 1.68 -8 1 C-5.29120665 -0.35439668 -2.99066732 -0.06501451 0 0 Z " fill="#234E89" transform="translate(222,21)"/>
<path d="M0 0 C0.66 0 1.32 0 2 0 C2.33 2.64 2.66 5.28 3 8 C2.01 8 1.02 8 0 8 C0 5.36 0 2.72 0 0 Z " fill="#385785" transform="translate(304,93)"/>
<path d="M0 0 C0.33 0 0.66 0 1 0 C1 1.65 1 3.3 1 5 C2.32 5 3.64 5 5 5 C5 5.99 5 6.98 5 8 C3.02 8.33 1.04 8.66 -1 9 C-0.67 6.03 -0.34 3.06 0 0 Z " fill="#DBE7EE" transform="translate(223,56)"/>
<path d="M0 0 C0.99 0.33 1.98 0.66 3 1 C2.34 1.66 1.68 2.32 1 3 C1 4.32 1 5.64 1 7 C-0.32 7 -1.64 7 -3 7 C-2.25 2.25 -2.25 2.25 0 0 Z " fill="#28538F" transform="translate(214,58)"/>
<path d="M0 0 C4.29 0 8.58 0 13 0 C13 0.33 13 0.66 13 1 C10.03 1 7.06 1 4 1 C4 1.66 4 2.32 4 3 C2.68 3 1.36 3 0 3 C0 2.01 0 1.02 0 0 Z " fill="#264C81" transform="translate(224,57)"/>
<path d="M0 0 C2.64 0.99 5.28 1.98 8 3 C8 3.33 8 3.66 8 4 C5.03 4 2.06 4 -1 4 C-1.33 3.34 -1.66 2.68 -2 2 C-1.34 2 -0.68 2 0 2 C0 1.34 0 0.68 0 0 Z " fill="#40608F" transform="translate(268,96)"/>
<path d="M0 0 C2.14208427 3.2131264 2.59687808 5.21065397 3 9 C2.67 9.66 2.34 10.32 2 11 C1.34 11 0.68 11 0 11 C0 7.37 0 3.74 0 0 Z " fill="#C9DDE9" transform="translate(207,90)"/>
<path d="M0 0 C1.98 0 3.96 0 6 0 C6.33 0.99 6.66 1.98 7 3 C4.69 3 2.38 3 0 3 C0 2.01 0 1.02 0 0 Z " fill="#D7E7F3" transform="translate(283,89)"/>
<path d="M0 0 C1.98 0 3.96 0 6 0 C6 0.66 6 1.32 6 2 C4.35 2 2.7 2 1 2 C0.34 3.32 -0.32 4.64 -1 6 C-1.33 5.34 -1.66 4.68 -2 4 C-1.0625 1.875 -1.0625 1.875 0 0 Z " fill="#4C6B94" transform="translate(74,86)"/>
<path d="M0 0 C0.66 0 1.32 0 2 0 C2.66 3.3 3.32 6.6 4 10 C1 8 1 8 0.48828125 6.0546875 C0.32552083 4.03645833 0.16276042 2.01822917 0 0 Z " fill="#4D6D94" transform="translate(202,32)"/>
<path d="M0 0 C0.66 0 1.32 0 2 0 C2 1.32 2 2.64 2 4 C2.99 4.33 3.98 4.66 5 5 C4.67 5.66 4.34 6.32 4 7 C2.02 6.34 0.04 5.68 -2 5 C-1.01 4.67 -0.02 4.34 1 4 C0.67 2.68 0.34 1.36 0 0 Z " fill="#E9F3F6" transform="translate(234,97)"/>
<path d="M0 0 C0 0.99 0 1.98 0 3 C-3.41099168 3 -6.63088314 2.50854594 -10 2 C-10 1.67 -10 1.34 -10 1 C-6.7 0.67 -3.4 0.34 0 0 Z " fill="#EEF5F7" transform="translate(277,100)"/>
<path d="M0 0 C2.35953094 2.35953094 2.49141413 3.77895617 3 7 C1.35 6.67 -0.3 6.34 -2 6 C-1.34 4.02 -0.68 2.04 0 0 Z " fill="#D1E0ED" transform="translate(48,93)"/>
<path d="M0 0 C0.66 0 1.32 0 2 0 C2 0.66 2 1.32 2 2 C2.99 2 3.98 2 5 2 C5 2.99 5 3.98 5 5 C3.35 5 1.7 5 0 5 C0 3.35 0 1.7 0 0 Z " fill="#E0EFF3" transform="translate(169,93)"/>
<path d="M0 0 C0.33 0.66 0.66 1.32 1 2 C1.66 2.33 2.32 2.66 3 3 C2.34 4.32 1.68 5.64 1 7 C0.67 6.34 0.34 5.68 0 5 C-0.66 5.99 -1.32 6.98 -2 8 C-2.125 5.125 -2.125 5.125 -2 2 C-1.34 1.34 -0.68 0.68 0 0 Z " fill="#5E7BA2" transform="translate(166,88)"/>
<path d="M0 0 C0.66 0.33 1.32 0.66 2 1 C1.01 4.3 0.02 7.6 -1 11 C-1.33 11 -1.66 11 -2 11 C-2 8.03 -2 5.06 -2 2 C-1.34 2 -0.68 2 0 2 C0 1.34 0 0.68 0 0 Z " fill="#E9F4F8" transform="translate(224,86)"/>
<path d="M0 0 C2.875 -0.125 2.875 -0.125 6 0 C6.66 0.66 7.32 1.32 8 2 C7.625 4.125 7.625 4.125 7 6 C6.34 5.34 5.68 4.68 5 4 C5 3.01 5 2.02 5 1 C3.02 1.33 1.04 1.66 -1 2 C-0.67 1.34 -0.34 0.68 0 0 Z " fill="#325582" transform="translate(371,87)"/>
<path d="M0 0 C0.33 0.66 0.66 1.32 1 2 C0.06421005 4.35981813 -0.93347808 6.69631264 -2 9 C-2.33 9 -2.66 9 -3 9 C-3 7.02 -3 5.04 -3 3 C-3.66 2.67 -4.32 2.34 -5 2 C-3.35 1.34 -1.7 0.68 0 0 Z " fill="#DDE9F1" transform="translate(240,59)"/>
<path d="M0 0 C1.98 0 3.96 0 6 0 C6.33 0.99 6.66 1.98 7 3 C6.05125 2.979375 5.1025 2.95875 4.125 2.9375 C1.09333717 2.77448174 1.09333717 2.77448174 -1 4 C-0.67 2.68 -0.34 1.36 0 0 Z " fill="#527097" transform="translate(213,56)"/>
<path d="M0 0 C1.65 0 3.3 0 5 0 C5 0.66 5 1.32 5 2 C3.35 1.67 1.7 1.34 0 1 C0 0.67 0 0.34 0 0 Z M-4 2 C-1.69 2 0.62 2 3 2 C2.01 3.485 2.01 3.485 1 5 C-1.475 4.01 -1.475 4.01 -4 3 C-4 2.67 -4 2.34 -4 2 Z " fill="#40679F" transform="translate(212,42)"/>
<path d="M0 0 C0.33 0.66 0.66 1.32 1 2 C0.67 2.66 0.34 3.32 0 4 C0.99 4.33 1.98 4.66 3 5 C0.6875 5.625 0.6875 5.625 -2 6 C-2.99 5.34 -3.98 4.68 -5 4 C-4.01 4 -3.02 4 -2 4 C-2 3.01 -2 2.02 -2 1 C-1.34 0.67 -0.68 0.34 0 0 Z " fill="#D5E3EE" transform="translate(129,97)"/>
<path d="M0 0 C0.33 1.32 0.66 2.64 1 4 C1.66 4 2.32 4 3 4 C3 4.66 3 5.32 3 6 C1.35 6 -0.3 6 -2 6 C-1.125 1.125 -1.125 1.125 0 0 Z " fill="#3E5C8C" transform="translate(71,95)"/>
<path d="M0 0 C0.66 0 1.32 0 2 0 C1.67 2.31 1.34 4.62 1 7 C-0.32 7 -1.64 7 -3 7 C-3 6.34 -3 5.68 -3 5 C-2.34 5 -1.68 5 -1 5 C-0.67 3.35 -0.34 1.7 0 0 Z " fill="#285295" transform="translate(44,93)"/>
<path d="M0 0 C0.99 0.33 1.98 0.66 3 1 C2.01 4.3 1.02 7.6 0 11 C-1.35015859 6.94952424 -0.62084998 4.2079832 0 0 Z " fill="#DCEAF3" transform="translate(70,87)"/>
<path d="M0 0 C0.66 1.32 1.32 2.64 2 4 C0.625 7.25 0.625 7.25 -1 10 C-1.66 10 -2.32 10 -3 10 C-2.01 6.7 -1.02 3.4 0 0 Z " fill="#456591" transform="translate(44,88)"/>
<path d="M0 0 C0.94875 0.04125 1.8975 0.0825 2.875 0.125 C2.545 1.115 2.215 2.105 1.875 3.125 C0.555 3.125 -0.765 3.125 -2.125 3.125 C-2.455 3.785 -2.785 4.445 -3.125 5.125 C-3.125 4.465 -3.125 3.805 -3.125 3.125 C-3.785 2.795 -4.445 2.465 -5.125 2.125 C-3.125 0.125 -3.125 0.125 0 0 Z " fill="#5A769E" transform="translate(387.125,85.875)"/>
<path d="M0 0 C1.89213369 2.38573379 3.02391783 4.07175348 4 7 C3.01 7.33 2.02 7.66 1 8 C0 7 0 7 -0.0625 3.4375 C-0.041875 2.303125 -0.02125 1.16875 0 0 Z " fill="#305285" transform="translate(165,91)"/>
<path d="M0 0 C1.65 0 3.3 0 5 0 C5 2.31 5 4.62 5 7 C4.731875 6.360625 4.46375 5.72125 4.1875 5.0625 C3.11332248 2.66868314 3.11332248 2.66868314 0 2 C0 1.34 0 0.68 0 0 Z " fill="#2A4A77" transform="translate(172,93)"/>
<path d="M0 0 C1.65 0 3.3 0 5 0 C5.33 0.99 5.66 1.98 6 3 C4.02 3 2.04 3 0 3 C0 2.01 0 1.02 0 0 Z " fill="#4C658F" transform="translate(96,86)"/>
<path d="M0 0 C0.66 0 1.32 0 2 0 C2.33 1.32 2.66 2.64 3 4 C1.02 4 -0.96 4 -3 4 C-2.67 3.01 -2.34 2.02 -2 1 C-1.34 1.33 -0.68 1.66 0 2 C0 1.34 0 0.68 0 0 Z " fill="#45628C" transform="translate(222,67)"/>
<path d="M0 0 C0.33 0 0.66 0 1 0 C0.67 2.64 0.34 5.28 0 8 C-1.32 7.67 -2.64 7.34 -4 7 C-3.34 6.01 -2.68 5.02 -2 4 C-1.34 4 -0.68 4 0 4 C0 2.68 0 1.36 0 0 Z " fill="#2E5589" transform="translate(217,40)"/>
<path d="M0 0 C0.66 0.99 1.32 1.98 2 3 C1.34 4.32 0.68 5.64 0 7 C-1.65 7 -3.3 7 -5 7 C-3.35 4.69 -1.7 2.38 0 0 Z " fill="#D5E0EA" transform="translate(245,38)"/>
<path d="M0 0 C2.03833424 1.2739589 4.03852126 2.61061923 6 4 C6 4.66 6 5.32 6 6 C4.02 6 2.04 6 0 6 C0.99 5.67 1.98 5.34 3 5 C3 4.34 3 3.68 3 3 C2.01 2.67 1.02 2.34 0 2 C0 1.34 0 0.68 0 0 Z " fill="#516E96" transform="translate(238,23)"/>
<path d="M0 0 C1.0828125 0.37125 1.0828125 0.37125 2.1875 0.75 C-1.25700737 3.04633824 -3.75062283 3.29016485 -7.8125 3.75 C-3.50480769 -0.31153846 -3.50480769 -0.31153846 0 0 Z " fill="#4166A0" transform="translate(235.8125,21.25)"/>
</svg>
