<?xml version="1.0" encoding="UTF-8"?>
<svg version="1.1" xmlns="http://www.w3.org/2000/svg" width="423" height="119">
<path d="M0 0 C139.59 0 279.18 0 423 0 C423 39.27 423 78.54 423 119 C283.41 119 143.82 119 0 119 C0 79.73 0 40.46 0 0 Z " fill="#FBFBFB" transform="translate(0,0)"/>
<path d="M0 0 C12.1351459 -0.06956604 24.27024422 -0.12284494 36.40554905 -0.15543652 C42.04070145 -0.17108026 47.67571723 -0.1922952 53.31079102 -0.22631836 C58.75079119 -0.2589575 64.1906601 -0.27686273 69.63075066 -0.28463173 C71.70434574 -0.29016703 73.77793378 -0.30097613 75.85147285 -0.31719017 C78.75994415 -0.33902474 81.66787571 -0.34196437 84.57641602 -0.34057617 C85.85711975 -0.35675491 85.85711975 -0.35675491 87.16369629 -0.3732605 C92.98203906 -0.34328772 98.10021668 0.21664164 102.51912689 4.45813465 C106.16717024 8.95286571 106.71827327 12.83031726 106.63110352 18.48632812 C106.63825882 19.30515976 106.64541412 20.12399139 106.65278625 20.96763611 C106.66960157 23.65608677 106.65031375 26.34285286 106.62890625 29.03125 C106.62973561 30.91019834 106.63219754 32.7891466 106.63621521 34.66809082 C106.6390683 38.59877459 106.62441987 42.528887 106.59692383 46.45947266 C106.56284193 51.4866039 106.56886393 56.51271397 106.5875864 61.5398941 C106.59817748 65.41766809 106.58919944 69.29520629 106.57420158 73.17295837 C106.56903478 75.02602945 106.56948327 76.8791253 106.57574654 78.73219299 C106.58122433 81.32655399 106.56074284 83.91947516 106.53344727 86.51367188 C106.53997314 87.2723204 106.54649902 88.03096893 106.55322266 88.81260681 C106.46112987 93.9852915 105.53039753 98.07366716 102 102 C96.8811287 105.81825178 91.80045748 106.58596573 85.56787109 106.51757812 C84.36625587 106.52809204 84.36625587 106.52809204 83.1403656 106.53881836 C80.51769364 106.55628682 77.89611857 106.54481825 75.2734375 106.53125 C73.43836258 106.5339476 71.60328905 106.53783226 69.76821899 106.54284668 C65.93355622 106.54872614 62.09926755 106.54022704 58.26464844 106.52148438 C53.35741696 106.49866336 48.45105916 106.51184753 43.54385948 106.53577423 C39.75879361 106.55024676 35.97393403 106.54562012 32.18886185 106.53526306 C30.37961345 106.53260147 28.57034611 106.53584552 26.76111984 106.54518127 C24.23135665 106.55537467 21.70299871 106.53980944 19.17333984 106.51757812 C18.06038292 106.52972351 18.06038292 106.52972351 16.92494202 106.54211426 C11.81620129 106.4592108 8.94855444 105.1901022 5 102 C0.03837155 96.50197929 -0.14319397 92.19485651 -0.11352539 85.03051758 C-0.11367142 84.11324387 -0.11381744 83.19597015 -0.1139679 82.25090027 C-0.11327057 79.21541997 -0.10548656 76.18000084 -0.09765625 73.14453125 C-0.09579143 71.04131606 -0.09436783 68.93810043 -0.09336853 66.83488464 C-0.08954839 61.29630334 -0.07972237 55.7577482 -0.06866455 50.21917725 C-0.05843964 44.56864781 -0.05386859 38.91811415 -0.04882812 33.26757812 C-0.03809968 22.17837391 -0.02102926 11.08918913 0 0 Z " fill="#010101" transform="translate(0,0)"/>
<path d="M0 0 C2.64 0 5.28 0 8 0 C8.33 5.28 8.66 10.56 9 16 C11.31 15.01 13.62 14.02 16 13 C21.50621734 12.19909566 24.77207222 13.43185548 29.19921875 16.53515625 C32.9046575 19.54934178 34.76225727 22.01334523 35.33984375 26.83984375 C35.51585564 32.53558849 35.46931579 37.25860175 32 42 C27.78239923 46.21760077 24.16931443 48.13791555 18.1875 48.3125 C13.18435297 48.29052424 10.78712473 47.18915767 7 44 C7 44.99 7 45.98 7 47 C4.69 47 2.38 47 0 47 C0 31.49 0 15.98 0 0 Z " fill="#070707" transform="translate(206,2)"/>
<path d="M0 0 C0.7528125 0.07863281 1.505625 0.15726563 2.28125 0.23828125 C4.62887164 0.71359197 6.41514781 1.52661639 8.5 2.6875 C8.83 2.0275 9.16 1.3675 9.5 0.6875 C12.14 0.6875 14.78 0.6875 17.5 0.6875 C17.5 11.5775 17.5 22.4675 17.5 33.6875 C14.86 33.6875 12.22 33.6875 9.5 33.6875 C9.17 33.0275 8.84 32.3675 8.5 31.6875 C7.94957031 32.17347656 7.39914062 32.65945312 6.83203125 33.16015625 C2.70859523 35.8607651 -1.74752406 35.2798766 -6.5 34.6875 C-10.68186294 33.40077294 -13.14120351 31.11989577 -15.9375 27.75 C-18.55171106 22.55538234 -18.29166011 16.3218377 -17.5 10.6875 C-15.16677862 5.95323103 -11.73961509 1.80712157 -6.58984375 0.02734375 C-4.26977766 -0.34993803 -2.33339028 -0.2677006 0 0 Z " fill="#070707" transform="translate(263.5,15.3125)"/>
<path d="M0 0 C5.45363675 2.42383855 8.7808826 6.52743081 11 12 C12.06432408 17.40745299 11.56235379 21.6774602 8.75 26.4375 C5.99013509 30.30442937 3.54539257 32.48486914 -1 34 C-2.78674413 34.16871733 -4.58091536 34.26580465 -6.375 34.3125 C-7.77878906 34.36857422 -7.77878906 34.36857422 -9.2109375 34.42578125 C-12 34 -12 34 -17 30 C-17.33 35.61 -17.66 41.22 -18 47 C-19.65 47 -21.3 47 -23 47 C-23 31.82 -23 16.64 -23 1 C-21.35 1 -19.7 1 -18 1 C-17.67 1.99 -17.34 2.98 -17 4 C-16.236875 3.34 -15.47375 2.68 -14.6875 2 C-10.15291842 -1.01587373 -5.23492759 -0.75007918 0 0 Z " fill="#090909" transform="translate(304,71)"/>
<path d="M0 0 C3.25 2 3.25 2 5 4 C5.33 3.01 5.66 2.02 6 1 C7.65 1 9.3 1 11 1 C11 11.89 11 22.78 11 34 C9.35 34 7.7 34 6 34 C6 32.68 6 31.36 6 30 C5.071875 30.66 4.14375 31.32 3.1875 32 C-1.69067579 34.7761976 -6.53237558 34.80940664 -12 34 C-16.92006067 31.67415314 -19.31231435 28.67856392 -22 24 C-23.88561599 18.34315204 -23.26218707 13.29318823 -21.05859375 7.86328125 C-16.40701364 -0.32418632 -8.53960035 -0.87556488 0 0 Z " fill="#0C0C0C" transform="translate(341,71)"/>
<path d="M0 0 C4.46279226 2.15170341 7.2358803 4.90500786 10 9 C11.69396382 14.40722227 11.72336041 19.91029214 9.875 25.25 C7.0252053 29.4296989 3.89407029 32.36864324 -1 34 C-8.11934674 34.6915289 -13.31295946 34.52642002 -19 30 C-23.32411224 24.78889038 -23.78283092 19.87238947 -23.58984375 13.171875 C-22.64888634 8.11189211 -20.00281572 5.09974144 -16 2 C-11.12709371 -1.08889248 -5.56037236 -0.60374016 0 0 Z " fill="#0C0C0C" transform="translate(208,71)"/>
<path d="M0 0 C2.64 0 5.28 0 8 0 C8.01401855 1.41478638 8.01401855 1.41478638 8.02832031 2.8581543 C8.0724431 6.37175542 8.13410205 9.88415253 8.20751953 13.3972168 C8.2356717 14.91500685 8.2569149 16.43294193 8.27099609 17.95092773 C8.29250723 20.13861021 8.33919228 22.32455965 8.390625 24.51171875 C8.41157227 25.82615967 8.43251953 27.14060059 8.45410156 28.49487305 C9.08044345 32.51651461 10.05954068 34.22315558 13 37 C17.14006158 37.5175077 20.56966462 37.54098917 24 35 C26.37620784 31.41258174 26.31016468 28.05330282 26.4140625 23.828125 C26.43342865 23.1457074 26.4527948 22.46328979 26.4727478 21.76019287 C26.53231098 19.59025392 26.57883446 17.42026123 26.625 15.25 C26.66320131 13.77471703 26.7022543 12.29945585 26.7421875 10.82421875 C26.83799235 7.21634582 26.92210916 3.60830917 27 0 C29.64 0 32.28 0 35 0 C35.09954745 4.69557647 35.17178467 9.39052663 35.21972656 14.08691406 C35.23973053 15.68142408 35.26694301 17.27586178 35.30175781 18.87011719 C35.65617214 35.5275905 35.65617214 35.5275905 31 42 C25.77209397 46.12595613 20.38035265 46.63458819 13.83984375 46.37890625 C9.49274508 45.79889446 7.42973612 44.7866606 4 42 C0.33683415 36.69750542 -0.57081899 33.02693736 -0.390625 26.66015625 C-0.38496521 25.89319931 -0.37930542 25.12624237 -0.37347412 24.33604431 C-0.35126494 21.91086686 -0.30110262 19.48722306 -0.25 17.0625 C-0.2299148 15.40822462 -0.21166758 13.75392584 -0.1953125 12.09960938 C-0.15145159 8.06582452 -0.08253637 4.03317134 0 0 Z " fill="#030303" transform="translate(139,4)"/>
<path d="M0 0 C3.3 0 6.6 0 10 0 C10.33 8.58 10.66 17.16 11 26 C18.37828793 27.41113217 18.37828793 27.41113217 23 26 C23.33 17.42 23.66 8.84 24 0 C26.97 0 29.94 0 33 0 C33.08725659 4.2290362 33.1404789 8.45784012 33.1875 12.6875 C33.21263672 13.88568359 33.23777344 15.08386719 33.26367188 16.31835938 C33.27333984 17.47529297 33.28300781 18.63222656 33.29296875 19.82421875 C33.3086792 20.88729248 33.32438965 21.95036621 33.34057617 23.0456543 C32.81157701 27.63448501 30.52507625 31.06243646 27 34 C21.0035089 35.99883037 12.34825431 36.62387689 6.52734375 33.80078125 C3.4896085 31.24031226 1.52469155 28.67609923 0 25 C-0.22705078 22.25097656 -0.22705078 22.25097656 -0.1953125 19.140625 C-0.18886719 18.02558594 -0.18242187 16.91054688 -0.17578125 15.76171875 C-0.15902344 14.60285156 -0.14226563 13.44398437 -0.125 12.25 C-0.11597656 11.07566406 -0.10695313 9.90132812 -0.09765625 8.69140625 C-0.07410063 5.79406464 -0.04120652 2.89713559 0 0 Z " fill="#F0F0F0" transform="translate(16,35)"/>
<path d="M0 0 C2.87659948 0.44850207 4.80035517 1.70830158 7.1796875 3.33984375 C11.05192902 3.75042143 11.05192902 3.75042143 13.05859375 1.87109375 C17.14653644 -1.08005456 22.37251594 -0.37038132 27.1796875 0.33984375 C30.67910071 2.85942126 32.56029019 5.39427453 34.1796875 9.33984375 C34.40673828 11.99707031 34.40673828 11.99707031 34.375 14.98046875 C34.36855469 16.05039063 34.36210937 17.1203125 34.35546875 18.22265625 C34.33871094 19.33382812 34.32195312 20.445 34.3046875 21.58984375 C34.29566406 22.71648437 34.28664063 23.843125 34.27734375 25.00390625 C34.25379408 27.7827674 34.2209043 30.56119765 34.1796875 33.33984375 C32.5296875 33.33984375 30.8796875 33.33984375 29.1796875 33.33984375 C29.1499585 32.37159668 29.1499585 32.37159668 29.11962891 31.38378906 C29.02422422 28.45207154 28.91460779 25.52105143 28.8046875 22.58984375 C28.77375 21.5740625 28.7428125 20.55828125 28.7109375 19.51171875 C28.65292969 18.0421875 28.65292969 18.0421875 28.59375 16.54296875 C28.5623291 15.64223633 28.5309082 14.74150391 28.49853516 13.81347656 C28.16368715 11.2157124 27.5753891 9.54593272 26.1796875 7.33984375 C23.12275428 5.81137714 20.54984203 6.1074193 17.1796875 6.33984375 C13.9946518 8.09999506 13.34671778 8.83875291 12.1796875 12.33984375 C12.03253551 13.96551454 11.93246883 15.59571232 11.86328125 17.2265625 C11.82138672 18.16435547 11.77949219 19.10214844 11.73632812 20.06835938 C11.69701172 21.04482422 11.65769531 22.02128906 11.6171875 23.02734375 C11.57400391 24.01541016 11.53082031 25.00347656 11.48632812 26.02148438 C11.38027096 28.46079921 11.27821036 30.90021488 11.1796875 33.33984375 C9.5296875 33.33984375 7.8796875 33.33984375 6.1796875 33.33984375 C6.15986816 32.6943457 6.14004883 32.04884766 6.11962891 31.38378906 C6.02422422 28.45207154 5.91460779 25.52105143 5.8046875 22.58984375 C5.77375 21.5740625 5.7428125 20.55828125 5.7109375 19.51171875 C5.67226562 18.53203125 5.63359375 17.55234375 5.59375 16.54296875 C5.54661865 15.19187012 5.54661865 15.19187012 5.49853516 13.81347656 C5.16368715 11.2157124 4.5753891 9.54593272 3.1796875 7.33984375 C0.12275428 5.81137714 -2.45015797 6.1074193 -5.8203125 6.33984375 C-9.0053482 8.09999506 -9.65328222 8.83875291 -10.8203125 12.33984375 C-10.96746449 13.96551454 -11.06753117 15.59571232 -11.13671875 17.2265625 C-11.17861328 18.16435547 -11.22050781 19.10214844 -11.26367188 20.06835938 C-11.30298828 21.04482422 -11.34230469 22.02128906 -11.3828125 23.02734375 C-11.42599609 24.01541016 -11.46917969 25.00347656 -11.51367188 26.02148438 C-11.61972904 28.46079921 -11.72178964 30.90021488 -11.8203125 33.33984375 C-13.4703125 33.33984375 -15.1203125 33.33984375 -16.8203125 33.33984375 C-16.8203125 22.77984375 -16.8203125 12.21984375 -16.8203125 1.33984375 C-15.1703125 1.33984375 -13.5203125 1.33984375 -11.8203125 1.33984375 C-11.4903125 2.32984375 -11.1603125 3.31984375 -10.8203125 4.33984375 C-10.10875 3.34984375 -10.10875 3.34984375 -9.3828125 2.33984375 C-6.10082388 -0.22170834 -4.06018011 -0.16640082 0 0 Z " fill="#040404" transform="translate(240.8203125,70.66015625)"/>
<path d="M0 0 C3.70864996 1.3050319 6.35814847 3.10853954 8.6875 6.34375 C10.65665256 11.82924641 10.31464491 17.09805669 10.1875 22.875 C10.16719727 24.62296875 10.16719727 24.62296875 10.14648438 26.40625 C10.11125821 29.27131118 10.06199715 32.13541377 10 35 C7.03 35 4.06 35 1 35 C0.98598145 33.9330188 0.98598145 33.9330188 0.97167969 32.84448242 C0.91803112 29.6247794 0.83437365 26.40653817 0.75 23.1875 C0.73582031 22.06794922 0.72164063 20.94839844 0.70703125 19.79492188 C0.67480469 18.72177734 0.64257812 17.64863281 0.609375 16.54296875 C0.58842773 15.55321045 0.56748047 14.56345215 0.54589844 13.54370117 C0.21445662 10.88078051 0.21445662 10.88078051 -1.84667969 9.14575195 C-4.92441213 7.50813309 -6.71724207 8.02215721 -10 9 C-12.24906814 10.68256229 -12.92109586 11.56930192 -13.43237305 14.36010742 C-13.45855713 15.26607666 -13.48474121 16.1720459 -13.51171875 17.10546875 C-13.54716797 18.08837891 -13.58261719 19.07128906 -13.61914062 20.08398438 C-13.65297852 21.62022461 -13.65297852 21.62022461 -13.6875 23.1875 C-13.72166016 24.22326172 -13.75582031 25.25902344 -13.79101562 26.32617188 C-13.87352642 28.8840066 -13.94266572 31.44149723 -14 34 C-16.64 34 -19.28 34 -22 34 C-22 23.11 -22 12.22 -22 1 C-19.36 1 -16.72 1 -14 1 C-13.67 1.66 -13.34 2.32 -13 3 C-12.34 2.505 -11.68 2.01 -11 1.5 C-7.23688962 -0.38155519 -4.08834968 -0.69044236 0 0 Z " fill="#0E0E0E" transform="translate(310,15)"/>
<path d="M0 0 C2.10176256 2.10176256 2.96373194 3.09945823 3.0625 6.0625 C2.4025 6.7225 1.7425 7.3825 1.0625 8.0625 C-2.79948511 7.7961562 -5.07253524 5.4751019 -7.9375 3.0625 C-12.53001812 0.76624094 -19.30780813 1.28988256 -24.14453125 2.7109375 C-27.82545038 4.58748451 -30.43414745 7.24329491 -32.28125 10.9375 C-33.98292323 16.44767999 -33.61678986 22.02463041 -31.8125 27.4375 C-28.90416789 31.50916495 -25.77715762 34.44928079 -20.9375 36.0625 C-13.42059531 36.99710627 -8.89681531 35.60424146 -2.9375 31.0625 C-1.9475 30.4025 -0.9575 29.7425 0.0625 29.0625 C1.3825 30.3825 2.7025 31.7025 4.0625 33.0625 C-3.33868526 39.82867232 -8.47739097 42.63167923 -18.75 42.33984375 C-25.95196572 41.71320213 -30.56303496 39.35301207 -35.4609375 34.0078125 C-40.00942775 28.01535709 -40.79233968 21.41646329 -39.9375 14.0625 C-38.51557562 7.84571433 -35.51946572 2.58195005 -30.19921875 -1.16015625 C-20.29224101 -7.07888599 -9.48622093 -6.25686913 0 0 Z " fill="#0B0B0B" transform="translate(176.9375,62.9375)"/>
<path d="M0 0 C3.4375 1.8125 3.4375 1.8125 6 4 C6.61875 4.515625 7.2375 5.03125 7.875 5.5625 C9 7 9 7 9 10 C6.75 11.8125 6.75 11.8125 4 13 C1.875 12.3125 1.875 12.3125 0 11 C-2.88599388 8.64381458 -2.88599388 8.64381458 -6.5 9.1875 C-10.02258486 10.00524291 -10.90346304 10.24829523 -13 13 C-13.68969826 16.06915727 -13.56655292 18.9136355 -13 22 C-11.14358251 25.2739971 -11.14358251 25.2739971 -8 27 C-4.2544684 27 -2.01058287 26.81498619 0.9375 24.4375 C1.288125 23.963125 1.63875 23.48875 2 23 C4.9375 23.75 4.9375 23.75 8 25 C8.875 27.125 8.875 27.125 9 29 C1.13211845 35.79498861 1.13211845 35.79498861 -4.25 36.3125 C-10.62605382 35.78116218 -15.12345042 34.38168768 -19.4375 29.5 C-23.68869484 24.21786145 -23.675244 18.54611548 -23 12 C-18.31107123 2.44847843 -10.22125842 -1.3402282 0 0 Z " fill="#F1F1F1" transform="translate(80,35)"/>
<path d="M0 0 C1.98 0 3.96 0 6 0 C9.73393831 7.18187283 12.9698293 14.49549213 16 22 C17.72253531 19.41619703 18.68493321 17.42490651 19.7265625 14.55078125 C20.0359375 13.70322266 20.3453125 12.85566406 20.6640625 11.98242188 C20.98117187 11.10134766 21.29828125 10.22027344 21.625 9.3125 C21.94984375 8.41982422 22.2746875 7.52714844 22.609375 6.60742188 C23.40981455 4.40621312 24.20654198 2.20373293 25 0 C26.98 0 28.96 0 31 0 C30.28371735 4.44784081 28.79770015 8.52407861 27.19921875 12.71484375 C26.92157181 13.4482045 26.64392487 14.18156525 26.35786438 14.93714905 C25.77068251 16.48354781 25.18137954 18.02914263 24.59008789 19.57397461 C23.69296471 21.92319005 22.80811294 24.27678639 21.92382812 26.63085938 C21.34970468 28.1383053 20.77485828 29.64547612 20.19921875 31.15234375 C19.93864182 31.84939926 19.67806488 32.54645477 19.40959167 33.26463318 C17.52458686 38.14060941 15.45478457 43.19982465 11.125 46.375 C8.33599444 47.19529575 5.88932392 47.19262159 3 47 C2 46 2 46 1.9375 43.4375 C1.958125 42.633125 1.97875 41.82875 2 41 C3.0725 40.95875 4.145 40.9175 5.25 40.875 C9.17150266 40.3341345 9.17150266 40.3341345 11.5 37.25 C13.21628282 33.53138723 13.07455213 32.80918255 12 29 C11.13929333 26.78848363 10.22617409 24.59703973 9.27734375 22.421875 C9.01240616 21.80983215 8.74746857 21.19778931 8.47450256 20.56719971 C7.63342124 18.62610211 6.78583001 16.68793924 5.9375 14.75 C5.08668681 12.79732973 4.23726602 10.84407273 3.38978577 8.88995361 C2.62457871 7.12690487 1.85523359 5.36565389 1.08569336 3.60449219 C0 1 0 1 0 0 Z " fill="#0D0D0D" transform="translate(391,72)"/>
<path d="M0 0 C3.57339883 1.92356873 5.69607513 4.0882254 7 8 C7.61963036 13.22259873 7.9313284 16.79907654 4.625 21.0625 C0.11778686 24.38925255 -3.48590424 24.69641694 -9 24 C-12.46868763 21.93354779 -14.80891972 19.89808091 -16 16 C-16.47235231 11.11902613 -16.52269768 8.97329912 -14.1875 4.625 C-10.0206501 -0.37521988 -6.19813725 -1.05590072 0 0 Z " fill="#F9F9F9" transform="translate(302,76)"/>
<path d="M0 0 C3.0717718 1.71077974 5.40485654 3.80971307 7 7 C7.43540712 11.26196588 7.47065428 14.91749516 5.75 18.875 C1.78464763 23.69007074 1.78464763 23.69007074 -2.046875 24.35546875 C-6.26996348 24.61764035 -9.13416826 24.37853938 -12.5 21.6875 C-15.94636167 17.98266121 -16.34440395 15.07480761 -16.2890625 10.06640625 C-15.81603804 6.6849206 -14.1444493 4.57333916 -12 2 C-7.97818385 -0.68121076 -4.72763609 -0.81344335 0 0 Z " fill="#F9F9F9" transform="translate(340,76)"/>
<path d="M0 0 C3.0717718 1.71077974 5.40485654 3.80971307 7 7 C7.51512617 11.09157355 7.94367269 15.23589546 5.953125 18.95703125 C3.63722512 21.75654552 1.68394887 23.7981908 -1.98828125 24.23828125 C-6.01006012 24.3667078 -8.3801072 24.35610863 -11.9375 22.3125 C-15.07841269 18.79087062 -15.86551566 16.23277309 -16.375 11.5625 C-15.92715888 7.30800938 -14.6792268 5.2916215 -12 2 C-7.97818385 -0.68121076 -4.72763609 -0.81344335 0 0 Z " fill="#F9F9F9" transform="translate(206,76)"/>
<path d="M0 0 C3.45658479 2.04573386 4.7785359 3.66780385 7 7 C7.22705078 9.72729492 7.22705078 9.72729492 7.1953125 12.98046875 C7.18886719 14.14384766 7.18242187 15.30722656 7.17578125 16.50585938 C7.15902344 17.72080078 7.14226562 18.93574219 7.125 20.1875 C7.11597656 21.41404297 7.10695313 22.64058594 7.09765625 23.90429688 C7.07406017 26.93639295 7.04113841 29.96809938 7 33 C5.35 33 3.7 33 2 33 C1.98598145 32.03960815 1.98598145 32.03960815 1.97167969 31.05981445 C1.91781153 28.14327625 1.83419801 25.22831375 1.75 22.3125 C1.73582031 21.30509766 1.72164063 20.29769531 1.70703125 19.25976562 C1.55927731 14.78282135 1.43248133 11.76791347 -0.79296875 7.81640625 C-4.37023505 4.87228443 -6.47628351 5.56916986 -11 6 C-11.99 6.33 -12.98 6.66 -14 7 C-15.01587978 10.04763934 -15.19804406 12.34718967 -15.31640625 15.54296875 C-15.35830078 16.61611328 -15.40019531 17.68925781 -15.44335938 18.79492188 C-15.50233398 20.47424805 -15.50233398 20.47424805 -15.5625 22.1875 C-15.60568359 23.31865234 -15.64886719 24.44980469 -15.69335938 25.61523438 C-15.79949099 28.41003354 -15.90154385 31.20492162 -16 34 C-17.98 34 -19.96 34 -22 34 C-22 23.11 -22 12.22 -22 1 C-20.35 1 -18.7 1 -17 1 C-17 1.99 -17 2.98 -17 4 C-16.236875 3.34 -15.47375 2.68 -14.6875 2 C-10.18600064 -1.00099957 -5.20148604 -0.80083855 0 0 Z " fill="#0B0B0B" transform="translate(381,71)"/>
<path d="M0 0 C0 2.64 0 5.28 0 8 C-1.98567708 8.16276042 -3.97135417 8.32552083 -5.95703125 8.48828125 C-8.53867803 9.134927 -9.36021256 9.91320513 -11 12 C-11.50330762 14.41063442 -11.50330762 14.41063442 -11.51171875 17.10546875 C-11.54716797 18.08837891 -11.58261719 19.07128906 -11.61914062 20.08398438 C-11.65297852 21.62022461 -11.65297852 21.62022461 -11.6875 23.1875 C-11.72166016 24.22326172 -11.75582031 25.25902344 -11.79101562 26.32617188 C-11.87352642 28.8840066 -11.94266572 31.44149723 -12 34 C-14.64 34 -17.28 34 -20 34 C-20 23.11 -20 12.22 -20 1 C-17.69 1 -15.38 1 -13 1 C-12.67 1.99 -12.34 2.98 -12 4 C-11.319375 3.34 -10.63875 2.68 -9.9375 2 C-6.35542625 -0.43885872 -4.24480464 -0.33292585 0 0 Z " fill="#040404" transform="translate(201,15)"/>
<path d="M0 0 C3.02182284 2.05741129 4.69011377 3.49949825 5.4453125 7.15625 C5.65056702 11.26134032 5.33688603 13.46098235 3.125 17 C0.38262878 19.58105526 -0.51262207 19.95402095 -4.3125 20.3125 C-8.61926041 19.9475203 -10.02483986 19.06016472 -13 16 C-15.072554 13.362204 -15.13604121 11.24885619 -14.9375 8 C-14.4303227 4.67860721 -14.0759308 4.0759308 -11.5625 1.5625 C-7.13448587 -1.13750862 -5.16851305 -1.22642683 0 0 Z " fill="#F4F4F4" transform="translate(268,23)"/>
<path d="M0 0 C3.0625 2 3.0625 2 5 5 C5.71893415 10.03253902 5.56425742 11.96552807 3.125 16.4375 C0.46121744 19.64970839 -0.163192 19.92105585 -4.3125 20.3125 C-8.57536111 19.95124058 -10.01992054 18.98007946 -13 16 C-14.74601232 12.50797535 -14.55838804 8.81017721 -14 5 C-10.51121086 -0.51453767 -6.09967687 -1.34567916 0 0 Z " fill="#F7F7F7" transform="translate(228,23)"/>
<path d="M0 0 C3.96 0 7.92 0 12 0 C10.02 0.99 10.02 0.99 8 2 C4.92927535 4.84603748 2.52412752 7.63449664 0 11 C0 7.37 0 3.74 0 0 Z " fill="#F2F2F2" transform="translate(0,0)"/>
</svg>
